<svg xmlns="http://www.w3.org/2000/svg" width="2500" height="2500" viewBox="0 0 2500 2500" version="1.1"><path d="M 1292.750 760.742 C 1289.037 760.934, 1286 761.521, 1286 762.046 C 1286 762.571, 1287.688 763.071, 1289.750 763.158 C 1291.813 763.244, 1294.168 763.277, 1294.985 763.229 C 1295.802 763.182, 1301.948 763.499, 1308.643 763.933 C 1318.408 764.567, 1321.499 765.146, 1324.276 766.861 C 1327.008 768.550, 1329.319 769, 1335.259 769 C 1340.618 769, 1344.035 769.569, 1347.141 770.978 C 1349.572 772.081, 1353.712 772.969, 1356.500 772.984 C 1359.250 773, 1362.818 773.700, 1364.430 774.540 C 1366.041 775.381, 1370.541 776.546, 1374.430 777.130 C 1378.318 777.714, 1382.850 778.813, 1384.500 779.573 C 1386.150 780.333, 1389.683 781.427, 1392.352 782.004 C 1395.021 782.582, 1398.486 783.717, 1400.052 784.527 C 1401.619 785.337, 1403.948 786, 1405.228 786 C 1406.508 786, 1408.443 786.611, 1409.527 787.358 C 1410.612 788.104, 1413.300 789.296, 1415.500 790.005 C 1417.700 790.714, 1421.068 792.128, 1422.985 793.147 C 1424.902 794.166, 1427.463 795, 1428.676 795 C 1429.889 795, 1431.156 795.444, 1431.492 795.987 C 1431.827 796.530, 1434.532 797.680, 1437.501 798.543 C 1440.839 799.514, 1443.115 800.789, 1443.462 801.882 C 1443.872 803.173, 1444.789 803.538, 1446.862 803.234 C 1448.911 802.933, 1450.476 803.537, 1452.496 805.409 C 1454.034 806.834, 1455.943 808, 1456.738 808 C 1457.534 808, 1459.329 808.900, 1460.727 810 C 1462.126 811.100, 1464.048 812, 1465 812 C 1465.952 812, 1467.874 812.900, 1469.273 814 C 1470.671 815.100, 1472.471 816, 1473.273 816 C 1474.074 816, 1475.805 816.846, 1477.120 817.879 C 1478.434 818.913, 1480.407 819.928, 1481.504 820.135 C 1482.602 820.342, 1483.935 821.500, 1484.467 822.709 C 1485.099 824.146, 1486.482 825.008, 1488.467 825.203 C 1490.478 825.400, 1491.833 826.258, 1492.487 827.750 C 1493.030 828.987, 1494.272 830, 1495.247 830 C 1496.223 830, 1499.215 831.543, 1501.898 833.428 C 1504.581 835.314, 1508.286 837.001, 1510.133 837.178 C 1512.982 837.451, 1513.571 837.955, 1514.016 840.500 C 1514.431 842.868, 1514.993 843.437, 1516.682 843.202 C 1517.860 843.038, 1519.114 843.376, 1519.470 843.952 C 1519.827 844.528, 1520.922 845, 1521.904 845 C 1522.886 845, 1524.446 845.835, 1525.369 846.855 C 1526.405 848, 1526.791 849.437, 1526.377 850.605 C 1525.827 852.158, 1525.949 852.274, 1527.053 851.250 C 1527.794 850.563, 1529.030 850, 1529.800 850 C 1530.570 850, 1533.255 852.025, 1535.765 854.500 C 1538.276 856.975, 1541.005 859, 1541.831 859 C 1542.657 859, 1544.185 859.788, 1545.226 860.750 C 1546.268 861.712, 1548.443 863.838, 1550.060 865.473 C 1551.677 867.108, 1553 869.434, 1553 870.641 C 1553 872.055, 1554.199 873.578, 1556.368 874.918 C 1558.220 876.063, 1560.738 877, 1561.962 877 C 1563.346 877, 1564.385 877.756, 1564.710 879 C 1565 880.107, 1566.074 881, 1567.117 881 C 1568.333 881, 1569 881.708, 1569 883 C 1569 884.344, 1569.667 885, 1571.031 885 C 1572.149 885, 1573.341 885.788, 1573.680 886.750 C 1574.020 887.712, 1575.209 889.513, 1576.323 890.750 C 1577.437 891.987, 1578.929 893, 1579.639 893 C 1580.349 893, 1581.432 893.939, 1582.047 895.087 C 1582.661 896.235, 1584.589 898.466, 1586.332 900.044 C 1588.074 901.622, 1590.679 903.414, 1592.120 904.024 C 1593.561 904.635, 1595.224 906.196, 1595.815 907.494 C 1596.406 908.791, 1599.317 911.684, 1602.284 913.924 C 1605.250 916.164, 1608.195 919.133, 1608.828 920.521 C 1609.560 922.129, 1611.093 923.269, 1613.048 923.660 C 1615.478 924.146, 1616.566 925.236, 1618.264 928.887 C 1619.444 931.424, 1620.954 933.950, 1621.620 934.500 C 1622.286 935.050, 1622.984 936.380, 1623.171 937.456 C 1623.364 938.567, 1624.588 939.664, 1626.005 939.996 C 1627.580 940.365, 1629.256 942.027, 1630.550 944.507 C 1631.827 946.953, 1633.523 948.649, 1635.050 949.007 C 1637.016 949.467, 1637.924 950.857, 1639.644 956.040 C 1641.610 961.964, 1642.171 962.691, 1646.394 964.797 C 1649.188 966.190, 1650.994 967.764, 1650.985 968.797 C 1650.976 969.734, 1650.556 971.153, 1650.051 971.952 C 1649.403 972.975, 1649.703 973.804, 1651.066 974.759 C 1652.130 975.504, 1653 977.213, 1653 978.557 C 1653 980.048, 1653.577 981, 1654.481 981 C 1655.295 981, 1656.234 982.082, 1656.566 983.406 C 1656.898 984.729, 1658.049 986.041, 1659.125 986.322 C 1660.609 986.710, 1660.937 987.402, 1660.488 989.191 C 1660.051 990.933, 1660.563 992.129, 1662.448 993.768 C 1663.852 994.988, 1665 996.724, 1665 997.625 C 1665 998.527, 1665.905 1000.728, 1667.011 1002.518 C 1668.118 1004.308, 1669.918 1006.007, 1671.011 1006.293 C 1672.526 1006.689, 1673 1007.661, 1673 1010.371 C 1673 1012.856, 1673.579 1014.239, 1674.919 1014.956 C 1675.974 1015.521, 1677.135 1017.337, 1677.498 1018.992 C 1677.862 1020.646, 1678.771 1022, 1679.519 1022 C 1680.369 1022, 1680.996 1023.407, 1681.190 1025.750 C 1681.439 1028.762, 1681.943 1029.563, 1683.750 1029.820 C 1685.674 1030.093, 1686 1030.745, 1686 1034.329 C 1686 1037.436, 1686.517 1038.842, 1688 1039.768 C 1689.100 1040.455, 1690 1041.861, 1690 1042.893 C 1690 1043.926, 1691.084 1045.480, 1692.410 1046.349 C 1694.486 1047.710, 1694.745 1048.485, 1694.278 1051.964 C 1693.940 1054.481, 1694.136 1056, 1694.797 1056 C 1695.380 1056, 1696.553 1056.696, 1697.403 1057.546 C 1698.542 1058.685, 1698.792 1060.238, 1698.352 1063.445 C 1697.848 1067.124, 1698.064 1067.964, 1699.746 1068.864 C 1700.840 1069.450, 1701.997 1071.236, 1702.317 1072.835 C 1702.677 1074.634, 1703.684 1075.946, 1704.964 1076.280 C 1706.892 1076.784, 1706.986 1077.302, 1706.367 1083.965 C 1705.740 1090.707, 1705.824 1091.141, 1707.851 1091.671 C 1709.735 1092.164, 1710 1092.942, 1710 1097.982 C 1710 1102.216, 1710.527 1104.400, 1712 1106.273 C 1713.100 1107.671, 1714.007 1110.319, 1714.015 1112.158 C 1714.024 1113.996, 1714.402 1116.086, 1714.857 1116.803 C 1715.311 1117.519, 1716.317 1117.969, 1717.092 1117.803 C 1718.230 1117.558, 1718.433 1118.969, 1718.151 1125.151 C 1717.959 1129.359, 1718.102 1133.747, 1718.469 1134.901 C 1718.843 1136.079, 1719.983 1137, 1721.067 1137 C 1722.805 1137, 1723.007 1137.781, 1723.070 1144.750 C 1723.109 1149.013, 1723.464 1153.321, 1723.859 1154.324 C 1724.255 1155.327, 1725.011 1156.002, 1725.539 1155.824 C 1726.098 1155.636, 1726.604 1159.475, 1726.749 1165 C 1726.886 1170.225, 1727.232 1175.513, 1727.518 1176.750 C 1727.804 1177.987, 1728.705 1179, 1729.519 1179 C 1730.334 1179, 1731.057 1179.563, 1731.126 1180.250 C 1731.195 1180.938, 1731.154 1205.800, 1731.035 1235.500 C 1730.893 1270.874, 1731.202 1292.282, 1731.931 1297.566 C 1732.586 1302.308, 1732.707 1307.254, 1732.225 1309.566 C 1731.609 1312.521, 1730.919 1313.500, 1729.453 1313.501 C 1727.807 1313.501, 1727.394 1314.446, 1726.830 1319.501 C 1726.461 1322.800, 1725.591 1326.850, 1724.897 1328.500 C 1724.203 1330.150, 1723.380 1336.450, 1723.068 1342.500 C 1722.617 1351.233, 1722.210 1353.438, 1721.092 1353.197 C 1720.317 1353.031, 1719.311 1353.481, 1718.857 1354.197 C 1718.402 1354.914, 1718.024 1357.881, 1718.015 1360.790 C 1718.004 1364.669, 1718.580 1366.865, 1720.171 1369.017 C 1722.044 1371.550, 1722.177 1372.317, 1721.138 1374.595 C 1720.117 1376.837, 1719.486 1377.147, 1716.967 1376.643 C 1714.259 1376.102, 1713.999 1376.288, 1713.993 1378.775 C 1713.990 1380.274, 1713.093 1382.850, 1712 1384.500 C 1710.602 1386.611, 1710.011 1389.194, 1710.007 1393.215 C 1710.001 1397.902, 1709.640 1399.122, 1708 1400 C 1706.575 1400.763, 1706 1402.094, 1706 1404.631 C 1706 1406.589, 1706.778 1409.509, 1707.730 1411.120 C 1709.068 1413.384, 1709.206 1414.439, 1708.339 1415.774 C 1707.680 1416.790, 1706.145 1417.423, 1704.609 1417.312 C 1702.625 1417.169, 1702 1417.590, 1702 1419.072 C 1702 1420.143, 1701.100 1421.790, 1700 1422.732 C 1698.531 1423.990, 1698 1425.682, 1698 1429.107 C 1698 1432.977, 1697.575 1434.048, 1695.500 1435.408 C 1693.835 1436.499, 1693 1437.966, 1693 1439.801 C 1693 1441.318, 1692.102 1443.325, 1691 1444.268 C 1689.900 1445.210, 1689 1447.040, 1689 1448.335 C 1689 1449.630, 1688.100 1451.505, 1687 1452.500 C 1685.669 1453.704, 1685 1455.580, 1685 1458.105 C 1685 1460.406, 1684.421 1462.225, 1683.529 1462.724 C 1682.720 1463.177, 1680.922 1465.787, 1679.533 1468.524 C 1678.144 1471.261, 1677.006 1473.994, 1677.004 1474.597 C 1677.002 1475.200, 1676.096 1476.736, 1674.992 1478.009 C 1673.192 1480.085, 1673.140 1480.497, 1674.492 1481.991 C 1675.321 1482.908, 1676 1484.320, 1676 1485.129 C 1676 1485.938, 1675.460 1487.140, 1674.800 1487.800 C 1674.140 1488.460, 1672.565 1489, 1671.300 1489 C 1669.392 1489, 1669 1489.531, 1669 1492.117 C 1669 1494.741, 1668.684 1495.151, 1667 1494.710 C 1665.339 1494.276, 1665 1494.680, 1665 1497.094 C 1665 1499.578, 1664.611 1500, 1662.326 1500 L 1659.651 1500 1661.826 1502.314 C 1663.022 1503.587, 1664 1505.093, 1664 1505.659 C 1664 1506.226, 1663.177 1507.435, 1662.171 1508.345 C 1661.165 1509.255, 1659.333 1510, 1658.100 1510 C 1656.866 1510, 1655.141 1510.716, 1654.266 1511.591 C 1653.048 1512.809, 1652.965 1513.360, 1653.912 1513.946 C 1654.620 1514.383, 1655.010 1516.160, 1654.824 1518.105 C 1654.525 1521.238, 1654.211 1521.524, 1650.746 1521.811 C 1647.318 1522.094, 1647.045 1522.333, 1647.605 1524.561 C 1647.941 1525.902, 1647.880 1527, 1647.469 1527 C 1647.057 1527, 1646.082 1526.213, 1645.302 1525.250 C 1644.023 1523.671, 1643.923 1523.829, 1644.285 1526.863 C 1644.506 1528.712, 1644.132 1531.862, 1643.454 1533.863 C 1642.776 1535.863, 1641.159 1538.048, 1639.861 1538.718 C 1638.192 1539.580, 1637.589 1540.641, 1637.804 1542.338 C 1638.038 1544.183, 1637.294 1545.219, 1634.587 1546.816 C 1632.615 1547.980, 1630.787 1550, 1630.434 1551.405 C 1630.012 1553.088, 1628.346 1554.622, 1625.385 1556.056 C 1622.955 1557.232, 1620.496 1559.073, 1619.922 1560.145 C 1619.348 1561.218, 1617.781 1562.513, 1616.439 1563.023 C 1615.098 1563.533, 1614 1564.621, 1614 1565.440 C 1614 1566.259, 1613.100 1567.411, 1612 1568 C 1610.900 1568.589, 1610 1569.484, 1610 1569.990 C 1610 1570.495, 1608.920 1571.989, 1607.600 1573.309 C 1606.280 1574.629, 1604.480 1575.986, 1603.600 1576.323 C 1602.693 1576.671, 1602 1578.080, 1602 1579.576 C 1602 1581.439, 1601.584 1582.055, 1600.586 1581.671 C 1599.742 1581.348, 1597.828 1582.713, 1595.836 1585.059 C 1594.001 1587.221, 1591.926 1588.992, 1591.225 1588.995 C 1590.524 1588.998, 1589.523 1590.125, 1589 1591.500 C 1588.477 1592.875, 1587.412 1594, 1586.632 1594 C 1585.852 1594, 1584.980 1594.611, 1584.693 1595.357 C 1584.407 1596.104, 1582.478 1597.594, 1580.406 1598.669 C 1578.335 1599.744, 1576.200 1601.496, 1575.662 1602.562 C 1575.125 1603.628, 1574.418 1604.995, 1574.092 1605.601 C 1573.767 1606.206, 1572.065 1608.598, 1570.312 1610.916 C 1568.558 1613.233, 1566.946 1615.662, 1566.729 1616.313 C 1566.512 1616.963, 1565.022 1617.555, 1563.417 1617.628 C 1561.813 1617.700, 1559.669 1618.104, 1558.654 1618.524 C 1557.639 1618.944, 1555.541 1620.460, 1553.990 1621.894 C 1552.440 1623.327, 1551.021 1625.561, 1550.836 1626.857 C 1550.581 1628.642, 1549.307 1629.665, 1545.579 1631.075 C 1542.872 1632.099, 1540.397 1633.349, 1540.079 1633.853 C 1539.760 1634.356, 1538.628 1634.934, 1537.563 1635.136 C 1536.367 1635.363, 1535.308 1636.730, 1534.795 1638.709 C 1534.127 1641.290, 1533.236 1642.118, 1530.232 1642.952 C 1528.180 1643.522, 1525.114 1643.991, 1523.421 1643.994 C 1520.872 1643.999, 1520.355 1644.388, 1520.421 1646.250 C 1520.485 1648.087, 1520.007 1648.467, 1517.810 1648.320 C 1515.739 1648.181, 1515.049 1648.641, 1514.810 1650.320 C 1514.566 1652.035, 1513.722 1652.565, 1510.852 1652.804 C 1508.233 1653.023, 1507.061 1653.657, 1506.696 1655.054 C 1506.396 1656.200, 1505.327 1657, 1504.094 1657 C 1502.535 1657, 1502 1657.630, 1502 1659.465 C 1502 1660.922, 1501.166 1662.376, 1499.961 1663.021 C 1498.839 1663.621, 1497.152 1664.017, 1496.211 1663.900 C 1495.270 1663.783, 1493.150 1664.221, 1491.500 1664.873 C 1489.850 1665.526, 1487.938 1666.257, 1487.250 1666.498 C 1486.563 1666.740, 1486 1667.401, 1486 1667.969 C 1486 1668.536, 1484.650 1669, 1483 1669 C 1480.349 1669, 1480 1669.341, 1480 1671.933 C 1480 1674.021, 1479.403 1675.055, 1477.928 1675.523 C 1476.644 1675.930, 1475.189 1675.576, 1474.100 1674.590 C 1473.133 1673.716, 1471.548 1673, 1470.578 1673 C 1469.607 1673, 1468.584 1673.875, 1468.305 1674.943 C 1467.994 1676.131, 1466.767 1677.006, 1465.148 1677.193 C 1463.260 1677.412, 1462.406 1678.162, 1462.173 1679.804 C 1461.900 1681.732, 1461.333 1682.058, 1458.699 1681.804 C 1455.895 1681.533, 1455.494 1681.827, 1455.021 1684.500 C 1454.606 1686.847, 1453.905 1687.568, 1451.803 1687.811 C 1450.325 1687.982, 1447.984 1687.381, 1446.602 1686.475 C 1445.219 1685.569, 1443.660 1685.092, 1443.138 1685.415 C 1442.615 1685.738, 1442.423 1686.902, 1442.711 1688.001 C 1443.151 1689.687, 1442.740 1690, 1440.085 1690 C 1437.990 1690, 1436.730 1690.585, 1436.317 1691.750 C 1435.975 1692.713, 1435.020 1694.287, 1434.193 1695.250 C 1433.366 1696.213, 1432.043 1697, 1431.253 1697 C 1430.462 1697, 1428.679 1696.106, 1427.290 1695.014 C 1425.901 1693.921, 1424.350 1693.284, 1423.842 1693.598 C 1423.334 1693.912, 1423.177 1694.983, 1423.493 1695.979 C 1423.815 1696.991, 1423.360 1698.497, 1422.463 1699.395 C 1421.580 1700.278, 1419.525 1701, 1417.897 1701 C 1416.189 1701, 1414.694 1700.366, 1414.362 1699.500 C 1414.045 1698.675, 1412.934 1698, 1411.893 1698 C 1410.852 1698, 1410 1698.450, 1410 1699 C 1410 1699.550, 1410.955 1700, 1412.122 1700 C 1413.955 1700, 1414.064 1700.218, 1412.916 1701.601 C 1411.873 1702.858, 1410.528 1703.062, 1406.667 1702.550 C 1402.386 1701.982, 1401.828 1702.108, 1402.370 1703.521 C 1402.712 1704.414, 1402.529 1706.012, 1401.961 1707.072 C 1401.246 1708.408, 1399.863 1709, 1397.455 1709 C 1395.218 1709, 1393.371 1708.288, 1392.268 1707 C 1391.326 1705.900, 1389.868 1705.007, 1389.028 1705.015 C 1388.187 1705.024, 1386.854 1705.439, 1386.064 1705.939 C 1384.830 1706.720, 1384.826 1707.085, 1386.032 1708.538 C 1387.263 1710.022, 1387.150 1710.460, 1385.107 1712.115 C 1383.826 1713.152, 1381.851 1714, 1380.718 1714 C 1379.585 1714, 1377.895 1714.690, 1376.962 1715.534 C 1376.030 1716.378, 1372.400 1717.530, 1368.896 1718.094 C 1365.392 1718.658, 1361.844 1719.711, 1361.012 1720.434 C 1360.181 1721.156, 1356.441 1721.979, 1352.702 1722.262 C 1348.376 1722.590, 1345.237 1723.381, 1344.070 1724.437 C 1343.062 1725.349, 1339.146 1726.564, 1335.368 1727.137 C 1331.591 1727.710, 1327.878 1728.777, 1327.117 1729.508 C 1325.956 1730.624, 1326.494 1730.951, 1330.463 1731.547 C 1333.064 1731.937, 1337.456 1731.988, 1340.222 1731.660 C 1342.989 1731.332, 1346.404 1730.310, 1347.811 1729.388 C 1349.433 1728.326, 1353.503 1727.488, 1358.934 1727.099 C 1364.653 1726.690, 1368.322 1725.907, 1369.973 1724.743 C 1371.526 1723.648, 1374.314 1722.998, 1377.473 1722.993 C 1380.807 1722.989, 1383.510 1722.318, 1385.500 1721 C 1387.432 1719.721, 1390.193 1719.011, 1393.254 1719.007 C 1396.085 1719.003, 1399.516 1718.191, 1401.739 1717 C 1403.791 1715.900, 1406.609 1715, 1408 1715 C 1409.391 1715, 1412.209 1714.100, 1414.261 1713 C 1416.314 1711.900, 1419.007 1710.990, 1420.246 1710.978 C 1421.486 1710.966, 1424.462 1710.066, 1426.859 1708.978 C 1429.257 1707.890, 1431.957 1706.986, 1432.859 1706.969 C 1433.762 1706.952, 1436.750 1705.831, 1439.500 1704.478 C 1442.250 1703.125, 1445.007 1702.014, 1445.628 1702.009 C 1446.248 1702.004, 1447.291 1701.354, 1447.947 1700.564 C 1448.602 1699.775, 1450.570 1698.816, 1452.319 1698.434 C 1454.069 1698.052, 1456.573 1696.898, 1457.885 1695.870 C 1459.197 1694.841, 1461.582 1694, 1463.187 1694 C 1464.791 1694, 1467.768 1693.099, 1469.802 1691.997 C 1471.836 1690.895, 1476.200 1688.712, 1479.500 1687.146 C 1482.800 1685.579, 1490 1681.924, 1495.500 1679.022 C 1501 1676.120, 1506.325 1672.678, 1507.333 1671.373 C 1508.342 1670.068, 1510.150 1669, 1511.352 1669 C 1512.553 1669, 1515.715 1667.200, 1518.377 1665 C 1521.040 1662.800, 1524.014 1661, 1524.986 1661 C 1525.959 1661, 1527.297 1660.347, 1527.959 1659.550 C 1528.621 1658.752, 1531.489 1656.713, 1534.331 1655.019 C 1537.174 1653.325, 1541.064 1650.804, 1542.975 1649.418 C 1544.886 1648.031, 1548.936 1645.011, 1551.975 1642.707 C 1555.014 1640.402, 1559.008 1637.051, 1560.850 1635.258 C 1562.693 1633.466, 1564.553 1632, 1564.984 1632 C 1565.415 1632, 1569.982 1628.266, 1575.134 1623.703 C 1580.285 1619.139, 1587.425 1612.610, 1591 1609.194 C 1594.575 1605.777, 1600.650 1599.891, 1604.500 1596.113 C 1608.350 1592.335, 1615.880 1584.576, 1621.233 1578.872 C 1626.586 1573.167, 1632.886 1565.890, 1635.233 1562.699 C 1637.580 1559.509, 1641.761 1554.279, 1644.524 1551.076 C 1647.287 1547.874, 1650.437 1543.521, 1651.524 1541.404 C 1652.611 1539.286, 1654.974 1535.998, 1656.776 1534.097 C 1658.578 1532.195, 1660.342 1529.484, 1660.697 1528.072 C 1661.051 1526.660, 1662.632 1524.214, 1664.209 1522.637 C 1665.787 1521.060, 1667.953 1518.051, 1669.024 1515.952 C 1670.095 1513.853, 1671.379 1511.884, 1671.876 1511.576 C 1672.374 1511.269, 1674.016 1508.651, 1675.524 1505.759 C 1677.032 1502.866, 1679.106 1499.427, 1680.133 1498.115 C 1681.160 1496.803, 1682 1495.299, 1682 1494.773 C 1682 1494.246, 1682.900 1492.671, 1684 1491.273 C 1685.100 1489.874, 1686 1487.662, 1686 1486.355 C 1686 1485.049, 1686.900 1483.210, 1688 1482.268 C 1689.100 1481.326, 1690 1479.600, 1690 1478.433 C 1690 1477.265, 1690.900 1475.495, 1692 1474.500 C 1693.100 1473.505, 1694 1471.635, 1694 1470.345 C 1694 1469.055, 1694.822 1467.178, 1695.827 1466.173 C 1696.832 1465.168, 1698.632 1462.326, 1699.827 1459.857 C 1701.022 1457.388, 1702 1454.645, 1702 1453.761 C 1702 1452.877, 1703.125 1450.816, 1704.500 1449.182 C 1705.875 1447.548, 1707 1445.768, 1707 1445.226 C 1707 1444.685, 1708.169 1441.600, 1709.597 1438.371 C 1711.025 1435.142, 1712.825 1431.082, 1713.597 1429.349 C 1714.369 1427.616, 1715 1425.456, 1715 1424.549 C 1715 1423.643, 1715.753 1421.461, 1716.674 1419.700 C 1717.594 1417.940, 1718.933 1414.250, 1719.650 1411.500 C 1720.366 1408.750, 1721.795 1403.335, 1722.825 1399.467 C 1723.855 1395.599, 1725.163 1391.549, 1725.733 1390.467 C 1726.302 1389.385, 1727.095 1386.525, 1727.495 1384.110 C 1727.896 1381.696, 1729.063 1377.871, 1730.090 1375.610 C 1731.116 1373.350, 1731.966 1369.565, 1731.978 1367.200 C 1731.990 1364.836, 1732.667 1361.612, 1733.481 1360.036 C 1734.296 1358.461, 1735.255 1354.546, 1735.613 1351.336 C 1735.971 1348.126, 1736.952 1343.925, 1737.794 1342 C 1738.635 1340.075, 1739.637 1333.775, 1740.020 1328 C 1740.404 1322.225, 1741.463 1315.559, 1742.375 1313.187 C 1743.555 1310.118, 1744.151 1304.639, 1744.442 1294.187 C 1744.667 1286.109, 1745.297 1276.800, 1745.841 1273.500 C 1746.386 1270.200, 1746.854 1260.075, 1746.883 1251 C 1746.911 1241.925, 1746.426 1231.350, 1745.805 1227.500 C 1745.184 1223.650, 1744.571 1214.232, 1744.443 1206.571 C 1744.315 1198.910, 1743.909 1190.371, 1743.541 1187.596 C 1743.173 1184.821, 1742.338 1181.909, 1741.686 1181.126 C 1740.980 1180.277, 1740.287 1174.568, 1739.974 1167.017 C 1739.597 1157.903, 1739.007 1153.654, 1737.878 1151.917 C 1736.978 1150.531, 1736.060 1146.168, 1735.726 1141.685 C 1735.391 1137.181, 1734.478 1132.852, 1733.572 1131.470 C 1732.707 1130.150, 1731.980 1127.142, 1731.956 1124.785 C 1731.932 1122.428, 1731.216 1118.700, 1730.366 1116.500 C 1729.515 1114.300, 1728.252 1109.800, 1727.560 1106.500 C 1726.867 1103.200, 1725.496 1098.025, 1724.513 1095 C 1723.530 1091.975, 1722.141 1088.083, 1721.427 1086.351 C 1720.713 1084.619, 1719.820 1081.469, 1719.443 1079.351 C 1719.065 1077.233, 1717.911 1074.097, 1716.878 1072.382 C 1715.845 1070.667, 1715 1068.471, 1715 1067.501 C 1715 1066.531, 1713.161 1061.409, 1710.913 1056.119 C 1708.665 1050.829, 1706.419 1045.600, 1705.920 1044.500 C 1705.422 1043.400, 1704.460 1041.600, 1703.782 1040.500 C 1703.104 1039.400, 1701.526 1036.901, 1700.275 1034.946 C 1699.024 1032.992, 1698 1030.474, 1698 1029.351 C 1698 1028.229, 1697.100 1026.495, 1696 1025.500 C 1694.823 1024.435, 1693.998 1022.416, 1693.996 1020.595 C 1693.993 1018.535, 1692.655 1015.737, 1689.996 1012.230 C 1687.798 1009.331, 1686 1006.129, 1686 1005.115 C 1686 1004.100, 1685.100 1002.126, 1684 1000.727 C 1682.900 999.329, 1682 997.733, 1682 997.182 C 1682 996.631, 1680.200 993.902, 1678 991.119 C 1675.800 988.336, 1674 985.541, 1674 984.909 C 1674 984.277, 1672.763 981.762, 1671.250 979.322 C 1669.737 976.881, 1666.813 972.673, 1664.750 969.971 C 1662.688 967.269, 1661 964.636, 1661 964.119 C 1661 963.602, 1659.227 960.937, 1657.060 958.196 C 1654.894 955.455, 1651.969 952.060, 1650.560 950.651 C 1649.152 949.243, 1648 947.584, 1648 946.964 C 1648 946.344, 1646.344 943.736, 1644.320 941.168 C 1642.296 938.601, 1638.892 934.855, 1636.756 932.844 C 1634.619 930.834, 1631.498 927.009, 1629.819 924.344 C 1628.140 921.680, 1615.907 908.654, 1602.633 895.399 C 1589.360 882.143, 1576.943 870.495, 1575.039 869.514 C 1573.136 868.533, 1568.898 865.091, 1565.621 861.865 C 1562.345 858.639, 1559.372 856, 1559.015 856 C 1558.658 856, 1554.796 853.302, 1550.433 850.005 C 1546.070 846.707, 1541.953 844.007, 1541.283 844.005 C 1540.614 844.002, 1537.772 841.962, 1534.968 839.472 C 1532.164 836.981, 1527.424 833.563, 1524.435 831.876 C 1521.446 830.189, 1518.748 828.402, 1518.441 827.905 C 1518.134 827.407, 1517.067 827, 1516.072 827 C 1515.076 827, 1512.065 825.283, 1509.381 823.184 C 1506.696 821.085, 1502.395 818.160, 1499.822 816.684 C 1497.249 815.208, 1494.506 814, 1493.727 814 C 1492.948 814, 1491.495 813.100, 1490.500 812 C 1489.505 810.900, 1487.705 810, 1486.500 810 C 1485.295 810, 1483.495 809.100, 1482.500 808 C 1481.505 806.900, 1479.705 806, 1478.500 806 C 1477.295 806, 1475.542 805.152, 1474.604 804.115 C 1473.666 803.078, 1471.534 801.957, 1469.868 801.624 C 1468.201 801.290, 1465.689 800.114, 1464.284 799.009 C 1462.879 797.904, 1461.039 797, 1460.194 797 C 1459.349 797, 1457.869 796.287, 1456.906 795.415 C 1455.943 794.544, 1453.208 793.576, 1450.828 793.266 C 1448.447 792.955, 1445.427 791.869, 1444.115 790.851 C 1442.803 789.833, 1441.228 788.985, 1440.615 788.966 C 1440.002 788.947, 1437.700 788.063, 1435.500 787 C 1433.300 785.937, 1430.428 785.053, 1429.118 785.034 C 1427.808 785.015, 1425.333 784.138, 1423.618 783.084 C 1421.903 782.030, 1418.700 780.846, 1416.500 780.452 C 1414.300 780.059, 1411.645 779.294, 1410.600 778.753 C 1409.555 778.212, 1405.809 777.410, 1402.275 776.972 C 1398.742 776.534, 1395.067 775.466, 1394.109 774.599 C 1393.151 773.732, 1389.697 772.607, 1386.434 772.100 C 1383.170 771.593, 1378.700 770.483, 1376.500 769.633 C 1374.300 768.783, 1370.475 768.061, 1368 768.029 C 1365.525 767.997, 1361.546 767.290, 1359.158 766.459 C 1356.770 765.627, 1350.695 764.545, 1345.658 764.055 C 1340.621 763.565, 1334.039 762.452, 1331.032 761.582 C 1327.084 760.440, 1321.941 760.054, 1312.532 760.196 C 1305.364 760.304, 1296.463 760.549, 1292.750 760.742 M 1200 761.883 C 1200 762.369, 1201.013 763.038, 1202.250 763.370 C 1203.487 763.701, 1209 763.972, 1214.500 763.971 C 1220 763.970, 1225.101 763.589, 1225.835 763.123 C 1226.831 762.492, 1226.578 762.119, 1224.835 761.652 C 1223.551 761.309, 1217.438 761.021, 1211.250 761.014 C 1205.063 761.006, 1200 761.398, 1200 761.883 M 1174.736 766.598 C 1174.407 766.927, 1174.365 767.786, 1174.642 768.508 C 1175.030 769.520, 1177.593 769.714, 1185.823 769.355 C 1191.695 769.099, 1197.175 768.619, 1198 768.288 C 1199.023 767.877, 1198.546 767.455, 1196.500 766.961 C 1194.850 766.563, 1189.412 766.183, 1184.417 766.118 C 1179.421 766.053, 1175.064 766.269, 1174.736 766.598 M 1153.553 769.915 C 1153.169 770.536, 1154.007 771.432, 1155.505 772.002 C 1156.949 772.551, 1159.976 773, 1162.232 773 C 1164.488 773, 1166.069 772.736, 1165.746 772.413 C 1165.423 772.089, 1163.660 771.445, 1161.829 770.980 C 1159.998 770.515, 1157.538 769.840, 1156.363 769.480 C 1155.183 769.119, 1153.924 769.314, 1153.553 769.915 M 1226 827.642 C 1224.075 827.860, 1219.575 828.677, 1216 829.457 C 1212.425 830.236, 1204.923 831.107, 1199.330 831.390 C 1193.587 831.682, 1187.548 832.580, 1185.457 833.453 C 1183.422 834.304, 1180.370 835, 1178.676 835 C 1176.982 835, 1171.525 835.928, 1166.548 837.063 C 1161.572 838.198, 1155.025 839.802, 1152 840.627 C 1148.975 841.453, 1144.250 842.728, 1141.500 843.461 C 1138.750 844.193, 1134.827 845.515, 1132.782 846.397 C 1130.737 847.278, 1128.245 848, 1127.244 848 C 1126.242 848, 1123.658 848.900, 1121.500 850 C 1119.342 851.100, 1116.531 852, 1115.253 852 C 1113.975 852, 1111.830 852.721, 1110.485 853.602 C 1109.141 854.483, 1106.152 855.628, 1103.844 856.146 C 1101.536 856.665, 1096.492 858.644, 1092.634 860.545 C 1088.776 862.445, 1085.091 864, 1084.445 864 C 1083.799 864, 1082.173 864.863, 1080.832 865.918 C 1079.491 866.973, 1076.689 868.155, 1074.605 868.546 C 1072.521 868.937, 1068.831 870.772, 1066.405 872.624 C 1063.979 874.476, 1060.173 876.400, 1057.948 876.900 C 1055.722 877.401, 1051.824 879.427, 1049.286 881.405 C 1046.748 883.382, 1044.183 885.002, 1043.586 885.004 C 1042.989 885.006, 1040.475 886.041, 1038 887.304 C 1035.525 888.566, 1032.150 890.433, 1030.500 891.452 C 1028.850 892.471, 1024.232 895.374, 1020.239 897.903 C 1016.245 900.431, 1010.006 904.750, 1006.375 907.500 C 1002.743 910.250, 998.586 913.118, 997.136 913.873 C 995.686 914.628, 992.925 916.712, 991 918.504 C 989.075 920.297, 983.675 924.773, 979 928.452 C 974.325 932.131, 963.001 942.525, 953.836 951.550 C 944.671 960.575, 936.121 969.728, 934.836 971.890 C 933.551 974.052, 929.454 979.314, 925.732 983.584 C 922.009 987.854, 917.366 993.632, 915.412 996.424 C 913.459 999.216, 910.327 1003.750, 908.452 1006.500 C 906.577 1009.250, 903.735 1013.300, 902.136 1015.500 C 900.536 1017.700, 897.531 1022.766, 895.457 1026.758 C 893.383 1030.749, 891.082 1034.517, 890.343 1035.130 C 889.604 1035.743, 889 1037.055, 889 1038.046 C 889 1039.036, 887.941 1041.119, 886.647 1042.673 C 885.353 1044.228, 882.727 1048.650, 880.812 1052.500 C 878.897 1056.350, 877.035 1060.999, 876.674 1062.831 C 876.313 1064.663, 875.114 1067.311, 874.009 1068.716 C 872.904 1070.121, 872 1071.926, 872 1072.727 C 872 1073.529, 871.100 1075.329, 870 1076.727 C 868.900 1078.126, 867.997 1079.997, 867.993 1080.885 C 867.990 1081.773, 867.093 1083.850, 866 1085.500 C 864.907 1087.150, 864.010 1089.761, 864.007 1091.302 C 864.003 1092.843, 863.154 1095.768, 862.121 1097.802 C 861.087 1099.836, 859.475 1103.750, 858.538 1106.500 C 857.601 1109.250, 856.454 1113.604, 855.989 1116.175 C 855.524 1118.746, 854.488 1121.896, 853.687 1123.175 C 852.886 1124.454, 851.928 1127.933, 851.560 1130.906 C 851.191 1133.880, 850.271 1137.508, 849.516 1138.970 C 848.760 1140.431, 847.814 1144.523, 847.414 1148.064 C 847.014 1151.604, 846.108 1155.886, 845.401 1157.580 C 844.694 1159.275, 843.827 1165.350, 843.476 1171.080 C 843.124 1176.811, 842.163 1183.284, 841.340 1185.465 C 840.450 1187.823, 839.413 1196.332, 838.781 1206.465 C 838.196 1215.834, 837.721 1232.050, 837.726 1242.500 C 837.731 1252.950, 838.203 1269.375, 838.775 1279 C 839.419 1289.836, 840.372 1297.833, 841.277 1300 C 842.081 1301.925, 842.987 1307.564, 843.290 1312.532 C 843.594 1317.500, 844.519 1323.350, 845.347 1325.532 C 846.175 1327.714, 847.132 1332.006, 847.475 1335.068 C 847.818 1338.130, 848.790 1341.955, 849.635 1343.568 C 850.480 1345.181, 851.426 1348.975, 851.737 1352 C 852.048 1355.025, 853.134 1359.068, 854.151 1360.985 C 855.168 1362.902, 856 1365.923, 856 1367.698 C 856 1369.473, 856.900 1373.209, 858 1376 C 859.100 1378.791, 860 1381.774, 860 1382.629 C 860 1383.485, 860.900 1385.329, 862 1386.727 C 863.184 1388.232, 864 1390.784, 864 1392.980 C 864 1395.420, 864.685 1397.310, 866 1398.500 C 867.170 1399.559, 868.006 1401.595, 868.015 1403.405 C 868.023 1405.107, 868.679 1407.625, 869.472 1409 C 870.265 1410.375, 871.391 1412.625, 871.974 1414 C 872.557 1415.375, 873.927 1418.136, 875.017 1420.136 C 876.108 1422.136, 877 1424.398, 877 1425.164 C 877 1425.929, 878.834 1430.143, 881.075 1434.528 C 883.316 1438.912, 885.746 1443.175, 886.475 1444 C 887.204 1444.825, 888.516 1447.075, 889.391 1449 C 890.265 1450.925, 892.378 1454.975, 894.087 1458 C 895.795 1461.025, 897.985 1464.400, 898.953 1465.500 C 899.922 1466.600, 901.453 1468.962, 902.357 1470.750 C 903.261 1472.537, 904.742 1475.462, 905.649 1477.250 C 906.557 1479.037, 908.709 1482.300, 910.432 1484.500 C 912.156 1486.700, 914.074 1489.625, 914.696 1491 C 915.318 1492.375, 919.234 1497.325, 923.398 1502 C 927.562 1506.675, 930.976 1510.980, 930.984 1511.566 C 930.993 1512.153, 933.999 1515.978, 937.665 1520.066 C 941.331 1524.155, 944.718 1527.654, 945.190 1527.842 C 945.663 1528.030, 946.688 1529.710, 947.467 1531.576 C 948.247 1533.442, 954.423 1540.411, 961.192 1547.064 C 967.962 1553.716, 974.787 1559.836, 976.359 1560.662 C 977.932 1561.488, 982.482 1565.287, 986.471 1569.103 C 990.459 1572.918, 996.453 1578.169, 999.791 1580.770 C 1003.128 1583.372, 1007.812 1586.935, 1010.199 1588.689 C 1012.585 1590.444, 1015.673 1592.469, 1017.061 1593.189 C 1018.449 1593.910, 1021.365 1595.901, 1023.542 1597.613 C 1025.719 1599.325, 1029.075 1601.515, 1031 1602.480 C 1032.925 1603.445, 1035.400 1605.035, 1036.500 1606.014 C 1037.600 1606.993, 1042.100 1609.731, 1046.500 1612.097 C 1050.900 1614.464, 1056.525 1617.445, 1059 1618.723 C 1061.475 1620.001, 1064.175 1621.438, 1065 1621.916 C 1065.825 1622.395, 1067.625 1623.294, 1069 1623.915 C 1070.375 1624.535, 1072.996 1626.136, 1074.825 1627.472 C 1076.654 1628.808, 1080.532 1630.594, 1083.444 1631.441 C 1086.356 1632.287, 1089.302 1633.659, 1089.992 1634.490 C 1090.681 1635.320, 1091.916 1636, 1092.736 1636 C 1093.557 1636, 1095.864 1636.840, 1097.864 1637.866 C 1099.864 1638.893, 1103.574 1640.693, 1106.110 1641.866 C 1108.645 1643.040, 1111.570 1644.002, 1112.610 1644.004 C 1113.649 1644.006, 1115.850 1644.830, 1117.500 1645.836 C 1119.150 1646.842, 1122.375 1647.965, 1124.666 1648.331 C 1126.958 1648.697, 1130.108 1649.649, 1131.666 1650.446 C 1133.225 1651.242, 1136.750 1652.625, 1139.500 1653.517 C 1142.250 1654.410, 1147.650 1655.716, 1151.500 1656.419 C 1155.350 1657.122, 1159.850 1658.438, 1161.500 1659.343 C 1163.150 1660.247, 1165.625 1660.997, 1167 1661.008 C 1168.375 1661.020, 1171.370 1661.681, 1173.655 1662.477 C 1175.941 1663.273, 1180.891 1664.234, 1184.655 1664.611 C 1188.420 1664.989, 1193.300 1665.945, 1195.500 1666.737 C 1197.814 1667.569, 1204.978 1668.384, 1212.500 1668.670 C 1220.648 1668.980, 1227.366 1669.781, 1230.500 1670.817 C 1234.714 1672.209, 1240.217 1672.463, 1265.500 1672.432 C 1289.799 1672.402, 1297.020 1672.072, 1303.500 1670.697 C 1307.900 1669.764, 1314.875 1668.992, 1319 1668.983 C 1323.125 1668.973, 1329.650 1668.256, 1333.500 1667.388 C 1337.350 1666.521, 1344.558 1665.250, 1349.518 1664.565 C 1354.478 1663.880, 1359.511 1662.797, 1360.702 1662.159 C 1361.894 1661.522, 1364.142 1661, 1365.699 1661 C 1367.256 1661, 1370.162 1660.125, 1372.156 1659.056 C 1374.151 1657.987, 1378.644 1656.673, 1382.141 1656.137 C 1385.639 1655.600, 1390.750 1654.418, 1393.500 1653.511 C 1396.250 1652.604, 1400.425 1650.993, 1402.777 1649.931 C 1405.129 1648.869, 1408.156 1648, 1409.503 1648 C 1410.850 1648, 1413.425 1647.102, 1415.226 1646.004 C 1417.027 1644.906, 1419.315 1644.006, 1420.311 1644.004 C 1421.307 1644.002, 1425.946 1642.200, 1430.620 1640 C 1435.294 1637.800, 1439.712 1636, 1440.437 1636 C 1441.162 1636, 1442.296 1635.348, 1442.958 1634.551 C 1443.619 1633.754, 1445.811 1632.572, 1447.830 1631.925 C 1449.848 1631.277, 1452.175 1630.182, 1453 1629.492 C 1453.825 1628.801, 1455.625 1627.905, 1457 1627.500 C 1458.375 1627.095, 1460.175 1626.195, 1461 1625.500 C 1461.825 1624.805, 1463.625 1623.896, 1465 1623.481 C 1466.375 1623.065, 1468.573 1621.887, 1469.885 1620.862 C 1471.197 1619.838, 1472.844 1619, 1473.545 1619 C 1474.247 1619, 1477.098 1617.200, 1479.881 1615 C 1482.664 1612.800, 1485.569 1611, 1486.336 1611 C 1487.103 1611, 1488.874 1610.100, 1490.273 1609 C 1491.671 1607.900, 1493.253 1607, 1493.787 1607 C 1494.322 1607, 1497.367 1604.975, 1500.554 1602.500 C 1503.742 1600.025, 1506.851 1598, 1507.463 1598 C 1508.076 1598, 1511.555 1595.412, 1515.194 1592.250 C 1518.834 1589.088, 1523.612 1585.424, 1525.812 1584.108 C 1528.013 1582.792, 1531.543 1580.060, 1533.657 1578.035 C 1535.770 1576.010, 1540.200 1572.383, 1543.500 1569.974 C 1546.800 1567.566, 1557.223 1557.866, 1566.661 1548.419 C 1576.100 1538.972, 1584.548 1529.840, 1585.435 1528.126 C 1586.322 1526.411, 1589.054 1522.869, 1591.507 1520.254 C 1593.960 1517.639, 1596.699 1513.925, 1597.594 1512 C 1598.489 1510.075, 1599.760 1508.050, 1600.419 1507.500 C 1601.078 1506.950, 1603.728 1503.895, 1606.308 1500.711 C 1608.889 1497.527, 1611 1494.476, 1611 1493.932 C 1611 1493.387, 1612.800 1490.664, 1615 1487.881 C 1617.200 1485.098, 1619 1482.255, 1619 1481.563 C 1619 1480.872, 1619.900 1479.268, 1621 1478 C 1622.100 1476.732, 1623 1475.122, 1623 1474.424 C 1623 1473.725, 1624.182 1471.748, 1625.627 1470.031 C 1627.072 1468.314, 1629.502 1464.567, 1631.025 1461.704 C 1632.549 1458.842, 1636.031 1452, 1638.763 1446.500 C 1641.494 1441, 1644.237 1435.375, 1644.857 1434 C 1645.478 1432.625, 1646.422 1430.825, 1646.955 1430 C 1647.489 1429.175, 1649.686 1424.655, 1651.838 1419.956 C 1653.990 1415.256, 1656.076 1409.856, 1656.474 1407.956 C 1656.871 1406.055, 1657.842 1403.481, 1658.631 1402.235 C 1659.420 1400.989, 1660.467 1398.064, 1660.958 1395.735 C 1661.448 1393.406, 1662.631 1389.250, 1663.587 1386.500 C 1664.543 1383.750, 1666.152 1379.392, 1667.162 1376.815 C 1668.173 1374.238, 1669.002 1370.413, 1669.004 1368.315 C 1669.006 1366.217, 1669.906 1363.027, 1671.004 1361.226 C 1672.102 1359.425, 1673 1356.894, 1673 1355.602 C 1673 1354.309, 1673.648 1351.414, 1674.441 1349.167 C 1675.234 1346.921, 1676.357 1341.665, 1676.939 1337.487 C 1677.520 1333.309, 1678.674 1327.778, 1679.503 1325.195 C 1680.333 1322.613, 1681.424 1315.775, 1681.928 1310 C 1682.433 1304.225, 1683.325 1297.250, 1683.912 1294.500 C 1684.499 1291.750, 1685.486 1282.075, 1686.106 1273 C 1686.727 1263.925, 1687.269 1254.700, 1687.312 1252.500 C 1687.355 1250.300, 1686.869 1237.204, 1686.233 1223.397 C 1685.491 1207.288, 1684.562 1196.719, 1683.641 1193.897 C 1682.852 1191.479, 1681.905 1185.078, 1681.537 1179.674 C 1681.169 1174.270, 1679.998 1167.123, 1678.934 1163.794 C 1677.870 1160.464, 1677 1156.505, 1677 1154.995 C 1677 1153.486, 1676.358 1150.432, 1675.574 1148.209 C 1674.789 1145.986, 1673.830 1141.992, 1673.442 1139.333 C 1673.055 1136.675, 1671.896 1132.830, 1670.869 1130.790 C 1669.841 1128.749, 1669 1125.472, 1669 1123.508 C 1669 1121.543, 1668.296 1118.263, 1667.437 1116.218 C 1666.577 1114.173, 1664.581 1108.591, 1663.001 1103.813 C 1661.421 1099.035, 1659.469 1094.085, 1658.663 1092.813 C 1657.856 1091.541, 1656.875 1088.925, 1656.483 1087 C 1656.090 1085.075, 1655.222 1082.375, 1654.553 1081 C 1653.885 1079.625, 1652.073 1075.800, 1650.529 1072.500 C 1648.984 1069.200, 1647.330 1065.825, 1646.853 1065 C 1646.376 1064.175, 1645.495 1062.375, 1644.896 1061 C 1644.297 1059.625, 1642.710 1056.250, 1641.369 1053.500 C 1640.029 1050.750, 1638.200 1047.150, 1637.304 1045.500 C 1636.409 1043.850, 1635.291 1041.825, 1634.818 1041 C 1634.346 1040.175, 1633.242 1037.925, 1632.364 1036 C 1631.486 1034.075, 1629.020 1030.304, 1626.884 1027.619 C 1624.748 1024.935, 1623 1021.967, 1623 1021.024 C 1623 1020.081, 1622.100 1018.495, 1621 1017.500 C 1619.900 1016.505, 1619 1015.125, 1619 1014.435 C 1619 1013.744, 1617.253 1010.970, 1615.118 1008.269 C 1612.983 1005.568, 1610.533 1002.040, 1609.672 1000.429 C 1608.812 998.818, 1604.045 993, 1599.078 987.500 C 1594.111 982, 1590.036 976.840, 1590.023 976.033 C 1590.011 975.226, 1579.672 964.336, 1567.048 951.833 C 1554.424 939.330, 1542.660 928.359, 1540.906 927.451 C 1539.151 926.544, 1535.417 923.596, 1532.608 920.899 C 1529.799 918.203, 1526.047 915.306, 1524.272 914.462 C 1522.496 913.617, 1519.571 911.570, 1517.772 909.912 C 1515.972 908.255, 1512.475 905.580, 1510 903.969 C 1507.525 902.359, 1503.475 899.653, 1501 897.958 C 1498.525 896.262, 1494.475 893.561, 1492 891.956 C 1489.525 890.350, 1486.768 889.028, 1485.872 889.018 C 1484.977 889.008, 1483.671 888.309, 1482.970 887.464 C 1482.268 886.618, 1478.951 884.350, 1475.597 882.423 C 1472.244 880.496, 1468.825 878.535, 1468 878.066 C 1467.175 877.597, 1465.375 876.694, 1464 876.058 C 1462.625 875.422, 1460.150 874.226, 1458.500 873.399 C 1456.850 872.572, 1454.825 871.466, 1454 870.941 C 1453.175 870.415, 1451.375 869.491, 1450 868.886 C 1448.625 868.281, 1446.825 867.381, 1446 866.886 C 1445.175 866.391, 1443.375 865.477, 1442 864.855 C 1440.625 864.234, 1435.797 861.987, 1431.271 859.863 C 1426.744 857.738, 1421.968 856, 1420.655 856 C 1419.343 856, 1417.197 855.203, 1415.885 854.228 C 1414.573 853.254, 1410.125 851.387, 1406 850.080 C 1401.875 848.772, 1396.700 847.035, 1394.500 846.219 C 1392.300 845.403, 1387.800 844.160, 1384.500 843.458 C 1381.200 842.756, 1376.700 841.485, 1374.500 840.634 C 1372.300 839.784, 1369.092 839.068, 1367.372 839.044 C 1365.652 839.020, 1362.643 838.331, 1360.685 837.513 C 1358.727 836.695, 1353.835 835.732, 1349.813 835.374 C 1345.791 835.016, 1341.170 834.050, 1339.545 833.229 C 1337.609 832.252, 1331.740 831.490, 1322.545 831.025 C 1314.297 830.607, 1307.262 829.748, 1305.500 828.944 C 1303.159 827.876, 1294.482 827.539, 1266 827.411 C 1245.925 827.320, 1227.925 827.424, 1226 827.642 M 1476.738 948.096 C 1474.668 950.381, 1472.685 953.408, 1472.329 954.824 C 1471.847 956.747, 1472.160 957.663, 1473.570 958.449 C 1474.608 959.027, 1476.536 960.625, 1477.854 962 C 1479.171 963.375, 1480.756 966.075, 1481.375 968 C 1482.260 970.755, 1483.027 971.500, 1484.976 971.500 C 1486.754 971.500, 1487.660 970.795, 1488.189 969 C 1488.595 967.625, 1489.180 965.250, 1489.489 963.721 C 1489.875 961.816, 1491.145 960.422, 1493.526 959.286 C 1495.437 958.375, 1497 957.002, 1497 956.234 C 1497 955.467, 1495.269 954.159, 1493.154 953.328 C 1490.028 952.100, 1489.139 951.133, 1488.404 948.159 C 1487.599 944.901, 1487.116 944.469, 1484 944.221 C 1481.001 943.982, 1479.962 944.536, 1476.738 948.096 M 1373.023 950.977 C 1371.912 952.088, 1371.306 953.634, 1371.640 954.505 C 1371.968 955.358, 1373.120 956.529, 1374.201 957.107 C 1375.719 957.920, 1376.603 957.765, 1378.083 956.425 C 1379.137 955.471, 1380 953.876, 1380 952.880 C 1380 951.885, 1379.130 950.605, 1378.066 950.035 C 1377.002 949.466, 1375.877 949, 1375.566 949 C 1375.255 949, 1374.110 949.890, 1373.023 950.977 M 1016.585 959.250 C 1016.336 960.487, 1015.881 962.999, 1015.575 964.831 C 1015.268 966.663, 1014.114 969.311, 1013.009 970.716 C 1011.904 972.121, 1011 974.074, 1011 975.057 C 1011 976.040, 1009.110 978.462, 1006.799 980.440 C 1004.488 982.418, 1000.326 985.312, 997.549 986.870 C 994.772 988.429, 990.788 990.264, 988.695 990.948 C 986.168 991.774, 984.993 992.711, 985.195 993.738 C 985.363 994.589, 986.175 995.649, 987 996.092 C 987.825 996.536, 990.674 997.180, 993.331 997.523 C 997.615 998.076, 998.917 998.902, 1004.839 1004.823 C 1008.512 1008.496, 1012.300 1012.722, 1013.258 1014.215 C 1014.216 1015.708, 1015 1018.085, 1015 1019.497 C 1015 1020.909, 1015.652 1023.625, 1016.449 1025.532 C 1017.246 1027.439, 1018.355 1029, 1018.914 1029 C 1019.473 1029, 1020.395 1028.130, 1020.965 1027.066 C 1021.534 1026.002, 1022 1023.236, 1022 1020.919 C 1022 1017.790, 1022.877 1015.395, 1025.412 1011.604 C 1027.288 1008.797, 1029.748 1005.523, 1030.878 1004.328 C 1032.008 1003.134, 1033.960 1001.843, 1035.216 1001.460 C 1036.472 1001.077, 1038.315 1000.047, 1039.312 999.171 C 1040.308 998.295, 1043.233 997.336, 1045.812 997.039 C 1049.984 996.559, 1050.500 996.228, 1050.500 994.032 C 1050.500 992.055, 1049.783 991.359, 1046.891 990.532 C 1044.906 989.964, 1042.654 988.974, 1041.886 988.330 C 1041.117 987.687, 1039.315 986.866, 1037.881 986.506 C 1036.447 986.146, 1033.214 983.669, 1030.696 981.001 C 1028.178 978.333, 1025.191 974.335, 1024.059 972.115 C 1022.926 969.896, 1022 966.299, 1022 964.122 C 1022 961.945, 1021.727 959.452, 1021.393 958.582 C 1021.059 957.712, 1019.943 957, 1018.912 957 C 1017.770 957, 1016.861 957.878, 1016.585 959.250 M 1299.627 983.529 C 1299.282 984.428, 1299 986.057, 1299 987.148 C 1299 988.723, 1299.567 989.068, 1301.750 988.816 C 1304.069 988.550, 1304.500 988.029, 1304.500 985.500 C 1304.500 983.204, 1304.002 982.429, 1302.377 982.197 C 1301.125 982.018, 1299.997 982.565, 1299.627 983.529 M 1381.850 1000.904 C 1380.519 1001.951, 1377.645 1003.301, 1375.465 1003.905 C 1373.284 1004.509, 1369.700 1006.104, 1367.500 1007.449 C 1365.300 1008.795, 1361.700 1010.882, 1359.500 1012.086 C 1357.300 1013.291, 1352.125 1017.761, 1348 1022.020 C 1343.875 1026.279, 1337.756 1032.664, 1334.402 1036.209 C 1331.048 1039.755, 1328.022 1043.777, 1327.678 1045.147 C 1327.334 1046.518, 1325.521 1049.216, 1323.650 1051.143 C 1321.778 1053.070, 1319.906 1055.739, 1319.490 1057.073 C 1319.074 1058.408, 1316.993 1061.696, 1314.866 1064.381 C 1312.740 1067.065, 1311 1069.703, 1311 1070.242 C 1311 1070.781, 1309.200 1073.372, 1307 1076 C 1304.800 1078.628, 1303 1081.308, 1303 1081.956 C 1303 1082.604, 1300.975 1085.621, 1298.500 1088.659 C 1296.025 1091.697, 1294 1094.783, 1294 1095.515 C 1294 1096.248, 1292.471 1098.850, 1290.602 1101.298 C 1288.733 1103.746, 1286.649 1106.818, 1285.970 1108.125 C 1285.291 1109.431, 1283.285 1112.300, 1281.511 1114.500 C 1279.738 1116.700, 1277.995 1119.424, 1277.638 1120.553 C 1277.282 1121.682, 1275.432 1124.157, 1273.527 1126.053 C 1271.622 1127.949, 1270.049 1129.993, 1270.032 1130.596 C 1270.014 1131.198, 1266.850 1136.373, 1263 1142.096 C 1259.151 1147.818, 1255.257 1153.625, 1254.348 1155 C 1253.439 1156.375, 1251.348 1159.525, 1249.701 1162 C 1248.055 1164.475, 1245.198 1167.940, 1243.354 1169.699 C 1241.509 1171.458, 1240 1173.730, 1240 1174.746 C 1240 1175.762, 1238.200 1178.352, 1236 1180.500 C 1233.800 1182.648, 1232 1185.225, 1232 1186.225 C 1232 1187.226, 1230.274 1189.947, 1228.165 1192.272 C 1226.055 1194.598, 1224.044 1197.290, 1223.694 1198.254 C 1223.345 1199.219, 1220.351 1203.957, 1217.040 1208.783 C 1213.730 1213.609, 1209.216 1219.551, 1207.011 1221.988 C 1204.805 1224.426, 1202.991 1226.888, 1202.981 1227.460 C 1202.971 1228.032, 1201.638 1230.525, 1200.020 1233 C 1198.402 1235.475, 1195.823 1239.192, 1194.289 1241.259 C 1192.755 1243.327, 1188.629 1249.177, 1185.120 1254.259 C 1181.612 1259.342, 1177.674 1264.325, 1176.370 1265.333 C 1175.067 1266.342, 1174 1268.014, 1174 1269.050 C 1174 1270.086, 1171.975 1273.213, 1169.500 1276 C 1167.025 1278.787, 1165 1281.503, 1165 1282.036 C 1165 1282.570, 1161.737 1287.766, 1157.750 1293.585 C 1153.763 1299.403, 1148.407 1307.389, 1145.850 1311.332 C 1143.292 1315.274, 1140.287 1319.850, 1139.172 1321.500 C 1138.057 1323.150, 1135.874 1326.377, 1134.322 1328.672 C 1131.614 1332.676, 1131.332 1332.822, 1127.328 1332.297 C 1123.533 1331.799, 1122.713 1332.123, 1118.264 1335.875 C 1115.573 1338.144, 1112.950 1340.015, 1112.436 1340.034 C 1111.921 1340.053, 1109.700 1340.937, 1107.500 1342 C 1105.300 1343.063, 1102.150 1343.943, 1100.500 1343.956 C 1098.850 1343.970, 1095.250 1342.908, 1092.500 1341.597 C 1089.750 1340.287, 1086.150 1337.874, 1084.500 1336.235 C 1082.850 1334.596, 1080.263 1331.227, 1078.750 1328.748 C 1077.237 1326.269, 1076 1323.659, 1076 1322.949 C 1076 1322.239, 1075.213 1320.788, 1074.250 1319.724 C 1072.627 1317.932, 1072.462 1312.446, 1071.975 1244.146 C 1071.686 1203.641, 1071.348 1170.388, 1071.225 1170.250 C 1071.101 1170.112, 1068.282 1170, 1064.960 1170 C 1060.831 1170, 1058.061 1170.567, 1056.210 1171.790 C 1054.719 1172.775, 1052.600 1174.061, 1051.500 1174.649 C 1049.533 1175.700, 1049.496 1176.874, 1049.243 1245.529 C 1048.993 1313.651, 1049.035 1315.441, 1050.993 1319.486 C 1052.097 1321.766, 1053 1324.554, 1053 1325.681 C 1053 1326.808, 1053.900 1328.874, 1055 1330.273 C 1056.100 1331.671, 1057 1333.501, 1057 1334.339 C 1057 1335.178, 1059.338 1338.032, 1062.195 1340.682 C 1065.052 1343.332, 1068.387 1346.451, 1069.604 1347.614 C 1070.822 1348.776, 1073.915 1350.899, 1076.477 1352.331 C 1079.039 1353.763, 1082.792 1355.238, 1084.818 1355.609 C 1086.843 1355.980, 1089.388 1356.895, 1090.473 1357.642 C 1091.570 1358.398, 1094.981 1359, 1098.163 1359 C 1101.309 1359, 1104.130 1359.401, 1104.432 1359.890 C 1104.735 1360.380, 1103.373 1361.083, 1101.406 1361.452 C 1099.439 1361.821, 1094.287 1361.814, 1089.956 1361.436 C 1084.143 1360.929, 1081.639 1360.259, 1080.386 1358.874 C 1079.453 1357.844, 1077.522 1356.990, 1076.095 1356.978 C 1074.668 1356.966, 1072.375 1356.076, 1071 1355 C 1069.625 1353.924, 1068.002 1353.034, 1067.393 1353.022 C 1066.784 1353.010, 1063.971 1350.686, 1061.143 1347.857 C 1058.314 1345.029, 1056 1341.973, 1056 1341.067 C 1056 1340.161, 1054.243 1337.479, 1052.096 1335.106 C 1049.949 1332.734, 1047.137 1328.027, 1045.847 1324.646 C 1044.558 1321.266, 1043.114 1315.800, 1042.639 1312.500 C 1042.164 1309.200, 1041.489 1278.021, 1041.138 1243.213 C 1040.587 1188.519, 1040.296 1179.798, 1039 1178.978 C 1038.175 1178.457, 1033.935 1178.024, 1029.579 1178.015 C 1023.867 1178.004, 1021.188 1178.425, 1019.973 1179.525 C 1019.046 1180.363, 1015.411 1181.554, 1011.894 1182.171 C 1008.377 1182.788, 1004.600 1183.868, 1003.500 1184.570 C 1002.400 1185.272, 999.025 1186.331, 996 1186.923 C 992.975 1187.515, 988.071 1188.666, 985.101 1189.482 C 982.132 1190.297, 979.523 1191.143, 979.305 1191.362 C 979.086 1191.581, 978.694 1223.171, 978.433 1261.562 C 977.978 1328.726, 978.033 1331.556, 979.889 1336.432 C 980.951 1339.219, 983.069 1344.875, 984.596 1349 C 986.123 1353.125, 987.886 1357.175, 988.514 1358 C 989.141 1358.825, 990.201 1361.412, 990.868 1363.750 C 991.535 1366.088, 992.458 1368, 992.919 1368 C 993.380 1368, 996.625 1372.388, 1000.129 1377.750 C 1003.633 1383.112, 1006.725 1387.980, 1007 1388.566 C 1007.275 1389.153, 1009.188 1391.674, 1011.250 1394.169 C 1013.313 1396.665, 1015 1399.409, 1015 1400.269 C 1015 1401.129, 1016.819 1403.783, 1019.043 1406.166 C 1021.266 1408.550, 1023.351 1411.625, 1023.675 1413 C 1023.999 1414.375, 1025.503 1416.665, 1027.018 1418.090 C 1028.533 1419.514, 1030.929 1422.439, 1032.342 1424.590 C 1033.756 1426.740, 1036.725 1430.975, 1038.942 1434 C 1041.158 1437.025, 1043.714 1440.850, 1044.623 1442.500 C 1045.531 1444.150, 1047.574 1447.155, 1049.164 1449.178 C 1050.753 1451.201, 1052.536 1454.238, 1053.125 1455.928 C 1053.714 1457.618, 1054.561 1459, 1055.008 1459 C 1055.455 1459, 1057.733 1462.037, 1060.069 1465.750 C 1062.406 1469.463, 1067.472 1475.762, 1071.328 1479.750 C 1075.183 1483.737, 1080.624 1488.284, 1083.419 1489.854 C 1086.213 1491.424, 1090.869 1493.311, 1093.764 1494.047 C 1098.105 1495.151, 1100.384 1495.160, 1106.764 1494.102 C 1111.727 1493.278, 1116.472 1491.704, 1120 1489.710 C 1123.025 1488, 1129.431 1482.754, 1134.235 1478.051 C 1139.040 1473.348, 1142.977 1468.917, 1142.985 1468.203 C 1142.993 1467.490, 1145.138 1463.306, 1147.750 1458.904 C 1150.362 1454.503, 1153.422 1449.368, 1154.548 1447.493 C 1155.674 1445.619, 1158.262 1442.229, 1160.298 1439.961 C 1162.334 1437.693, 1164.002 1435.086, 1164.005 1434.168 C 1164.007 1433.251, 1165.586 1430.784, 1167.512 1428.687 C 1169.438 1426.589, 1171.704 1423.540, 1172.546 1421.911 C 1173.389 1420.281, 1176.873 1414.872, 1180.289 1409.890 C 1183.705 1404.908, 1187.190 1399.633, 1188.033 1398.166 C 1188.876 1396.700, 1191.288 1393.127, 1193.394 1390.226 C 1195.500 1387.325, 1198.036 1384.516, 1199.030 1383.984 C 1200.024 1383.452, 1201.141 1381.636, 1201.511 1379.949 C 1201.882 1378.262, 1203.697 1375.370, 1205.545 1373.521 C 1207.394 1371.673, 1209.539 1368.662, 1210.313 1366.830 C 1211.087 1364.999, 1212.847 1362.375, 1214.225 1361 C 1215.603 1359.625, 1217.747 1356.495, 1218.990 1354.045 C 1220.233 1351.595, 1223.520 1346.291, 1226.296 1342.259 C 1229.072 1338.226, 1233.024 1333.295, 1235.079 1331.300 C 1237.134 1329.306, 1239.062 1326.438, 1239.365 1324.927 C 1239.667 1323.416, 1241.449 1320.677, 1243.325 1318.840 C 1245.201 1317.003, 1247.079 1314.375, 1247.499 1313 C 1247.918 1311.625, 1250.002 1308.598, 1252.130 1306.272 C 1254.259 1303.947, 1256 1301.628, 1256 1301.119 C 1256 1300.610, 1259.198 1295.403, 1263.107 1289.547 C 1267.016 1283.692, 1271.470 1277.973, 1273.005 1276.838 C 1274.539 1275.704, 1276.068 1273.412, 1276.401 1271.746 C 1276.734 1270.080, 1278.805 1266.765, 1281.003 1264.381 C 1283.202 1261.996, 1285 1259.350, 1285 1258.500 C 1285 1257.650, 1286.800 1255.003, 1289 1252.616 C 1291.200 1250.229, 1293 1247.529, 1293 1246.616 C 1293 1245.703, 1294.741 1243.053, 1296.870 1240.728 C 1298.998 1238.402, 1301.082 1235.375, 1301.500 1234 C 1301.918 1232.625, 1304.002 1229.598, 1306.130 1227.272 C 1308.259 1224.947, 1310 1222.204, 1310 1221.176 C 1310 1220.148, 1311.548 1217.713, 1313.440 1215.765 C 1315.332 1213.816, 1317.573 1210.710, 1318.420 1208.861 C 1319.267 1207.013, 1322.501 1201.900, 1325.607 1197.500 C 1328.713 1193.100, 1333.582 1186.125, 1336.427 1182 C 1339.272 1177.875, 1343.072 1171.912, 1344.873 1168.750 C 1346.674 1165.588, 1348.533 1163, 1349.006 1163 C 1349.479 1163, 1350.143 1162.126, 1350.482 1161.057 C 1350.821 1159.988, 1353.102 1156.534, 1355.549 1153.382 C 1357.997 1150.230, 1360 1147.055, 1360 1146.328 C 1360 1145.601, 1361.516 1143.317, 1363.368 1141.253 C 1365.220 1139.189, 1367.714 1135.568, 1368.910 1133.206 C 1370.107 1130.845, 1372.191 1127.951, 1373.543 1126.776 C 1374.894 1125.601, 1376 1123.994, 1376 1123.206 C 1376 1122.417, 1377.013 1119.911, 1378.250 1117.636 C 1379.487 1115.361, 1381.702 1111.794, 1383.171 1109.709 C 1384.640 1107.624, 1388.135 1104.092, 1390.936 1101.862 C 1394.237 1099.234, 1397.411 1097.620, 1399.952 1097.280 C 1402.108 1096.990, 1406.380 1097.067, 1409.444 1097.450 C 1414.524 1098.084, 1415.508 1098.647, 1420.608 1103.823 C 1424.068 1107.336, 1427.297 1111.916, 1429.077 1115.838 L 1431.954 1122.175 1432.142 1246.838 L 1432.331 1371.500 1430.165 1376.377 C 1428.974 1379.060, 1428 1382.343, 1428 1383.674 C 1428 1385.004, 1425.975 1389.603, 1423.501 1393.894 C 1420.999 1398.231, 1416.448 1404.129, 1413.251 1407.178 C 1410.088 1410.194, 1405.700 1413.804, 1403.500 1415.201 C 1401.300 1416.598, 1398.673 1418.665, 1397.662 1419.796 C 1396.652 1420.926, 1395.981 1422.672, 1396.171 1423.676 C 1396.433 1425.056, 1397.611 1425.580, 1401.009 1425.830 C 1404.242 1426.067, 1406.760 1425.507, 1410 1423.830 C 1412.475 1422.548, 1416.765 1419.700, 1419.534 1417.500 C 1422.302 1415.300, 1426.915 1410.908, 1429.784 1407.739 C 1432.653 1404.571, 1435 1401.153, 1435 1400.144 C 1435 1399.135, 1435.900 1397.495, 1437 1396.500 C 1438.345 1395.282, 1439 1393.420, 1439 1390.810 C 1439 1388.676, 1439.732 1385.812, 1440.628 1384.445 C 1441.531 1383.067, 1442.632 1378.297, 1443.102 1373.731 C 1443.568 1369.204, 1443.972 1312.175, 1444.001 1247 C 1444.030 1181.825, 1443.656 1124.573, 1443.169 1119.774 C 1442.682 1114.974, 1441.813 1110.474, 1441.237 1109.774 C 1440.662 1109.073, 1438.758 1105.883, 1437.007 1102.684 C 1435.256 1099.485, 1431.338 1094.423, 1428.302 1091.434 C 1425.265 1088.445, 1422.113 1086, 1421.298 1086 C 1420.482 1086, 1418.786 1085.190, 1417.528 1084.201 C 1415.649 1082.723, 1413.568 1082.435, 1405.871 1082.588 C 1397.745 1082.750, 1395.873 1083.131, 1391.779 1085.457 C 1389.182 1086.932, 1382.994 1092.186, 1378.029 1097.133 C 1371.712 1103.426, 1369 1106.842, 1369 1108.505 C 1369 1109.812, 1368.544 1111.164, 1367.986 1111.509 C 1367.428 1111.854, 1366.075 1113.893, 1364.980 1116.040 C 1363.884 1118.187, 1361.708 1121.419, 1360.144 1123.222 C 1358.580 1125.025, 1357.018 1127.665, 1356.672 1129.089 C 1356.326 1130.512, 1354.481 1133.205, 1352.571 1135.071 C 1350.662 1136.938, 1348.823 1139.598, 1348.484 1140.983 C 1348.145 1142.367, 1346.153 1145.300, 1344.058 1147.500 C 1341.963 1149.700, 1339.972 1152.685, 1339.634 1154.133 C 1339.297 1155.582, 1337.701 1158.179, 1336.089 1159.905 C 1334.477 1161.630, 1332.171 1165.081, 1330.965 1167.573 C 1329.758 1170.065, 1327.726 1172.788, 1326.449 1173.625 C 1325.172 1174.462, 1323.855 1176.383, 1323.523 1177.894 C 1323.191 1179.405, 1321.412 1182.193, 1319.570 1184.090 C 1317.727 1185.987, 1315.497 1189.106, 1314.614 1191.020 C 1313.731 1192.934, 1310.288 1198.325, 1306.963 1203 C 1303.638 1207.675, 1299.751 1213.300, 1298.324 1215.500 C 1296.898 1217.700, 1292.907 1223.775, 1289.456 1229 C 1286.005 1234.225, 1282.016 1239.591, 1280.591 1240.924 C 1279.166 1242.258, 1278 1244.116, 1278 1245.054 C 1278 1245.992, 1276.211 1248.602, 1274.025 1250.854 C 1271.839 1253.107, 1269.777 1256.039, 1269.444 1257.369 C 1269.110 1258.699, 1267.354 1261.406, 1265.543 1263.384 C 1263.731 1265.362, 1260.997 1269.454, 1259.467 1272.477 C 1257.938 1275.500, 1255.857 1278.725, 1254.843 1279.642 C 1253.829 1280.559, 1253 1281.774, 1253 1282.341 C 1253 1282.907, 1251.296 1285.425, 1249.213 1287.936 C 1247.131 1290.446, 1244.006 1294.750, 1242.269 1297.500 C 1240.533 1300.250, 1237.512 1304.051, 1235.556 1305.946 C 1233.600 1307.842, 1232 1310.214, 1232 1311.219 C 1232 1312.223, 1230.233 1314.961, 1228.074 1317.304 C 1225.914 1319.647, 1223.847 1322.761, 1223.480 1324.225 C 1223.112 1325.689, 1221.341 1328.402, 1219.543 1330.252 C 1217.746 1332.103, 1215.499 1335.253, 1214.550 1337.253 C 1213.602 1339.252, 1210.826 1343.051, 1208.382 1345.694 C 1205.938 1348.337, 1203.275 1352.023, 1202.464 1353.885 C 1201.653 1355.746, 1199.417 1359.010, 1197.495 1361.137 C 1195.573 1363.265, 1194 1365.444, 1194 1365.979 C 1194 1366.514, 1191.212 1370.900, 1187.804 1375.726 C 1184.396 1380.552, 1179.671 1386.618, 1177.304 1389.207 C 1174.937 1391.796, 1173 1394.408, 1173 1395.011 C 1173 1395.613, 1170.506 1399.233, 1167.457 1403.053 C 1164.409 1406.874, 1161.526 1410, 1161.051 1410 C 1160.576 1410, 1160.436 1409.049, 1160.740 1407.887 C 1161.044 1406.725, 1162.731 1404.335, 1164.490 1402.576 C 1166.249 1400.818, 1167.986 1398.193, 1168.349 1396.744 C 1168.713 1395.295, 1170.808 1392.032, 1173.005 1389.494 C 1175.202 1386.955, 1177 1384.253, 1177 1383.489 C 1177 1382.725, 1178.273 1380.165, 1179.829 1377.800 C 1181.385 1375.435, 1183.523 1372.076, 1184.579 1370.336 C 1185.636 1368.596, 1188.934 1363.736, 1191.910 1359.536 C 1194.885 1355.336, 1198.068 1351.499, 1198.984 1351.009 C 1199.899 1350.519, 1201.172 1348.368, 1201.813 1346.230 C 1202.454 1344.091, 1204.558 1340.904, 1206.489 1339.146 C 1208.420 1337.389, 1210 1335.204, 1210 1334.290 C 1210 1333.376, 1211.699 1330.575, 1213.777 1328.064 C 1215.854 1325.554, 1218.048 1322.363, 1218.654 1320.973 C 1219.259 1319.583, 1220.962 1317.010, 1222.440 1315.254 C 1223.917 1313.499, 1226.248 1309.951, 1227.620 1307.370 C 1228.993 1304.789, 1230.996 1301.512, 1232.071 1300.088 C 1233.147 1298.665, 1235.957 1295.025, 1238.315 1292 C 1240.673 1288.975, 1242.898 1285.725, 1243.260 1284.778 C 1243.621 1283.830, 1246.101 1279.780, 1248.772 1275.778 C 1251.443 1271.775, 1254.274 1267.544, 1255.064 1266.376 C 1255.854 1265.208, 1258.474 1261.383, 1260.886 1257.876 C 1263.298 1254.369, 1266.737 1249.925, 1268.527 1248 C 1270.318 1246.075, 1272.115 1243.375, 1272.522 1242 C 1272.928 1240.625, 1275.002 1237.598, 1277.130 1235.272 C 1279.259 1232.947, 1281 1230.361, 1281 1229.525 C 1281 1228.690, 1282.587 1226.249, 1284.526 1224.103 C 1286.465 1221.956, 1289.200 1218.042, 1290.602 1215.404 C 1292.005 1212.766, 1294.131 1209.408, 1295.326 1207.943 C 1296.522 1206.477, 1298.850 1203.111, 1300.500 1200.462 C 1302.150 1197.814, 1304.240 1194.260, 1305.144 1192.565 C 1306.049 1190.869, 1308.411 1187.711, 1310.394 1185.546 C 1312.377 1183.381, 1314 1180.885, 1314 1180 C 1314 1179.115, 1315.607 1176.636, 1317.572 1174.491 C 1319.536 1172.346, 1321.730 1169.188, 1322.447 1167.473 C 1323.163 1165.758, 1325.103 1162.812, 1326.758 1160.927 C 1328.412 1159.042, 1330.446 1155.925, 1331.278 1154 C 1332.110 1152.075, 1334.188 1149.010, 1335.896 1147.188 C 1337.603 1145.367, 1339 1143.435, 1339 1142.896 C 1339 1142.356, 1340.731 1139.571, 1342.848 1136.706 C 1344.964 1133.841, 1347.465 1130.859, 1348.406 1130.078 C 1349.346 1129.298, 1350.781 1127.048, 1351.595 1125.080 C 1352.409 1123.111, 1354.633 1120.060, 1356.538 1118.301 C 1358.712 1116.292, 1360 1114.171, 1360 1112.601 C 1360 1111.225, 1360.585 1109.740, 1361.300 1109.300 C 1362.015 1108.860, 1363.887 1106.250, 1365.460 1103.500 C 1367.033 1100.750, 1372.106 1094.612, 1376.733 1089.860 C 1382.565 1083.872, 1386.101 1081.030, 1388.257 1080.599 C 1389.969 1080.256, 1392.169 1079.252, 1393.147 1078.367 C 1394.495 1077.147, 1397.098 1076.747, 1403.889 1076.715 C 1410.233 1076.685, 1413.531 1077.113, 1415.176 1078.178 C 1416.454 1079.006, 1418.708 1079.981, 1420.185 1080.344 C 1421.661 1080.708, 1424.530 1082.017, 1426.560 1083.253 C 1428.590 1084.489, 1432.557 1087.599, 1435.376 1090.164 C 1438.461 1092.972, 1441.992 1097.645, 1444.248 1101.906 C 1447.497 1108.042, 1448.145 1110.419, 1449.111 1119.743 C 1449.837 1126.745, 1450.349 1170.466, 1450.580 1245 C 1450.796 1314.957, 1450.567 1360.667, 1449.991 1362.500 C 1449.473 1364.150, 1448.800 1368.617, 1448.496 1372.428 C 1448.151 1376.757, 1447.204 1380.552, 1445.972 1382.546 C 1444.887 1384.300, 1443.998 1386.583, 1443.995 1387.618 C 1443.993 1388.653, 1442.969 1392.009, 1441.719 1395.076 C 1440.470 1398.142, 1437.547 1403.039, 1435.224 1405.956 C 1432.901 1408.874, 1431 1411.824, 1431 1412.513 C 1431 1413.201, 1427.978 1416.742, 1424.284 1420.382 C 1420.590 1424.022, 1416.969 1427, 1416.238 1427 C 1415.507 1427, 1413.722 1428.187, 1412.272 1429.637 C 1410.822 1431.087, 1407.752 1433.107, 1405.450 1434.125 C 1403.148 1435.144, 1400.702 1436.655, 1400.014 1437.483 C 1399.214 1438.447, 1399.056 1439.802, 1399.574 1441.245 C 1400.019 1442.485, 1400.635 1456.005, 1400.942 1471.288 C 1401.408 1494.477, 1401.748 1499.233, 1403 1500.023 C 1403.825 1500.543, 1407.555 1500.976, 1411.290 1500.985 C 1416.130 1500.996, 1419.205 1500.426, 1422 1499 C 1424.156 1497.900, 1427.226 1497, 1428.823 1497 C 1430.545 1497, 1433.267 1495.774, 1435.519 1493.985 C 1437.606 1492.326, 1440.931 1489.974, 1442.907 1488.758 C 1444.883 1487.541, 1447.842 1485.411, 1449.481 1484.023 C 1451.121 1482.635, 1455.559 1478.575, 1459.343 1475 C 1463.127 1471.425, 1469.925 1463.550, 1474.449 1457.500 C 1479.808 1450.333, 1485.170 1441.472, 1489.837 1432.068 C 1494.333 1423.010, 1497 1416.414, 1497 1414.355 C 1497 1412.550, 1497.836 1408.920, 1498.857 1406.287 C 1499.879 1403.654, 1501.001 1398.649, 1501.351 1395.165 C 1501.701 1391.680, 1502.765 1387.191, 1503.715 1385.188 C 1505.327 1381.791, 1505.445 1371.796, 1505.471 1236.024 L 1505.500 1090.500 1503.250 1084.120 C 1502.013 1080.611, 1500.998 1076.786, 1500.996 1075.620 C 1500.994 1074.454, 1500.150 1072.119, 1499.121 1070.431 C 1498.092 1068.743, 1496.912 1066.268, 1496.500 1064.931 C 1496.087 1063.594, 1494.231 1059.888, 1492.375 1056.696 C 1490.519 1053.504, 1489 1050.220, 1489 1049.399 C 1489 1048.577, 1487.956 1046.913, 1486.680 1045.702 C 1485.404 1044.491, 1482.479 1040.984, 1480.180 1037.909 C 1477.881 1034.834, 1476 1031.885, 1476 1031.355 C 1476 1030.826, 1474.516 1028.954, 1472.702 1027.196 C 1470.889 1025.438, 1469.026 1024, 1468.564 1024 C 1468.101 1024, 1464.576 1021.413, 1460.730 1018.250 C 1456.884 1015.087, 1452.334 1011.738, 1450.619 1010.807 C 1448.903 1009.875, 1445.033 1007.941, 1442.017 1006.509 C 1439.002 1005.076, 1434.698 1003.493, 1432.454 1002.990 C 1430.210 1002.487, 1427.052 1001.386, 1425.437 1000.544 C 1423.100 999.325, 1418.597 999.011, 1403.385 999.006 C 1386.101 999.001, 1384.038 999.182, 1381.850 1000.904 M 1286.958 1005.078 C 1286.346 1006.221, 1286.092 1007.796, 1286.392 1008.578 C 1286.692 1009.360, 1287.761 1010, 1288.769 1010 C 1289.776 1010, 1291.140 1009.460, 1291.800 1008.800 C 1292.460 1008.140, 1293 1006.565, 1293 1005.300 C 1293 1003.522, 1292.440 1003, 1290.535 1003 C 1289.063 1003, 1287.622 1003.837, 1286.958 1005.078 M 1109.618 1058.290 C 1108.329 1059.232, 1107.941 1060.646, 1108.177 1063.540 C 1108.488 1067.353, 1108.644 1067.512, 1112.382 1067.818 C 1114.517 1067.993, 1116.723 1067.677, 1117.285 1067.115 C 1117.847 1066.553, 1118.265 1064.623, 1118.214 1062.827 C 1118.161 1060.957, 1117.373 1059.015, 1116.370 1058.281 C 1115.406 1057.576, 1113.890 1057, 1113 1057 C 1112.110 1057, 1110.588 1057.580, 1109.618 1058.290 M 1132.357 1138.513 C 1132.037 1139.345, 1132.332 1140.695, 1133.011 1141.513 C 1133.689 1142.331, 1134.849 1143, 1135.587 1143 C 1136.326 1143, 1137.335 1142.213, 1137.830 1141.250 C 1138.325 1140.287, 1138.528 1138.938, 1138.282 1138.250 C 1138.035 1137.563, 1136.732 1137, 1135.385 1137 C 1134.039 1137, 1132.676 1137.681, 1132.357 1138.513 M 1111.852 1177.426 C 1111.244 1178.761, 1111.035 1181.004, 1111.388 1182.411 C 1111.798 1184.042, 1112.958 1185.202, 1114.589 1185.612 C 1115.996 1185.965, 1118.239 1185.756, 1119.574 1185.148 C 1121.232 1184.393, 1122 1183.224, 1122 1181.456 C 1122 1180.033, 1121.534 1177.998, 1120.965 1176.934 C 1120.245 1175.590, 1118.867 1175, 1116.443 1175 C 1113.723 1175, 1112.714 1175.533, 1111.852 1177.426 M 1128.815 1191.200 C 1126.683 1193.510, 1124.687 1196.397, 1124.382 1197.615 C 1124.076 1198.834, 1124.590 1201.441, 1125.524 1203.409 C 1126.458 1205.377, 1128.763 1208.341, 1130.646 1209.994 C 1133.384 1212.398, 1134.986 1213, 1138.641 1213 C 1142.225 1213, 1144.041 1212.344, 1147.051 1209.960 C 1150.112 1207.535, 1151.023 1206.032, 1151.547 1202.535 C 1151.929 1199.990, 1151.712 1196.656, 1151.030 1194.591 C 1150.384 1192.633, 1148.702 1190.124, 1147.293 1189.016 C 1145.368 1187.502, 1143.232 1187, 1138.712 1187 C 1132.924 1187, 1132.544 1187.161, 1128.815 1191.200 M 1643 1226 C 1641.900 1227.100, 1641 1229.035, 1641 1230.300 C 1641 1231.565, 1641.540 1233.140, 1642.200 1233.800 C 1642.860 1234.460, 1644.570 1235, 1646 1235 C 1647.430 1235, 1649.140 1234.460, 1649.800 1233.800 C 1650.460 1233.140, 1651 1231.205, 1651 1229.500 C 1651 1227.795, 1650.460 1225.860, 1649.800 1225.200 C 1649.140 1224.540, 1647.790 1224, 1646.800 1224 C 1645.810 1224, 1644.100 1224.900, 1643 1226 M 1376.223 1274.557 C 1374.653 1275.656, 1374 1277.131, 1374 1279.578 C 1374 1282.303, 1374.534 1283.286, 1376.500 1284.182 C 1378.370 1285.034, 1379.630 1285.034, 1381.500 1284.182 C 1383.532 1283.256, 1384 1282.327, 1384 1279.221 C 1384 1277.120, 1383.460 1274.860, 1382.800 1274.200 C 1382.140 1273.540, 1380.890 1273, 1380.023 1273 C 1379.155 1273, 1377.445 1273.701, 1376.223 1274.557 M 1309 1328.627 C 1304.178 1331.168, 1298.228 1335.341, 1295.250 1338.269 C 1292.362 1341.109, 1290 1344.087, 1290 1344.887 C 1290 1345.688, 1289.398 1347.053, 1288.662 1347.921 C 1287.926 1348.790, 1286.126 1352.946, 1284.662 1357.157 C 1283.198 1361.369, 1282 1366.535, 1282 1368.638 C 1282 1370.741, 1282.949 1374.945, 1284.109 1377.981 C 1285.269 1381.016, 1287.363 1385.975, 1288.762 1389 C 1290.168 1392.038, 1294.259 1397.633, 1297.903 1401.500 C 1301.695 1405.524, 1305.776 1408.865, 1307.500 1409.358 C 1309.150 1409.830, 1312.300 1410.888, 1314.500 1411.709 C 1316.746 1412.547, 1323.156 1413.378, 1329.115 1413.602 C 1338.164 1413.942, 1340.081 1413.737, 1342.115 1412.211 C 1343.427 1411.226, 1345.707 1409.899, 1347.182 1409.263 C 1348.657 1408.626, 1351.101 1407.069, 1352.611 1405.802 C 1354.122 1404.536, 1356.965 1402.085, 1358.929 1400.356 C 1360.893 1398.627, 1364.638 1393.616, 1367.250 1389.221 L 1372 1381.229 1372 1369.461 C 1372 1358.367, 1371.822 1357.316, 1368.884 1351.097 C 1366.600 1346.260, 1363.548 1342.299, 1357.446 1336.250 C 1351.566 1330.421, 1348.404 1328, 1346.671 1328 C 1345.322 1328, 1342.257 1327.110, 1339.859 1326.022 C 1336.511 1324.503, 1333.412 1324.056, 1326.500 1324.095 C 1317.814 1324.144, 1317.204 1324.302, 1309 1328.627 M 1256.201 1473.766 C 1255.528 1473.991, 1254.533 1475.004, 1253.991 1476.018 C 1253.267 1477.370, 1253.422 1478.279, 1254.573 1479.431 C 1255.437 1480.294, 1257.181 1481, 1258.449 1481 C 1259.717 1481, 1261.297 1480.347, 1261.960 1479.548 C 1262.623 1478.749, 1262.889 1477.224, 1262.550 1476.158 C 1262.212 1475.093, 1260.920 1474.027, 1259.680 1473.790 C 1258.439 1473.553, 1256.874 1473.542, 1256.201 1473.766 M 867.694 1524.801 C 868.019 1525.735, 869.347 1527.531, 870.643 1528.790 C 871.939 1530.050, 873 1531.884, 873 1532.866 C 873 1533.848, 874.154 1535.736, 875.565 1537.061 L 878.129 1539.470 877.023 1536.561 C 876.415 1534.960, 874.526 1531.505, 872.827 1528.882 C 871.127 1526.259, 869.144 1523.885, 868.419 1523.607 C 867.532 1523.267, 867.295 1523.657, 867.694 1524.801 M 1375.750 1524.080 C 1374.787 1524.641, 1374 1526.124, 1374 1527.375 C 1374 1528.627, 1375.013 1530.563, 1376.250 1531.677 C 1377.487 1532.791, 1379.049 1534.013, 1379.721 1534.392 C 1380.392 1534.771, 1382.250 1534.405, 1383.849 1533.578 C 1385.449 1532.751, 1387.037 1531.346, 1387.379 1530.455 C 1387.720 1529.565, 1388 1527.989, 1388 1526.953 C 1388 1525.918, 1387.130 1524.605, 1386.066 1524.035 C 1385.002 1523.466, 1382.639 1523.014, 1380.816 1523.030 C 1378.992 1523.047, 1376.713 1523.519, 1375.750 1524.080 M 1155.223 1536.557 C 1153.930 1537.462, 1153 1539.163, 1153 1540.622 C 1153 1542.002, 1153.455 1543.983, 1154.012 1545.023 C 1154.569 1546.063, 1156.596 1547.209, 1158.517 1547.569 C 1160.964 1548.028, 1162.755 1547.735, 1164.504 1546.589 C 1166.360 1545.373, 1167 1544.077, 1167 1541.534 C 1167 1539.133, 1166.338 1537.649, 1164.777 1536.557 C 1163.555 1535.701, 1161.405 1535, 1160 1535 C 1158.595 1535, 1156.445 1535.701, 1155.223 1536.557 M 1425.284 1576.369 C 1422.966 1577.589, 1419.874 1579.692, 1418.414 1581.043 C 1416.954 1582.394, 1414.970 1585.318, 1414.005 1587.540 C 1413.040 1589.762, 1411.930 1593.044, 1411.536 1594.835 C 1410.916 1597.660, 1411.452 1599.021, 1415.599 1605.147 C 1418.227 1609.028, 1421.305 1612.559, 1422.439 1612.993 C 1423.572 1613.426, 1428.240 1613.615, 1432.811 1613.413 L 1441.121 1613.044 1446.061 1607.838 C 1450.862 1602.777, 1451 1602.463, 1451 1596.580 C 1451 1591.968, 1450.348 1589.241, 1448.260 1585.113 C 1446.161 1580.964, 1444.699 1579.381, 1442.010 1578.345 C 1440.079 1577.601, 1437.226 1576.319, 1435.669 1575.496 C 1434.112 1574.673, 1432.087 1574.034, 1431.169 1574.076 C 1430.251 1574.118, 1427.603 1575.150, 1425.284 1576.369 M 912.948 1582.250 C 914.779 1584.037, 916.941 1586.513, 917.753 1587.750 C 918.565 1588.987, 919.628 1590, 920.115 1590 C 920.602 1590, 921 1589.505, 921 1588.901 C 921 1588.296, 918.903 1585.821, 916.341 1583.401 C 913.778 1580.980, 911.218 1579, 910.651 1579 C 910.084 1579, 911.118 1580.463, 912.948 1582.250" stroke="none" fill="#0a1237" fill-rule="evenodd"/></svg>