<?xml version="1.0" standalone="no"?>
<!DOCTYPE svg PUBLIC "-//W3C//DTD SVG 20010904//EN"
 "http://www.w3.org/TR/2001/REC-SVG-20010904/DTD/svg10.dtd">
<svg version="1.0" xmlns="http://www.w3.org/2000/svg"
 width="500.000000pt" height="500.000000pt" viewBox="0 0 500.000000 500.000000"
 preserveAspectRatio="xMidYMid meet">

<g transform="translate(0.000000,500.000000) scale(0.100000,-0.100000)"
fill="#000000" stroke="none">
<path d="M2300 4929 c-132 -14 -222 -31 -335 -62 -60 -16 -132 -35 -160 -42
-173 -45 -316 -111 -483 -224 -79 -53 -171 -113 -205 -134 -65 -41 -164 -125
-256 -217 -74 -74 -181 -200 -191 -225 -4 -11 -18 -31 -30 -45 -52 -59 -202
-294 -258 -405 -34 -68 -77 -187 -103 -290 -105 -399 -113 -464 -106 -833 5
-303 26 -436 110 -697 35 -112 256 -559 313 -633 208 -275 421 -482 654 -638
178 -119 296 -177 515 -249 269 -89 480 -126 728 -126 175 0 348 14 401 31 16
6 39 10 51 10 82 0 459 141 629 236 307 171 589 410 783 665 48 64 187 325
284 534 80 172 144 398 175 615 29 204 19 584 -23 810 -83 459 -389 999 -739
1305 -351 306 -713 493 -1123 579 -185 39 -458 54 -631 35z m395 -94 c587 -83
1030 -299 1420 -690 185 -185 306 -365 436 -646 148 -320 209 -601 209 -959 0
-398 -86 -743 -286 -1141 -142 -286 -223 -391 -454 -598 -303 -270 -614 -445
-957 -541 -209 -58 -309 -71 -547 -70 -197 0 -249 7 -546 76 -201 46 -468 161
-650 279 -78 51 -210 152 -210 161 0 3 12 -4 26 -15 15 -12 31 -21 37 -21 20
0 -18 32 -82 70 -80 47 -324 291 -424 425 -105 140 -331 619 -314 668 2 6 15
-25 30 -69 15 -43 41 -110 58 -149 18 -38 49 -110 71 -158 63 -143 195 -342
267 -403 43 -36 48 -26 12 23 -28 38 -71 116 -71 128 0 3 4 5 10 5 5 0 18 -19
28 -43 28 -63 131 -185 287 -342 126 -126 154 -148 280 -225 260 -157 478
-254 650 -290 233 -49 329 -62 505 -67 294 -8 505 31 795 150 281 115 468 230
693 425 40 35 76 61 81 58 4 -3 17 4 27 17 l19 22 -22 -19 c-40 -33 -25 -2 18
39 92 89 208 253 283 399 74 145 147 305 181 399 30 85 125 397 139 458 21 93
46 317 46 407 0 200 -25 358 -101 632 -42 153 -182 440 -307 630 -140 212
-431 479 -696 640 -174 105 -461 230 -528 230 -45 0 -5 -25 102 -64 128 -47
256 -103 340 -149 74 -41 265 -166 315 -206 80 -65 270 -248 342 -330 197
-225 401 -644 459 -941 56 -292 58 -579 4 -820 -44 -194 -74 -290 -90 -287 -9
1 -16 -7 -18 -23 -6 -47 -69 -213 -142 -375 -5 -11 -14 -38 -21 -60 -10 -35
-34 -80 -98 -186 -9 -14 -56 -82 -106 -150 -106 -146 -231 -276 -320 -333 -16
-11 -55 -41 -85 -67 -122 -105 -328 -227 -510 -302 -233 -96 -440 -141 -700
-153 -253 -11 -408 12 -676 97 -156 49 -587 259 -570 277 3 2 36 -13 73 -33
206 -115 418 -202 593 -245 52 -12 109 -28 125 -35 48 -20 80 -25 238 -34 168
-10 395 1 522 24 100 19 313 87 434 139 125 53 383 213 476 294 29 26 35 36
25 42 -10 6 -6 10 16 15 41 9 89 34 114 60 l21 22 -118 -3 c-65 -3 -160 -6
-210 -8 -53 -2 -93 1 -93 6 0 5 -9 6 -20 3 -14 -4 -20 -2 -20 8 0 9 -10 15
-25 15 -14 0 -25 -4 -25 -9 0 -5 -6 -9 -14 -9 -8 0 -21 -9 -29 -20 l-14 -21
-35 21 c-35 20 -68 19 -68 -3 0 -6 -13 3 -29 21 -33 35 -49 40 -57 17 -4 -8
-12 -15 -19 -15 -8 0 -22 -11 -33 -25 -15 -19 -25 -23 -48 -18 -60 11 -79 8
-101 -17 -24 -26 -31 -60 -13 -60 6 0 10 -7 10 -15 0 -20 -62 -36 -73 -19 -4
7 -32 20 -63 29 -30 9 -90 31 -132 50 -42 18 -89 37 -105 40 -15 4 -32 16 -38
26 -8 15 -14 17 -29 9 -25 -13 -30 -13 -30 5 0 8 -4 15 -10 15 -5 0 -10 7 -10
15 0 17 -16 20 -25 5 -4 -7 -13 -6 -26 1 -30 16 -50 -5 -42 -44 4 -26 3 -30
-7 -20 -8 8 -20 9 -36 3 -14 -6 -26 -6 -29 0 -4 6 3 10 14 10 21 0 37 15 23
24 -4 2 -55 12 -113 20 -82 12 -123 14 -184 6 -43 -5 -81 -8 -83 -5 -3 3 2 13
11 23 21 23 21 36 2 52 -12 10 -15 10 -15 -3 0 -8 -9 -17 -20 -20 -11 -3 -22
-12 -25 -21 -3 -9 -7 -23 -10 -32 -8 -26 -54 15 -55 49 0 20 -5 27 -19 27 -14
0 -19 7 -17 25 1 28 26 34 46 10 15 -18 53 -19 103 -1 l39 13 -51 6 c-29 3
-65 15 -80 27 -18 12 -45 20 -69 20 -23 0 -51 4 -64 9 -13 4 -63 11 -113 15
l-90 6 55 -21 c68 -27 67 -26 47 -46 -9 -10 -17 -12 -17 -6 0 17 -48 22 -55 5
-3 -8 -13 -12 -25 -9 -12 3 -20 0 -20 -8 0 -9 -10 -8 -37 5 -51 24 -114 35
-111 19 3 -14 -59 -35 -136 -44 -57 -7 -73 2 -34 20 12 6 24 16 26 23 3 11 -1
11 -24 -1 -56 -28 -183 -68 -206 -65 -21 3 -19 6 17 26 34 19 36 21 11 16 -28
-7 -28 -7 -12 18 15 23 15 25 -1 23 -10 -1 -33 -9 -52 -19 -21 -11 -48 -16
-72 -14 -32 3 -39 0 -39 -14 0 -10 6 -18 14 -18 7 0 16 -9 19 -19 4 -18 13
-19 148 -14 79 2 169 11 199 18 30 7 100 16 154 20 89 7 98 6 93 -8 -4 -10 1
-22 11 -29 9 -7 17 -22 17 -33 -1 -11 4 -24 10 -28 6 -4 2 -7 -9 -5 -18 3 -29
-9 -40 -44 -3 -10 -13 -18 -21 -18 -12 0 -15 6 -10 21 5 16 0 28 -20 45 -16
13 -31 24 -34 24 -16 -1 -28 -18 -34 -48 -5 -25 -2 -36 13 -49 13 -11 18 -24
14 -39 -5 -19 -2 -23 18 -21 12 0 26 6 31 12 4 6 10 5 16 -4 7 -11 11 -10 20
5 11 21 15 15 5 -10 -3 -9 -12 -16 -19 -16 -7 0 -15 -8 -18 -19 -6 -26 -55
-34 -62 -10 -4 11 -13 19 -21 19 -17 0 -18 -9 -4 -45 8 -22 15 -26 35 -23 13
3 26 1 27 -4 2 -5 13 -10 25 -11 12 0 24 -9 27 -19 4 -17 -3 -18 -104 -14
l-109 5 -68 57 c-37 32 -69 64 -71 71 -2 7 -9 13 -15 13 -7 0 -54 36 -104 80
-91 79 -161 162 -211 249 -14 26 -62 102 -107 171 -45 69 -127 217 -183 330
-196 395 -239 605 -219 1061 4 96 7 200 7 231 -1 64 22 144 67 233 17 33 47
103 68 155 21 52 63 140 95 195 49 86 106 197 118 230 2 6 -6 -1 -18 -15 -21
-24 -65 -96 -130 -215 -18 -33 -48 -82 -66 -108 -39 -56 -129 -327 -150 -451
-34 -201 -37 -248 -26 -477 10 -212 12 -230 46 -344 20 -66 39 -151 42 -190 4
-38 12 -77 19 -85 6 -8 20 -37 30 -65 55 -153 218 -470 259 -504 17 -14 48
-72 42 -78 -2 -2 -29 31 -60 74 -59 80 -194 342 -241 467 -30 81 -42 99 -64
91 -8 -3 -12 -3 -8 1 4 4 0 12 -8 18 -40 29 -74 334 -77 676 -2 232 -1 252 26
380 31 153 48 216 113 415 71 219 103 280 263 505 37 52 71 106 75 120 12 40
267 283 410 390 167 126 244 175 383 244 299 150 464 202 662 212 145 6 343
23 349 29 7 8 51 5 156 -10z m-931 -3769 c32 -24 41 -37 35 -47 -7 -11 -9 -11
-9 -1 0 7 -4 11 -9 8 -5 -3 -11 1 -15 9 -3 8 -12 12 -20 9 -11 -4 -19 3 -26
21 -17 46 -14 46 44 1z m-749 -27 c-8 -12 -35 -12 -35 0 0 11 22 20 33 14 4
-2 5 -9 2 -14z m1183 -146 c-32 -2 -86 -2 -120 0 -35 2 -9 3 57 3 66 0 94 -1
63 -3z m1450 -20 c-15 -2 -42 -2 -60 0 -18 2 -6 4 27 4 33 0 48 -2 33 -4z
m-1458 -19 c87 5 119 3 130 -6 9 -7 13 -12 11 -10 -2 1 -15 -5 -28 -13 -21
-14 -24 -14 -44 6 -12 12 -24 17 -28 13 -3 -5 -18 -15 -33 -23 -16 -8 -28 -20
-28 -27 0 -6 -7 -14 -15 -18 -25 -9 -17 -31 18 -45 l32 -13 -25 -8 c-42 -13
-48 -11 -55 19 -3 16 -13 35 -21 42 -8 6 -14 18 -14 25 0 9 -11 14 -29 14 -25
0 -28 4 -27 29 1 25 3 28 20 19 13 -7 62 -8 136 -4z m1390 -8 c0 -3 -4 -8 -10
-11 -5 -3 -10 -1 -10 4 0 6 5 11 10 11 6 0 10 -2 10 -4z m-302 -55 c-14 -5
-31 15 -23 29 5 8 11 6 20 -7 9 -11 10 -19 3 -22z m-148 -26 c7 -8 19 -15 26
-15 8 0 14 -4 14 -10 0 -5 -7 -10 -15 -10 -8 0 -15 -5 -15 -11 0 -7 -9 -9 -24
-5 -17 4 -26 1 -31 -12 -6 -15 -9 -13 -31 12 -14 15 -22 31 -19 34 3 3 11 -3
19 -13 12 -17 14 -17 33 2 10 10 17 25 15 31 -5 17 13 15 28 -3z m-184 -46 c3
-6 1 -16 -5 -22 -14 -14 -15 -47 -1 -47 6 0 10 -6 10 -13 0 -17 -76 -49 -108
-45 -36 4 -41 28 -5 29 26 2 26 2 -7 9 l-35 7 42 2 c43 1 63 14 42 27 -8 4 -4
11 12 20 13 7 20 13 15 14 -11 0 13 30 25 30 4 0 11 -5 15 -11z m-1385 -30
c15 -7 24 -7 35 2 11 9 14 8 14 -8 0 -18 8 -20 113 -22 61 -1 121 -4 132 -7
16 -4 361 -25 430 -26 11 0 52 3 90 6 53 5 64 4 46 -4 -47 -21 -355 -26 -561
-10 -223 18 -330 40 -330 67 0 16 6 16 31 2z m1094 -57 c-3 -3 -11 0 -18 7 -9
10 -8 11 6 5 10 -3 15 -9 12 -12z m-295 -49 c69 -8 148 -24 175 -35 28 -11 82
-26 120 -34 l70 -14 -80 6 c-44 3 -147 7 -230 8 -119 1 -159 5 -195 19 -38 16
-89 19 -345 25 l-300 6 95 17 c128 23 513 24 690 2z m238 0 c-10 -2 -26 -2
-35 0 -10 3 -2 5 17 5 19 0 27 -2 18 -5z m-707 -54 c113 2 195 -2 255 -13 193
-33 420 -55 639 -63 212 -7 222 -8 125 -14 -58 -3 -146 -10 -196 -14 -57 -5
-127 -3 -190 4 -98 12 -186 19 -464 41 -234 17 -337 29 -380 42 -53 17 -51 32
3 23 23 -5 117 -7 208 -6z m1182 -76 c-7 -2 -19 -2 -25 0 -7 3 -2 5 12 5 14 0
19 -2 13 -5z m-1060 -20 c-7 -2 -21 -2 -30 0 -10 3 -4 5 12 5 17 0 24 -2 18
-5z m102 -13 c27 -7 27 -8 5 -8 -14 0 -36 4 -50 8 -20 6 -21 8 -5 8 11 0 34
-4 50 -8z m959 -10 c-36 -14 -167 -21 -199 -10 -29 10 -28 10 10 6 22 -3 69
-1 105 3 36 5 74 9 85 9 19 1 19 1 -1 -8z m-414 -50 c-41 -4 -106 -4 -145 0
-56 6 -42 7 75 7 121 0 133 -1 70 -7z"/>
<path d="M2440 4819 c-36 -5 -137 -13 -225 -18 -193 -12 -270 -31 -460 -113
-77 -33 -153 -65 -170 -71 -16 -7 -32 -15 -35 -18 -3 -4 -30 -19 -60 -34 -105
-53 -301 -186 -430 -293 -110 -92 -290 -274 -311 -314 -11 -22 -61 -96 -110
-166 -88 -123 -128 -190 -144 -242 -4 -13 -14 -30 -21 -38 -8 -7 -14 -19 -14
-25 0 -23 46 39 89 118 23 44 66 109 95 145 28 36 78 102 111 148 119 167 354
380 593 536 101 66 358 196 477 240 78 29 166 50 345 80 265 44 351 50 507 31
130 -16 349 -55 384 -70 10 -4 19 0 22 9 5 11 -4 18 -31 25 -20 5 -55 14 -77
20 -22 6 -105 22 -185 36 -147 26 -235 29 -350 14z"/>
<path d="M2340 4765 c-184 -26 -386 -66 -475 -96 -220 -73 -520 -242 -731
-411 -243 -194 -379 -355 -488 -575 -29 -60 -76 -151 -104 -203 -60 -113 -130
-298 -161 -430 -13 -52 -27 -106 -33 -120 -13 -33 -29 -412 -22 -530 11 -194
50 -367 122 -538 l35 -84 33 5 c26 5 41 0 71 -25 50 -39 49 -38 30 -38 -10 0
-27 11 -39 25 -23 26 -43 31 -67 16 -12 -8 -12 -13 0 -38 8 -15 40 -79 72
-140 l57 -113 58 28 c46 23 70 28 127 28 54 -1 69 -4 67 -15 -2 -11 12 -12 80
-6 137 12 162 9 240 -28 99 -47 122 -50 220 -33 76 13 217 73 253 107 5 5 19
9 32 9 12 0 27 9 33 20 6 11 22 23 36 26 31 8 29 10 -71 71 -80 49 -237 164
-285 209 l-25 23 -30 -24 -30 -25 25 -20 c14 -11 30 -20 37 -20 7 0 16 -7 21
-15 7 -13 14 -14 36 -5 37 14 37 13 31 -12 -5 -19 1 -27 29 -42 20 -10 39 -28
42 -39 4 -12 31 -45 61 -75 30 -29 53 -56 50 -58 -5 -5 -76 62 -139 131 -59
64 -73 74 -90 64 -12 -7 -21 -4 -32 12 -20 29 -92 69 -123 69 -13 0 -37 -7
-52 -15 -23 -11 -35 -12 -59 -3 -26 10 -37 9 -65 -4 -27 -13 -41 -14 -74 -5
-35 9 -48 7 -89 -10 -30 -14 -53 -18 -60 -12 -7 5 -21 -2 -39 -21 -24 -25 -37
-30 -74 -30 -25 0 -55 -7 -65 -15 -11 -8 -34 -15 -50 -14 l-31 1 33 8 c19 4
39 13 45 19 6 6 34 11 62 11 45 0 54 4 73 29 18 25 29 30 63 29 65 -1 67 9 21
124 -104 264 -147 494 -141 756 3 89 0 143 -6 146 -5 2 -3 10 6 17 9 8 21 47
28 93 36 227 129 445 280 661 242 347 699 621 1127 675 120 15 385 13 509 -5
128 -18 289 -55 366 -84 68 -26 69 -26 69 3 0 13 7 29 16 36 12 11 18 10 32
-3 13 -14 14 -22 6 -46 -11 -28 -10 -29 50 -57 198 -92 348 -195 487 -334 146
-145 284 -358 355 -547 37 -97 82 -288 95 -403 30 -263 -32 -609 -151 -851
-21 -43 -36 -79 -32 -79 3 0 32 26 62 59 58 60 94 86 109 77 5 -3 25 6 46 20
24 16 66 30 122 40 47 8 89 17 94 19 16 10 60 -40 64 -74 2 -19 10 -41 18 -48
12 -13 16 -9 25 29 17 68 31 179 47 373 29 345 -7 638 -110 895 -127 317 -258
530 -450 729 -211 219 -461 383 -790 519 -188 77 -403 133 -585 152 -196 21
-620 -38 -850 -118 -65 -23 -341 -168 -461 -242 -283 -176 -532 -437 -673
-705 -157 -301 -259 -590 -287 -817 -10 -81 -9 -88 9 -106 15 -15 19 -30 17
-57 -5 -46 -6 -48 -37 -36 -30 11 -43 52 -26 84 6 12 13 49 15 82 9 147 51
304 140 530 155 392 334 652 594 865 162 132 252 190 504 324 148 79 230 110
385 145 52 12 111 26 130 31 95 25 309 42 458 37 136 -5 152 -4 152 11 0 13 4
11 16 -6 8 -12 22 -22 31 -22 8 0 63 -12 120 -26 58 -14 114 -23 124 -21 11 3
19 2 19 -2 0 -4 32 -17 71 -30 142 -46 451 -198 594 -294 309 -205 531 -454
685 -767 160 -324 214 -513 231 -799 8 -129 8 -214 -1 -316 -15 -184 -37 -347
-56 -414 -8 -29 -13 -55 -10 -58 15 -15 62 140 95 316 40 211 28 547 -29 786
-62 265 -210 579 -377 804 -70 94 -221 249 -353 362 -138 118 -321 234 -498
316 -53 24 -106 49 -117 54 -57 26 -214 74 -329 100 -255 58 -433 71 -626 44z
m-50 -295 c0 -5 -4 -10 -10 -10 -5 0 -10 5 -10 10 0 6 5 10 10 10 6 0 10 -4
10 -10z m-470 -14 c0 -3 -4 -8 -10 -11 -5 -3 -10 -1 -10 4 0 6 5 11 10 11 6 0
10 -2 10 -4z m997 -42 c-9 -9 -28 6 -21 18 4 6 10 6 17 -1 6 -6 8 -13 4 -17z
m-1197 -28 c0 -3 -4 -8 -10 -11 -5 -3 -10 -1 -10 4 0 6 5 11 10 11 6 0 10 -2
10 -4z m360 -16 c0 -5 -5 -10 -11 -10 -5 0 -7 5 -4 10 3 6 8 10 11 10 2 0 4
-4 4 -10z m1425 -140 c3 -5 1 -10 -4 -10 -6 0 -11 5 -11 10 0 6 2 10 4 10 3 0
8 -4 11 -10z m170 -50 c-3 -6 -15 -10 -26 -10 -22 0 -25 24 -7 44 11 11 15 10
26 -5 7 -11 10 -24 7 -29z m-2370 -159 c7 -12 -12 -24 -25 -16 -11 7 -4 25 10
25 5 0 11 -4 15 -9z m2515 -41 c0 -5 -4 -10 -10 -10 -5 0 -10 5 -10 10 0 6 5
10 10 10 6 0 10 -4 10 -10z m223 -36 c-3 -8 2 -23 11 -33 16 -17 15 -18 -9
-13 -25 4 -46 22 -26 22 6 0 11 12 11 26 0 14 4 23 10 19 5 -3 7 -12 3 -21z
m-3055 -285 c12 -18 11 -24 -2 -37 -15 -15 -17 -15 -32 0 -13 13 -14 19 -2 37
7 11 15 21 18 21 3 0 11 -10 18 -21z m3278 -60 c10 -17 -13 -36 -27 -22 -12
12 -4 33 11 33 5 0 12 -5 16 -11z m-3366 -204 c0 -8 -4 -15 -9 -15 -13 0 -22
16 -14 24 11 11 23 6 23 -9z m30 -219 c0 -3 -4 -8 -10 -11 -5 -3 -10 -1 -10 4
0 6 5 11 10 11 6 0 10 -2 10 -4z m-193 -142 c-9 -9 -28 6 -21 18 4 6 10 6 17
-1 6 -6 8 -13 4 -17z m3664 -117 c-12 -15 -47 -12 -57 5 -3 5 2 18 12 29 18
20 18 20 38 0 15 -16 17 -23 7 -34z m-3631 -43 c0 -17 -26 -19 -36 -3 -7 12
15 31 28 23 4 -3 8 -12 8 -20z m3790 -148 c-13 -13 -35 7 -25 24 5 8 11 8 21
-1 10 -8 12 -15 4 -23z m-3726 -64 c2 -4 1 -14 -4 -21 -10 -17 -31 -5 -23 14
6 16 19 20 27 7z m3726 -46 c0 -3 -4 -8 -10 -11 -5 -3 -10 -1 -10 4 0 6 5 11
10 11 6 0 10 -2 10 -4z m-3955 -36 c6 0 4 -4 -4 -9 -8 -5 -27 -3 -48 5 -19 8
-38 12 -43 9 -6 -4 -10 1 -10 9 0 13 5 13 48 1 26 -8 52 -15 57 -15z m-91
-195 c-19 -155 14 -331 97 -513 33 -71 37 -91 11 -47 -45 74 -92 208 -116 331
-23 114 -25 137 -15 184 6 30 9 81 6 114 l-5 61 15 -35 c11 -26 13 -50 7 -95z
m263 23 c-3 -8 -6 -5 -6 6 -1 11 2 17 5 13 3 -3 4 -12 1 -19z m27 -151 c10
-10 10 -15 1 -24 -15 -14 -36 3 -28 23 6 17 11 17 27 1z m63 -249 c-3 -8 -6
-5 -6 6 -1 11 2 17 5 13 3 -3 4 -12 1 -19z"/>
<path d="M2402 4282 c-13 -2 -26 -10 -29 -18 -3 -8 -13 -14 -22 -14 -14 0 -14
2 -1 10 89 56 -328 -19 -500 -90 -228 -94 -472 -260 -617 -420 -184 -203 -334
-495 -388 -755 -26 -125 -38 -282 -32 -410 7 -143 27 -285 39 -285 5 0 7 -4 4
-9 -9 -14 18 -120 63 -251 56 -164 68 -190 91 -191 24 -2 29 -3 53 -14 10 -4
28 -3 40 3 12 6 33 12 45 14 24 3 24 3 -10 48 -76 101 -137 254 -117 292 9 16
9 34 0 72 -25 113 -41 236 -41 324 0 73 -3 92 -14 92 -8 0 -17 4 -20 9 -4 5 2
7 13 4 17 -4 19 4 24 104 12 230 122 524 270 716 134 175 258 284 449 394 63
36 82 43 88 32 9 -14 -8 -32 -22 -23 -9 5 -157 -82 -195 -115 -13 -11 -23 -24
-23 -31 0 -6 -4 -9 -9 -6 -15 10 -144 -108 -228 -209 -74 -88 -105 -140 -71
-119 6 4 8 3 4 -4 -3 -6 12 -17 38 -27 25 -10 47 -24 50 -32 3 -8 10 -11 16
-8 5 3 10 1 10 -5 0 -6 5 -8 10 -5 6 3 13 -1 16 -9 3 -8 21 -20 40 -26 18 -6
36 -16 40 -21 3 -5 -20 2 -52 16 -31 14 -61 25 -66 25 -6 0 -26 13 -44 30 -19
16 -47 36 -63 45 l-29 15 -45 -88 c-42 -81 -117 -269 -117 -291 0 -6 19 -15
43 -21 23 -6 65 -17 93 -26 28 -8 55 -14 60 -13 5 1 23 -4 39 -11 17 -7 52
-18 80 -26 57 -15 58 -14 77 59 6 26 15 47 20 47 4 0 5 7 2 15 -4 8 -2 15 3
15 5 0 15 17 22 38 18 49 102 191 163 272 72 97 178 199 257 250 39 25 71 52
72 60 0 9 2 11 5 3 4 -8 18 -6 50 8 67 28 67 23 -1 -15 -33 -19 -73 -42 -90
-51 -55 -32 -154 -110 -155 -122 0 -7 -6 -13 -13 -13 -33 0 -212 -245 -201
-275 4 -9 13 -14 21 -11 8 3 25 -6 38 -20 14 -15 29 -23 36 -18 7 4 9 3 6 -3
-8 -13 23 -27 33 -16 4 4 27 35 52 68 25 33 62 75 81 94 30 28 35 39 31 65 -4
28 -4 29 6 8 l10 -23 42 29 c45 31 161 92 213 113 56 22 270 69 314 69 26 0
26 1 25 68 0 37 -1 82 -2 100 l-2 33 -72 -6 c-78 -7 -233 -31 -264 -40 -18 -6
-18 -6 0 6 38 24 285 59 379 53 104 -6 257 -35 370 -71 78 -24 217 -87 217
-98 0 -3 -27 8 -60 25 -33 16 -65 30 -73 30 -7 0 -21 -24 -30 -52 -10 -29 -26
-71 -37 -93 -23 -46 -19 -31 21 77 l29 77 -83 25 c-100 30 -228 57 -265 55
-15 -1 -46 2 -69 6 l-43 8 0 -101 0 -101 38 -6 c185 -29 368 -88 482 -156 62
-36 86 -46 91 -37 4 7 15 22 23 33 15 18 15 17 1 -17 -15 -36 -15 -37 15 -50
28 -12 36 -36 11 -30 -7 1 -10 -2 -7 -7 3 -5 14 -7 24 -5 34 8 222 -254 236
-331 4 -16 3 -23 0 -15 -4 8 -16 35 -26 59 -10 24 -21 42 -23 39 -5 -5 33
-107 45 -121 13 -15 80 5 110 33 16 15 32 25 34 22 3 -2 34 7 70 21 35 14 95
33 132 42 38 8 78 18 89 21 15 3 13 1 -5 -9 -14 -8 -45 -18 -70 -22 -66 -11
-219 -68 -264 -99 -22 -15 -50 -29 -64 -33 -20 -5 -23 -10 -18 -32 3 -14 11
-54 17 -89 l13 -62 90 6 c50 3 107 9 126 14 20 4 56 3 80 -1 l45 -8 -47 3
c-27 2 -48 0 -48 -5 0 -5 -24 -9 -54 -9 -30 0 -57 -4 -61 -10 -3 -5 -33 -7
-70 -3 l-63 6 5 -42 c5 -33 3 -41 -11 -41 -9 0 -16 -4 -16 -8 0 -4 -42 -6 -94
-4 -57 3 -101 0 -114 -7 -15 -8 -23 -8 -28 0 -4 7 -49 10 -138 7 l-131 -3 3
35 c5 46 12 52 12 11 l0 -33 88 6 c48 3 109 5 136 6 l49 0 -6 68 c-7 74 -24
135 -36 128 -14 -9 -164 -47 -168 -43 -2 2 18 10 44 17 26 6 65 19 86 28 32
15 37 20 32 42 -15 61 -63 139 -128 207 -68 72 -70 73 -90 56 -19 -18 -19 -17
-7 4 12 18 12 24 -1 40 -13 16 -13 17 3 4 10 -7 24 -11 32 -8 10 4 13 1 10 -7
-3 -8 8 -23 24 -35 16 -11 47 -43 67 -70 33 -43 41 -49 59 -40 20 10 20 10 2
-5 -14 -11 -16 -19 -9 -28 6 -7 22 -42 36 -78 15 -36 30 -64 34 -64 4 1 26 4
48 7 l40 6 -47 -15 -46 -15 9 -37 c6 -20 13 -44 16 -52 3 -8 6 -37 7 -65 l1
-50 81 3 c44 2 89 5 100 7 10 2 22 4 27 4 19 2 -24 229 -46 243 -9 6 -9 8 0 8
14 0 6 30 -26 103 -24 56 -25 61 -10 51 7 -4 10 -1 7 7 -3 8 -11 13 -17 11 -7
-1 -10 2 -6 8 3 5 1 10 -4 10 -6 0 -11 6 -11 14 0 8 -9 18 -21 21 -11 4 -40
35 -65 68 -25 34 -61 77 -82 95 -20 19 -30 31 -22 26 8 -4 11 -3 7 1 -15 17
-40 13 -59 -8 -19 -22 -19 -22 -2 6 22 37 13 46 -99 101 -160 78 -286 117
-419 131 -54 6 -68 5 -68 -6 0 -12 -2 -12 -9 -1 -6 11 -24 12 -75 7 -36 -4
-69 -11 -72 -16 -3 -5 -9 -7 -14 -4 -13 8 -119 -21 -192 -52 -80 -34 -218
-121 -218 -137 0 -7 3 -16 8 -22 4 -5 0 -2 -9 8 -15 15 -19 13 -66 -35 -69
-72 -127 -146 -120 -154 4 -3 12 -1 19 5 10 8 13 5 14 -13 2 -21 0 -22 -18
-12 -16 10 -21 9 -31 -8 -27 -45 -88 -197 -84 -208 2 -7 41 -20 86 -31 45 -10
80 -20 77 -23 -3 -3 -27 0 -53 6 -26 5 -66 12 -87 13 l-40 3 -13 -60 c-6 -33
-12 -86 -13 -117 l0 -58 93 0 c50 0 97 4 103 8 6 4 14 36 17 71 7 61 12 80 21
70 2 -2 0 -33 -5 -68 -5 -35 -7 -66 -5 -68 2 -2 51 -8 107 -12 l104 -8 -92 -2
c-76 -1 -96 -4 -112 -20 -18 -18 -18 -18 -30 1 -10 16 -21 18 -103 13 -50 -2
-93 -7 -96 -10 -3 -3 1 -43 8 -90 l13 -85 31 0 c30 0 30 0 8 -16 -12 -8 -22
-22 -22 -30 0 -17 26 -12 115 22 33 12 106 37 162 54 56 17 104 36 106 43 4 9
6 9 6 0 1 -20 21 -15 21 5 0 10 22 38 48 63 70 67 85 70 23 6 -30 -31 -52 -59
-48 -63 3 -3 29 18 57 47 34 36 49 58 45 70 -7 20 21 39 56 39 21 0 22 -3 16
-72 l-6 -73 265 0 266 0 -7 68 c-7 67 -7 67 18 67 14 0 38 5 54 10 26 9 27 9
9 -5 -19 -15 -19 -15 3 -46 12 -17 31 -49 42 -72 10 -23 19 -35 19 -27 0 11 2
12 8 3 4 -7 24 -15 42 -19 l35 -6 -68 67 c-37 37 -66 70 -63 72 2 2 15 -6 28
-19 77 -74 126 -116 146 -127 41 -22 177 -59 181 -49 1 5 8 3 15 -5 9 -13 186
-72 191 -64 9 12 13 57 5 57 -5 0 -10 5 -10 11 0 5 4 8 9 4 13 -7 18 15 26
103 4 39 11 72 16 72 5 0 9 -9 9 -20 0 -18 7 -20 73 -21 39 0 81 -4 92 -9 11
-4 -22 -6 -76 -3 l-96 6 -6 -64 c-3 -35 -9 -73 -12 -85 -5 -17 0 -22 32 -31
l38 -11 -36 5 c-27 3 -38 1 -42 -11 -5 -11 16 -23 91 -52 106 -41 202 -86 243
-115 14 -10 29 -16 33 -12 3 3 6 -4 6 -16 0 -13 -3 -21 -7 -19 -125 64 -391
172 -473 192 -42 10 3 -9 139 -59 137 -51 274 -108 309 -131 21 -14 21 -16 8
-49 -22 -52 -137 -223 -196 -290 -72 -82 -154 -158 -222 -204 l-58 -39 32 -6
c63 -12 128 5 196 51 36 25 81 47 101 50 40 6 123 77 115 98 -3 7 1 15 9 18
18 7 96 141 135 232 60 140 122 372 122 461 l0 41 -52 7 c-29 3 -89 7 -133 8
l-80 1 90 6 c50 4 107 2 128 -3 21 -5 41 -5 45 -1 9 9 5 243 -5 258 -4 7 -6
22 -4 34 3 26 -13 111 -35 191 -12 42 -19 52 -37 53 -18 1 -19 2 -3 6 27 7 16
50 -51 183 -43 85 -63 115 -76 114 -14 -2 -15 1 -6 12 13 16 5 31 -70 129 -52
68 -175 191 -205 206 -12 6 4 -14 34 -44 81 -79 114 -121 45 -56 -33 31 -65
58 -70 60 -6 2 -25 21 -42 42 -18 20 -36 38 -40 40 -5 1 -7 6 -5 11 2 5 -4 6
-12 3 -9 -4 -20 1 -25 11 -6 9 -11 14 -11 9 0 -4 -17 4 -38 17 -150 94 -382
178 -601 215 -151 26 -403 29 -544 7 -140 -23 -278 -68 -319 -104 -16 -14 -18
-14 -18 0 0 22 16 32 100 63 114 41 241 64 384 72 l128 6 -6 41 c-5 27 -4 38
3 31 5 -5 11 -23 13 -40 3 -27 7 -30 43 -32 211 -13 422 -59 604 -132 180 -72
400 -212 517 -326 111 -110 246 -328 290 -467 10 -32 22 -58 26 -58 5 0 7 -4
4 -8 -3 -4 4 -41 15 -82 10 -41 25 -114 31 -163 10 -78 14 -87 31 -85 11 2 22
-3 24 -9 3 -8 -5 -13 -21 -13 l-26 0 0 -95 c0 -79 3 -96 18 -104 16 -9 16 -10
0 -16 -11 -5 -18 -18 -18 -35 0 -59 -32 -208 -71 -328 -51 -154 -137 -327
-198 -395 -81 -90 -80 -86 -3 -72 104 18 171 62 140 93 -7 7 -8 15 -4 19 4 4
11 1 15 -6 7 -11 13 -8 26 13 10 14 23 26 30 26 20 0 123 231 160 361 20 67
42 162 50 212 18 113 31 347 19 347 -5 0 -9 30 -10 68 -1 124 -75 376 -158
540 -74 146 -236 369 -258 356 -6 -4 -8 -2 -4 4 8 13 -106 116 -216 194 -88
64 -354 202 -369 193 -5 -4 -9 -2 -9 3 0 10 -118 50 -225 76 -54 13 -87 19
-215 41 -32 5 -116 11 -250 18 -30 2 -65 1 -78 -1z m68 -32 c0 -5 -4 -10 -10
-10 -5 0 -10 5 -10 10 0 6 5 10 10 10 6 0 10 -4 10 -10z m230 -17 c0 -12 8
-14 35 -10 24 4 33 2 29 -5 -4 -6 -3 -8 2 -5 25 15 426 -109 549 -170 68 -34
215 -132 215 -144 0 -14 0 -13 -89 46 -104 70 -266 148 -308 149 -18 1 -33 6
-33 12 0 12 -144 55 -295 86 -96 20 -139 23 -330 23 -192 0 -234 -3 -330 -24
-226 -48 -400 -117 -563 -225 -57 -37 -106 -66 -109 -63 -6 6 117 90 200 137
32 18 102 50 155 71 53 21 91 39 85 39 -15 0 -18 30 -3 30 5 0 14 -8 20 -17 9
-17 11 -16 29 5 11 12 22 18 25 13 3 -5 31 -3 63 5 101 24 294 44 428 45 89 0
132 4 137 12 6 9 8 9 8 0 0 -18 37 -16 44 2 7 18 36 9 36 -12z m-650 -261 c0
-13 -12 -22 -22 -16 -10 6 -1 24 13 24 5 0 9 -4 9 -8z m600 -2 c0 -5 -4 -10
-10 -10 -5 0 -10 5 -10 10 0 6 5 10 10 10 6 0 10 -4 10 -10z m-845 -120 c3 -5
-1 -10 -9 -10 -9 0 -16 5 -16 10 0 6 4 10 9 10 6 0 13 -4 16 -10z m1519 -122
l-8 -33 -6 30 c-3 17 -1 33 4 37 16 11 19 2 10 -34z m28 -256 c31 -30 74 -77
95 -105 20 -29 48 -62 61 -75 l24 -23 51 31 c45 26 48 27 22 6 -16 -14 -42
-31 -57 -37 -16 -6 -28 -15 -28 -20 0 -5 16 -38 36 -74 20 -36 34 -68 32 -70
-2 -3 -22 29 -44 70 -21 41 -42 75 -46 75 -5 0 -8 5 -8 11 0 5 -18 36 -40 67
-77 112 -217 241 -237 221 -8 -8 -11 -4 -10 14 l2 25 44 -32 c25 -17 71 -55
103 -84z m-1545 21 c0 -9 -4 -10 -14 -2 -7 6 -13 12 -13 14 0 1 6 2 13 2 8 0
14 -6 14 -14z m1373 9 c0 -5 -7 -17 -16 -28 -8 -10 -14 -14 -11 -9 2 6 7 18
10 28 7 17 17 23 17 9z m-681 -90 c1 -7 -3 -10 -9 -7 -5 3 -10 18 -9 33 0 24
1 25 9 7 5 -11 9 -26 9 -33z m-495 -19 c8 -19 -17 -48 -33 -39 -15 10 -14 43
2 49 21 9 25 8 31 -10z m1766 12 c0 -2 -10 -9 -22 -15 -22 -11 -22 -10 -4 4
21 17 26 19 26 11z m-50 -29 c0 -7 -66 -46 -76 -46 -5 0 9 12 31 25 42 26 45
28 45 21z m-1050 -32 c73 -14 195 -65 235 -99 11 -9 0 -5 -25 9 -72 40 -222
86 -304 93 l-76 6 -2 -59 -2 -59 -3 59 -4 59 -82 -6 c-45 -3 -117 -17 -160
-30 -78 -25 -227 -103 -227 -119 0 -5 7 -21 16 -36 l16 -27 -25 29 -25 28 -40
-40 c-41 -41 -79 -102 -65 -102 9 -1 71 -50 62 -50 -3 0 -20 11 -39 25 -25 19
-36 22 -42 12 -17 -26 -54 -150 -57 -192 -1 -5 -5 -4 -10 4 -5 8 -5 21 -1 30
5 9 18 48 29 86 20 69 88 178 137 217 15 12 20 26 18 50 -3 30 -2 30 4 6 l7
-28 30 21 c175 119 399 159 635 113z m390 -38 c0 -2 -8 -10 -17 -17 -16 -13
-17 -12 -4 4 13 16 21 21 21 13z m-1555 -34 c-3 -3 -11 0 -18 7 -9 10 -8 11 6
5 10 -3 15 -9 12 -12z m1140 -108 c28 -14 69 -43 91 -66 23 -22 46 -39 50 -38
5 1 10 -3 12 -9 2 -6 -14 -4 -40 5 -60 22 -202 44 -268 42 l-55 -1 60 -7 c46
-6 32 -7 -65 -7 -132 0 -217 -9 -237 -25 -7 -6 -13 -7 -12 -2 1 19 106 95 157
114 115 43 211 41 307 -6z m1372 -30 c-3 -3 -12 -4 -19 -1 -8 3 -5 6 6 6 11 1
17 -2 13 -5z m-1937 -34 c12 -16 19 -30 16 -30 -2 0 -14 14 -26 30 -12 17 -19
30 -16 30 2 0 14 -13 26 -30z m820 6 c0 -2 -8 -10 -17 -17 -16 -13 -17 -12 -4
4 13 16 21 21 21 13z m-744 -76 c16 14 16 13 6 -5 -6 -11 -16 -27 -23 -35 -9
-13 -10 -13 -5 2 3 10 1 20 -4 23 -6 3 -15 16 -21 28 -9 19 -8 19 9 -3 18 -21
22 -22 38 -10z m739 -150 c1 -3 6 -20 10 -38 8 -32 9 -33 49 -28 l41 6 -40
-13 c-45 -15 -57 -6 -71 49 -4 16 -20 58 -36 92 -41 92 -34 100 9 12 20 -41
38 -77 38 -80z m-789 43 c-8 -15 -15 -25 -16 -21 0 12 23 58 27 54 3 -2 -2
-17 -11 -33z m622 -7 c35 -8 66 -17 69 -20 9 -8 -1 -8 -92 9 -153 28 -446 16
-516 -21 -36 -18 -38 -10 -4 12 63 41 387 53 543 20z m639 -2 c-3 -3 -12 -4
-19 -1 -8 3 -5 6 6 6 11 1 17 -2 13 -5z m-732 -14 c33 -5 79 -15 103 -22 l42
-12 0 -77 0 -77 -30 -7 c-24 -5 -30 -12 -30 -33 l0 -27 -227 3 c-126 2 -234 5
-242 8 -8 2 -11 14 -9 29 3 15 1 25 -6 25 -7 0 -10 21 -9 57 l2 58 -11 -57
c-6 -32 -14 -58 -19 -58 -5 0 -9 36 -9 79 l0 79 48 16 c26 8 61 17 77 19 62 8
262 7 320 -3z m-545 -47 c0 -26 -3 -34 -11 -26 -9 9 -3 63 7 63 2 0 4 -17 4
-37z m49 34 c-2 -1 -13 -9 -24 -17 -19 -14 -19 -14 -6 3 7 9 18 17 24 17 6 0
8 -1 6 -3z m-71 -166 c3 -66 4 -72 22 -66 29 9 24 -8 -7 -31 -42 -30 -61 -39
-33 -14 14 12 21 23 15 26 -6 2 -9 34 -7 75 3 52 0 74 -10 81 -10 8 -10 9 2 5
11 -3 16 -22 18 -76z m1895 72 c-7 -2 -21 -2 -30 0 -10 3 -4 5 12 5 17 0 24
-2 18 -5z m-103 -13 c-14 -4 -34 -8 -45 -9 -16 -1 -17 1 -5 9 8 5 29 9 45 9
29 -1 29 -1 5 -9z m-933 -37 c-3 -10 -5 -4 -5 12 0 17 2 24 5 18 2 -7 2 -21 0
-30z m-42 -2 c-37 -15 -95 -22 -95 -12 0 9 35 17 90 19 22 1 23 0 5 -7z m-720
-12 c12 -19 -2 -21 -32 -5 l-28 15 27 1 c15 0 30 -5 33 -11z m1062 -176 c-3
-10 -5 -2 -5 17 0 19 2 27 5 18 2 -10 2 -26 0 -35z m470 31 c-3 -3 -12 -4 -19
-1 -8 3 -5 6 6 6 11 1 17 -2 13 -5z m440 -30 c-3 -3 -12 -4 -19 -1 -8 3 -5 6
6 6 11 1 17 -2 13 -5z m-920 -56 c-3 -8 -6 -5 -6 6 -1 11 2 17 5 13 3 -3 4
-12 1 -19z m-1409 -13 c-3 -3 -9 2 -12 12 -6 14 -5 15 5 6 7 -7 10 -15 7 -18z
m2077 -124 c3 -5 2 -12 -3 -15 -5 -3 -9 1 -9 9 0 17 3 19 12 6z m-107 -75 c10
-12 0 -8 -23 9 -56 40 -66 51 -27 29 18 -10 41 -28 50 -38z m-2823 35 c-16
-14 -55 -23 -55 -12 0 8 16 14 55 20 6 0 6 -2 0 -8z m-50 -81 c8 -13 -5 -13
-25 0 -13 8 -13 10 2 10 9 0 20 -4 23 -10z m3138 -7 c-7 -2 -21 -2 -30 0 -10
3 -4 5 12 5 17 0 24 -2 18 -5z m60 -10 c-7 -2 -21 -2 -30 0 -10 3 -4 5 12 5
17 0 24 -2 18 -5z"/>
<path d="M450 3450 c-6 -11 -8 -20 -6 -20 3 0 10 9 16 20 6 11 8 20 6 20 -3 0
-10 -9 -16 -20z"/>
<path d="M3219 3261 c28 -36 51 -69 51 -73 0 -4 5 -8 11 -8 13 0 -43 79 -84
117 -17 16 -7 0 22 -36z"/>
<path d="M1535 3195 c-17 -30 -24 -53 -20 -67 5 -12 3 -18 -3 -14 -30 18 -112
-277 -112 -406 0 -35 2 -38 29 -38 17 0 32 -4 36 -9 3 -5 -8 -9 -25 -9 -17 1
-33 -2 -37 -5 -9 -9 13 -173 29 -222 11 -32 18 -40 36 -38 21 3 21 2 4 -15 -9
-10 -22 -17 -29 -14 -17 5 -227 -106 -273 -145 -55 -47 -39 -94 21 -62 11 5
16 15 13 21 -4 6 -3 8 4 4 14 -9 63 14 55 27 -3 5 -9 4 -13 -3 -5 -7 -10 -8
-14 -2 -5 9 247 142 332 174 44 17 48 23 32 48 -7 12 -12 12 -22 2 -6 -6 -17
-12 -22 -12 -6 0 -3 5 7 11 9 6 14 15 11 21 -4 6 -1 14 5 18 9 5 10 17 2 46
-18 72 -23 178 -11 264 7 47 14 100 15 118 2 18 7 38 13 45 5 6 15 30 22 52 7
22 28 70 46 107 l34 68 -42 21 c-24 12 -55 30 -70 40 l-26 19 -27 -45z m-48
-271 c-3 -3 -12 -4 -19 -1 -8 3 -5 6 6 6 11 1 17 -2 13 -5z m-302 -764 c-3 -5
-12 -10 -18 -10 -7 0 -6 4 3 10 19 12 23 12 15 0z"/>
<path d="M351 3052 c-23 -75 -25 -92 -13 -92 7 0 43 152 36 158 -1 2 -12 -27
-23 -66z"/>
<path d="M1031 2987 c-21 -78 -31 -149 -31 -223 0 -62 2 -72 15 -68 9 4 73 1
143 -5 232 -20 227 -20 225 9 -1 14 6 69 14 123 9 54 14 100 11 102 -5 6 -32
13 -208 63 -173 48 -156 48 -169 -1z"/>
<path d="M1028 2683 c7 -3 16 -2 19 1 4 3 -2 6 -13 5 -11 0 -14 -3 -6 -6z"/>
<path d="M2198 2663 c-8 -10 -27 -39 -42 -65 l-27 -48 26 0 c14 0 24 4 21 9
-3 5 5 34 19 65 26 60 27 66 3 39z"/>
<path d="M1000 2598 c0 -72 20 -227 41 -323 17 -77 40 -135 74 -190 28 -44 75
-96 75 -83 0 16 -35 106 -47 119 -8 9 -15 29 -16 44 -3 38 61 86 204 156 l107
52 -13 37 c-7 20 -21 82 -30 136 -9 54 -18 100 -19 102 -4 3 -282 22 -333 22
l-43 0 0 -72z m270 -148 c0 -5 -4 -10 -10 -10 -5 0 -10 5 -10 10 0 6 5 10 10
10 6 0 10 -4 10 -10z m-158 -107 c-6 -3 -9 -10 -6 -15 4 -7 2 -8 -5 -4 -9 6
-9 11 0 22 6 8 15 12 18 8 3 -4 0 -9 -7 -11z"/>
<path d="M2771 2605 c1 -45 3 -53 8 -30 l7 30 8 -29 c6 -23 9 -27 17 -15 12
19 12 19 -16 64 l-24 40 0 -60z"/>
<path d="M2820 2561 c0 -5 5 -13 10 -16 6 -3 10 -2 10 4 0 5 -4 13 -10 16 -5
3 -10 2 -10 -4z"/>
<path d="M2280 2530 c-9 -6 -10 -10 -3 -10 16 0 81 -57 94 -82 6 -11 -22 6
-63 36 -72 55 -94 63 -133 46 -17 -7 -17 -9 -3 -9 15 -1 16 -5 6 -26 -6 -14
-16 -25 -22 -25 -17 -1 34 -40 51 -40 9 0 -18 -22 -58 -48 -41 -27 -109 -74
-152 -105 -43 -31 -110 -74 -150 -96 -93 -51 -264 -108 -344 -114 -39 -3 -72
-12 -90 -25 -15 -10 -35 -22 -43 -25 -11 -4 -9 -6 5 -6 26 -1 238 59 328 93
37 14 103 43 148 66 44 22 112 49 152 60 88 23 157 47 171 60 7 5 17 5 24 1
12 -7 -122 -61 -242 -96 -43 -12 -55 -19 -45 -26 9 -6 4 -7 -16 -3 -16 4 -27
3 -22 -1 4 -5 -41 -27 -100 -50 -60 -23 -121 -48 -137 -57 l-29 -15 69 -55
c70 -55 219 -153 235 -153 4 0 14 -6 21 -12 6 -7 16 -13 20 -13 4 0 16 -7 25
-14 74 -61 72 -58 18 -33 -68 30 -76 37 -69 49 4 7 2 8 -4 4 -6 -4 -30 7 -53
24 -23 16 -48 30 -56 30 -7 0 -13 4 -13 9 0 5 -20 19 -45 31 -25 12 -47 26
-50 31 -3 4 -21 16 -40 25 -19 9 -33 19 -31 23 2 3 -2 15 -10 25 -18 25 -60
24 -148 -2 -80 -25 -87 -30 -65 -45 16 -12 19 -18 19 -37 0 -19 271 -230 296
-230 4 0 15 -6 23 -14 28 -25 92 -57 102 -51 5 4 9 2 9 -3 0 -9 55 -26 72 -23
4 0 19 -4 33 -9 29 -11 25 -18 79 127 15 40 31 72 34 72 20 -3 25 2 12 11 -13
9 -13 11 0 20 8 5 27 10 43 10 32 0 33 1 -21 -160 -19 -58 -35 -111 -36 -119
-1 -11 12 -15 49 -16 28 0 66 -4 86 -9 36 -8 37 -7 43 28 4 19 12 38 18 42 8
5 9 1 4 -12 -4 -10 -10 -30 -12 -44 -5 -25 -5 -25 75 -27 72 -2 80 -1 86 17 4
11 11 20 16 20 16 0 10 66 -9 83 -46 42 -125 41 -142 -2 -10 -25 -10 -25 -5 7
5 33 4 33 -33 31 -20 -1 -46 2 -56 6 -11 5 -32 3 -48 -3 -24 -9 -27 -8 -19 2
6 7 8 16 4 19 -3 4 1 7 10 7 20 0 23 16 5 23 -9 4 -9 6 1 6 8 1 22 -6 32 -15
9 -8 40 -16 72 -18 53 -3 56 -2 79 30 12 18 42 58 66 88 51 65 50 84 -9 121
-49 31 -141 35 -172 8 -20 -17 -20 -17 -14 0 4 10 7 23 7 28 0 5 8 9 18 9 26
1 72 29 145 90 56 47 66 60 66 88 1 22 5 32 14 29 6 -2 11 -15 9 -30 -3 -21 1
-26 25 -30 l28 -4 -27 -2 c-23 -1 -28 -6 -28 -26 0 -21 5 -25 30 -25 30 0 30
0 30 56 0 34 4 53 10 49 6 -3 10 -15 10 -26 0 -11 4 -18 8 -15 4 2 8 -4 8 -14
0 -14 -3 -16 -13 -8 -10 8 -13 -4 -13 -61 0 -68 4 -77 33 -72 4 1 32 2 63 2
l56 2 -59 61 -58 61 61 -59 c58 -54 65 -58 102 -54 43 4 40 8 68 -91 3 -9 -6
5 -18 30 l-23 47 -75 -18 c-77 -19 -104 -39 -116 -87 -5 -19 1 -33 28 -61 19
-20 52 -58 73 -84 l37 -48 79 0 c63 0 79 3 79 15 0 8 -8 20 -19 27 -14 8 -16
14 -7 23 8 10 14 5 23 -17 24 -55 24 -55 -133 -63 -119 -6 -148 -5 -155 6 -6
10 -9 8 -9 -8 0 -12 -6 -26 -14 -30 -21 -12 -29 -94 -11 -117 14 -19 17 -19
84 -3 38 9 78 17 90 17 12 0 21 4 21 9 0 4 11 6 24 4 21 -4 67 5 107 21 11 5
18 1 22 -13 3 -12 10 -21 15 -21 6 0 4 21 -5 50 -17 60 -12 80 19 80 57 0 62
-6 107 -141 24 -71 47 -132 52 -134 4 -3 -14 59 -40 136 l-48 142 -39 4 c-21
2 -44 9 -50 16 -14 15 -66 159 -63 173 2 5 -5 25 -13 44 -9 19 -28 64 -42 100
-14 36 -25 58 -26 50 0 -9 -6 -6 -15 10 -18 31 -19 51 -2 28 8 -10 31 -18 58
-20 l44 -3 32 -90 c18 -49 31 -100 29 -112 -2 -12 3 -24 9 -27 7 -2 21 -28 30
-56 13 -39 20 -49 27 -39 7 10 8 6 4 -12 -4 -20 0 -29 17 -38 20 -11 34 -7
115 34 128 63 247 150 331 242 39 42 71 80 71 84 0 4 -18 10 -40 14 -24 4 -38
11 -34 17 5 7 -2 9 -18 5 -14 -4 -32 -1 -43 7 -10 7 -27 11 -37 8 -10 -2 -18
1 -18 8 0 7 -7 10 -14 7 -8 -3 -73 12 -143 34 -70 22 -166 52 -213 67 -47 14
-88 30 -91 35 -3 5 -8 8 -10 6 -2 -1 -15 1 -28 6 -39 12 -9 24 39 15 25 -5 58
-9 74 -10 27 0 24 3 -31 38 -34 20 -78 51 -99 68 l-38 32 32 27 c37 31 41 45
13 45 -21 0 -37 17 -27 27 13 14 94 -24 146 -67 30 -26 69 -56 86 -68 31 -21
143 -67 148 -60 2 1 8 12 15 23 10 18 11 16 6 -12 -6 -30 -5 -32 72 -69 43
-21 83 -39 88 -39 6 0 13 -4 17 -9 3 -5 15 9 27 32 17 34 18 41 6 46 -8 3 -15
0 -15 -6 0 -7 -5 -5 -12 4 -7 9 -30 19 -52 23 -21 3 -35 9 -32 12 8 8 136 -27
136 -38 0 -5 -9 -23 -20 -41 -11 -18 -20 -36 -20 -39 0 -13 53 -20 63 -10 6 6
16 11 22 11 5 0 1 -7 -9 -15 -17 -13 -17 -15 -4 -15 15 0 39 24 63 65 10 16
14 16 64 -9 29 -15 65 -29 79 -31 33 -4 102 -36 102 -47 0 -4 -9 -8 -21 -8
-13 0 -18 4 -13 12 4 7 3 8 -4 4 -6 -4 -24 0 -40 8 l-29 15 -31 -49 c-26 -42
-28 -50 -14 -51 9 0 38 -4 63 -8 44 -7 47 -6 67 23 40 59 39 62 -27 95 -108
55 -205 91 -551 203 -52 17 -113 39 -135 50 -69 33 -158 66 -213 78 -58 13
-49 17 -139 -59 -52 -42 -68 -80 -43 -96 5 -3 15 -15 21 -27 10 -19 9 -20 -20
-13 l-31 7 0 -59 c0 -49 -3 -59 -17 -59 -15 0 -18 10 -18 63 0 59 2 63 23 63
25 0 25 0 12 35 -9 24 -5 32 46 86 32 32 64 59 73 60 9 1 5 5 -9 9 -36 12
-402 12 -420 0z m105 -10 c3 -6 -1 -7 -9 -4 -18 7 -21 14 -7 14 6 0 13 -4 16
-10z m134 -11 c81 -28 63 -139 -23 -142 -84 -2 -119 112 -43 143 29 12 29 12
66 -1z m104 -6 c-7 -2 -21 -2 -30 0 -10 3 -4 5 12 5 17 0 24 -2 18 -5z m-313
-60 c-8 -3 -24 -10 -35 -15 -20 -9 -20 -9 -1 6 11 9 27 16 35 15 14 0 14 -1 1
-6z m400 -14 l25 -20 -35 17 c-43 20 -47 24 -29 24 8 0 25 -10 39 -21z m-490
-43 c0 -2 -22 -21 -50 -42 -27 -20 -47 -41 -44 -46 3 -4 0 -8 -5 -8 -6 0 -40
-14 -77 -31 -36 -17 -68 -29 -70 -26 -6 6 77 57 92 57 5 0 41 23 79 50 69 50
75 53 75 46z m565 -26 c3 -5 2 -10 -4 -10 -5 0 -13 5 -16 10 -3 6 -2 10 4 10
5 0 13 -4 16 -10z m-472 -17 c-7 -2 -19 -2 -25 0 -7 3 -2 5 12 5 14 0 19 -2
13 -5z m75 -11 c2 -7 -7 -12 -22 -12 -27 0 -35 15 -13 23 17 7 30 3 35 -11z
m135 11 c-13 -2 -35 -2 -50 0 -16 2 -5 4 22 4 28 0 40 -2 28 -4z m200 0 c-7
-2 -19 -2 -25 0 -7 3 -2 5 12 5 14 0 19 -2 13 -5z m-503 -8 c0 -6 -56 -35 -67
-35 -4 1 8 9 27 20 39 22 40 22 40 15z m217 -48 c2 -37 0 -46 -7 -32 -11 25
-13 85 -2 85 4 0 8 -24 9 -53z m-117 36 c0 -13 -70 -217 -78 -229 -4 -5 -23
-15 -42 -22 l-35 -11 33 5 c35 6 38 0 20 -43 -6 -15 -12 -33 -14 -40 -1 -6 -7
-28 -14 -47 -6 -20 -8 -41 -4 -47 4 -7 3 -9 -3 -6 -12 8 -26 -20 -18 -34 4 -5
0 -6 -8 -3 -7 2 -26 0 -40 -5 -43 -16 -44 -22 93 367 l44 122 33 0 c18 0 33
-3 33 -7z m438 -45 c11 -29 29 -84 42 -122 12 -37 25 -64 29 -59 7 10 96 63
106 63 16 0 -11 -22 -62 -49 -73 -40 -117 -41 -131 -3 -41 108 -69 211 -59
216 40 16 56 6 75 -46z m117 14 c-5 -5 -77 18 -89 29 -5 4 14 1 42 -8 29 -9
50 -19 47 -21z m382 32 c-3 -3 -12 -4 -19 -1 -8 3 -5 6 6 6 11 1 17 -2 13 -5z
m-760 -66 c-2 -13 -4 -3 -4 22 0 25 2 35 4 23 2 -13 2 -33 0 -45z m43 2 l0
-60 -49 0 c-28 0 -53 5 -56 10 -4 6 13 10 44 10 l51 0 0 50 c0 28 2 50 5 50 3
0 5 -27 5 -60z m955 0 c3 -4 -2 -13 -10 -20 -13 -11 -14 -10 -9 4 4 10 1 16
-9 16 -9 0 -18 4 -21 9 -3 4 6 6 19 3 14 -2 27 -8 30 -12z m-138 -22 c-3 -8
-6 -5 -6 6 -1 11 2 17 5 13 3 -3 4 -12 1 -19z m-960 -33 c0 -8 -4 -12 -9 -9
-5 3 -6 10 -3 15 9 13 12 11 12 -6z m203 -15 c0 -5 -5 -10 -11 -10 -5 0 -7 5
-4 10 3 6 8 10 11 10 2 0 4 -4 4 -10z m-479 -47 c13 -16 12 -17 -3 -4 -17 13
-22 21 -14 21 2 0 10 -8 17 -17z m-83 -275 c-52 -47 -71 -59 -31 -20 23 23 45
42 49 42 4 0 -4 -10 -18 -22z m901 -53 c0 -5 -4 -3 -9 5 -5 8 -9 22 -9 30 0
16 17 -16 18 -35z m-115 -7 c14 -23 -3 -52 -32 -56 -29 -4 -51 40 -32 63 16
20 49 16 64 -7z m-647 -10 c-3 -8 -6 -5 -6 6 -1 11 2 17 5 13 3 -3 4 -12 1
-19z m783 -33 c0 -5 -5 -3 -10 5 -5 8 -10 20 -10 25 0 6 5 3 10 -5 5 -8 10
-19 10 -25z m-840 -209 c0 -2 -9 -6 -20 -9 -11 -3 -18 -1 -14 4 5 9 34 13 34
5z"/>
<path d="M2010 2495 c-19 -7 -28 -14 -20 -14 8 0 29 6 45 14 39 17 21 18 -25
0z"/>
<path d="M1975 2446 c-82 -34 -166 -69 -185 -79 -19 -9 -93 -39 -165 -66 -136
-52 -308 -123 -385 -160 -44 -21 -44 -22 -10 -16 19 4 73 23 120 42 103 43
175 69 215 76 24 5 21 3 -13 -13 -38 -17 -42 -22 -37 -47 5 -28 5 -28 -5 -3
-14 32 -14 32 -44 24 l-27 -6 38 -33 c27 -23 41 -29 46 -21 6 7 7 4 3 -6 -3
-10 -2 -18 1 -18 15 0 143 64 143 71 0 5 7 6 15 3 18 -7 19 0 5 27 -6 10 -8
19 -6 19 3 0 11 -11 18 -24 l13 -24 91 54 c82 49 91 57 86 80 -3 19 -9 23 -21
18 -9 -3 -54 -20 -101 -36 -47 -16 -93 -39 -102 -50 -10 -11 -18 -15 -18 -8 0
8 -9 10 -27 6 -16 -3 -22 -3 -15 0 6 3 10 9 7 14 -3 4 1 8 8 7 34 -1 48 4 41
15 -4 7 -3 8 5 4 14 -9 97 17 173 55 32 16 59 29 61 29 2 0 1 -16 -1 -35 -2
-19 -1 -35 2 -35 4 0 40 31 81 70 40 38 95 83 121 100 69 44 38 36 -131 -34z"/>
<path d="M3038 2463 c7 -3 16 -2 19 1 4 3 -2 6 -13 5 -11 0 -14 -3 -6 -6z"/>
<path d="M1855 2445 c-39 -17 -21 -18 25 0 19 7 28 14 20 14 -8 0 -28 -6 -45
-14z"/>
<path d="M2020 2385 c-47 -41 -94 -82 -105 -92 -10 -9 -26 -18 -35 -18 -15 -1
-130 -71 -130 -79 0 -2 28 2 62 10 67 16 164 63 204 100 14 13 28 24 32 24 6
0 119 74 130 85 4 4 -59 45 -68 45 -3 0 -43 -34 -90 -75z"/>
<path d="M2830 2451 c0 -5 8 -12 19 -16 18 -6 101 -97 101 -112 0 -4 -31 23
-68 60 -66 65 -69 67 -85 49 -16 -18 -16 -20 0 -34 43 -37 136 -89 150 -84 9
4 23 0 32 -7 9 -8 39 -27 66 -43 l50 -29 -50 58 c-54 63 -93 93 -114 89 -7 -2
-10 1 -7 7 3 5 -6 19 -21 30 -16 11 -33 25 -40 31 -15 13 -33 13 -33 1z"/>
<path d="M3080 2450 c8 -5 22 -9 30 -9 10 0 8 3 -5 9 -27 12 -43 12 -25 0z"/>
<path d="M4732 2357 c-13 -110 -47 -265 -86 -387 -13 -41 -36 -113 -51 -160
-42 -134 -62 -183 -158 -380 -90 -185 -177 -325 -268 -432 -46 -53 -59 -78
-41 -78 8 0 92 98 158 185 110 143 290 518 325 677 6 32 15 55 19 53 10 -6 64
201 89 340 19 106 37 285 29 285 -3 0 -10 -46 -16 -103z"/>
<path d="M3145 2431 c11 -4 36 -11 55 -15 24 -4 29 -3 15 3 -11 4 -36 11 -55
15 -24 4 -29 3 -15 -3z"/>
<path d="M1740 2400 c-8 -5 -10 -10 -5 -10 6 0 17 5 25 10 8 5 11 10 5 10 -5
0 -17 -5 -25 -10z"/>
<path d="M3250 2400 c8 -5 22 -9 30 -9 10 0 8 3 -5 9 -27 12 -43 12 -25 0z"/>
<path d="M1685 2380 c-11 -5 -71 -30 -133 -56 -62 -25 -111 -48 -110 -50 4 -3
268 103 277 111 7 8 -12 5 -34 -5z"/>
<path d="M3065 2293 c33 -32 60 -61 60 -65 0 -3 4 -10 9 -15 5 -5 6 -3 2 5 -8
14 37 16 69 2 17 -7 16 -9 -10 -9 -29 -1 -29 -1 -9 -16 31 -21 116 -51 229
-80 125 -31 127 -31 79 3 -60 41 -82 52 -103 52 -50 0 -172 23 -160 31 7 4 26
5 41 2 49 -10 30 11 -39 46 l-67 33 -18 -22 c-10 -12 -18 -17 -18 -12 0 6 5
14 10 17 20 12 9 26 -37 46 -99 43 -101 42 -38 -18z"/>
<path d="M1345 2235 c-38 -18 -65 -34 -60 -34 6 0 42 15 80 34 39 18 66 33 60
33 -5 1 -41 -14 -80 -33z"/>
<path d="M3010 2240 c0 -5 -10 -10 -22 -11 -13 0 15 -11 62 -24 47 -13 86 -22
88 -20 2 2 -6 6 -18 10 -12 4 -38 18 -57 31 -39 26 -53 30 -53 14z"/>
<path d="M3506 2223 c-8 -20 -3 -25 18 -17 20 8 21 20 2 27 -8 3 -17 -1 -20
-10z"/>
<path d="M291 2164 c-2 -92 45 -303 62 -283 9 9 -15 160 -37 239 -22 77 -25
81 -25 44z"/>
<path d="M3492 2185 c-18 -8 -31 -18 -29 -23 3 -4 26 -22 51 -40 l46 -33 0 28
c0 15 9 39 20 53 l20 25 -15 -38 c-23 -56 -14 -66 14 -17 19 35 21 44 10 51
-21 13 -80 10 -117 -6z"/>
<path d="M1427 2173 c6 -15 4 -16 -8 -6 -8 6 -20 8 -27 4 -22 -13 44 -86 78
-86 15 0 26 3 23 8 -5 9 11 9 20 0 11 -10 56 -12 62 -2 4 5 19 9 34 9 52 0
241 78 212 88 -7 2 -17 -1 -21 -7 -4 -7 -17 -10 -31 -6 -27 6 -139 -28 -150
-47 -4 -6 -27 -17 -52 -23 -44 -11 -44 -11 -76 27 -38 45 -74 68 -64 41z"/>
<path d="M1040 2157 c0 -54 94 -240 153 -298 15 -16 62 -16 71 0 3 4 -31 49
-75 101 -44 52 -96 124 -114 160 -29 55 -34 61 -35 37z"/>
<path d="M3150 2176 c0 -2 7 -7 16 -10 8 -3 12 -2 9 4 -6 10 -25 14 -25 6z"/>
<path d="M1337 2143 c-9 -2 -15 -9 -12 -14 4 -5 -4 -9 -17 -9 -22 0 -64 -20
-42 -20 6 0 20 -18 33 -40 12 -22 26 -42 32 -45 9 -6 99 40 99 51 0 2 -12 22
-26 44 -26 39 -32 42 -67 33z"/>
<path d="M4430 2110 c-8 -5 -38 -10 -66 -10 -39 0 -61 -6 -90 -27 -21 -14 -56
-30 -76 -35 -36 -8 -128 -86 -128 -108 0 -6 -6 -10 -13 -10 -22 0 -128 -102
-142 -137 -18 -43 -63 -61 -205 -80 -78 -11 -123 -22 -140 -35 -14 -10 -45
-34 -70 -53 -25 -19 -62 -46 -84 -61 -38 -26 -39 -26 -78 -8 -21 9 -51 18 -66
20 -196 16 -242 16 -242 3 0 -8 13 -50 29 -94 l28 -80 109 -56 c60 -30 132
-68 160 -84 l52 -29 75 23 c70 22 80 23 139 11 74 -15 166 -58 280 -133 46
-30 97 -61 113 -69 70 -36 66 -38 156 88 94 130 172 246 194 285 l14 26 -62 0
c-34 1 -78 -5 -97 -13 -54 -21 -208 -64 -230 -64 -11 0 -29 5 -39 12 -21 13
-197 -4 -233 -23 -36 -19 -42 -3 -7 23 40 30 146 52 232 49 33 -1 64 3 71 8 7
6 33 18 57 26 24 9 61 28 82 42 36 25 40 26 85 14 124 -33 159 -23 181 50 7
24 26 71 42 104 15 33 36 89 44 125 9 36 23 86 32 112 16 46 16 47 -6 65 -15
12 -24 33 -28 63 -8 66 -33 86 -73 60z"/>
<path d="M1176 2102 c-3 -2 -2 -12 3 -21 5 -9 11 -33 15 -54 6 -34 10 -38 29
-33 12 3 37 6 55 6 l34 0 -34 47 c-24 34 -43 49 -66 54 -17 3 -34 4 -36 1z"/>
<path d="M2372 2047 c-71 -58 -68 -67 20 -67 l58 0 -1 55 c-1 31 -4 57 -8 59
-3 2 -34 -19 -69 -47z"/>
<path d="M2473 2053 c9 -2 25 -2 35 0 9 3 1 5 -18 5 -19 0 -27 -2 -17 -5z"/>
<path d="M3515 2041 c3 -7 -34 -52 -87 -104 -90 -89 -183 -159 -278 -207 -25
-12 -48 -27 -51 -32 -3 -5 -9 -9 -13 -8 -4 1 -24 -5 -46 -14 -39 -15 -39 -15
-24 -45 16 -32 47 -41 139 -40 126 2 345 168 478 364 22 33 45 63 50 67 6 3
-12 9 -39 13 -133 16 -136 17 -129 6z"/>
<path d="M2464 2028 c-2 -4 8 -9 23 -11 l28 -4 -27 -2 c-16 0 -28 -5 -28 -10
0 -4 12 -6 26 -3 19 3 25 1 20 -7 -4 -6 -2 -11 3 -11 6 0 11 12 11 28 0 22 -4
27 -26 27 -14 0 -28 -3 -30 -7z"/>
<path d="M1249 1918 c46 -59 64 -64 110 -30 20 14 38 27 40 28 1 2 -4 13 -13
26 -15 21 -24 23 -95 23 l-78 0 36 -47z"/>
<path d="M2465 1910 c3 -5 14 -10 23 -11 11 -1 8 -4 -8 -9 -24 -8 -24 -8 -2
-9 28 -1 29 -17 1 -26 -29 -10 -17 -17 15 -9 14 3 23 10 20 16 -3 5 2 20 10
33 l16 25 -40 0 c-25 0 -39 -4 -35 -10z"/>
<path d="M2480 1830 c-25 -8 -25 -8 5 -10 l30 -2 -30 -8 -30 -8 33 -1 c26 -1
32 3 32 19 0 22 -2 22 -40 10z"/>
<path d="M2376 1761 l-60 -66 52 -8 c68 -11 83 0 81 62 -3 84 -8 85 -73 12z"/>
<path d="M2530 1772 c0 -51 3 -60 23 -70 31 -15 117 -24 117 -12 0 6 -4 10
-10 10 -5 0 -10 5 -10 11 0 17 -91 119 -106 119 -10 0 -14 -15 -14 -58z"/>
<path d="M2473 1783 c9 -2 25 -2 35 0 9 3 1 5 -18 5 -19 0 -27 -2 -17 -5z"/>
<path d="M2460 1760 c0 -5 14 -10 30 -10 17 0 30 5 30 10 0 6 -13 10 -30 10
-16 0 -30 -4 -30 -10z"/>
<path d="M2473 1733 c9 -2 25 -2 35 0 9 3 1 5 -18 5 -19 0 -27 -2 -17 -5z"/>
<path d="M2473 1713 c9 -2 25 -2 35 0 9 3 1 5 -18 5 -19 0 -27 -2 -17 -5z"/>
<path d="M2046 1695 c-9 -26 -7 -32 5 -12 6 10 9 21 6 23 -2 3 -7 -2 -11 -11z"/>
<path d="M2460 1685 c0 -10 10 -15 33 -14 30 1 30 1 7 8 l-25 8 25 5 c22 5 21
5 -7 7 -23 1 -33 -3 -33 -14z"/>
<path d="M2017 1616 c-12 -34 -13 -47 -4 -52 7 -4 9 -4 5 0 -3 4 0 26 8 48 8
23 12 43 10 45 -2 2 -11 -16 -19 -41z"/>
<path d="M2460 1650 c0 -5 14 -10 30 -10 17 0 30 5 30 10 0 6 -13 10 -30 10
-16 0 -30 -4 -30 -10z"/>
<path d="M2890 1633 c0 -10 31 -98 69 -195 8 -22 8 -26 -4 -21 -8 3 -13 9 -10
13 10 16 -18 60 -54 82 -30 20 -46 23 -93 20 -32 -2 -58 -8 -58 -12 0 -11 65
-24 78 -16 5 3 20 -6 33 -21 13 -14 38 -32 54 -39 23 -10 26 -13 10 -14 -19
-1 -19 -2 4 -20 27 -23 61 -26 61 -5 0 16 -64 197 -79 223 -6 9 -11 12 -11 5z"/>
<path d="M2465 1620 c-3 -6 5 -10 19 -10 14 0 28 5 31 10 3 6 -5 10 -19 10
-14 0 -28 -4 -31 -10z"/>
<path d="M2479 1591 c11 -7 11 -9 0 -14 -8 -3 -4 -6 9 -6 13 -1 22 5 22 14 0
9 -9 15 -22 15 -17 0 -19 -3 -9 -9z"/>
<path d="M2480 1551 l25 -8 -25 -5 c-25 -5 -25 -5 3 -7 18 -1 27 4 27 14 0 10
-9 15 -27 14 l-28 -1 25 -7z"/>
<path d="M1965 1540 c3 -5 8 -10 11 -10 2 0 4 5 4 10 0 6 -5 10 -11 10 -5 0
-7 -4 -4 -10z"/>
<path d="M1986 1531 c-5 -7 -20 -9 -42 -5 -27 5 -34 3 -34 -9 0 -27 -20 -30
-44 -8 -33 31 -57 26 -107 -20 -53 -49 -62 -54 -114 -64 -22 -4 -65 -21 -96
-38 -53 -29 -57 -30 -73 -14 -20 20 -39 21 -67 6 -15 -7 -28 -6 -50 5 -28 14
-34 14 -52 1 -24 -17 -63 -20 -72 -5 -8 13 -145 80 -164 80 -9 0 -47 -6 -86
-15 -38 -8 -88 -17 -109 -21 l-39 -6 29 -19 c16 -11 40 -25 53 -30 43 -18 15
-20 -59 -4 -60 13 -79 13 -109 3 -20 -7 -38 -14 -40 -15 -2 -2 9 -20 26 -41
16 -20 56 -82 88 -137 32 -55 60 -94 63 -87 6 18 133 71 173 72 9 0 42 14 73
30 53 29 64 31 152 29 75 -1 98 2 112 15 10 8 32 19 49 22 25 5 33 2 42 -14
14 -26 68 -42 141 -42 30 0 77 -7 104 -15 27 -8 79 -15 116 -15 38 0 84 -7
105 -16 20 -8 104 -24 186 -34 308 -41 594 -94 716 -135 40 -14 114 -29 165
-35 51 -6 110 -15 132 -21 33 -9 58 -6 45 5 -17 15 -176 86 -193 86 -36 0 -66
12 -66 25 0 7 16 20 35 29 19 9 37 21 40 26 3 6 23 10 43 10 26 1 32 3 22 9
-23 13 -118 -5 -174 -34 -41 -21 -63 -25 -130 -25 -45 1 -97 7 -116 14 -171
66 -255 82 -470 92 -74 3 -137 8 -139 10 -2 2 52 4 120 4 91 1 129 4 143 15
17 13 16 15 -17 44 -19 17 -37 43 -40 58 -4 18 -16 32 -35 41 -17 7 -32 22
-35 32 -3 11 -12 20 -21 20 -9 0 -16 4 -16 8 0 21 -42 53 -62 47 -21 -7 -58
19 -58 40 0 22 -36 60 -44 46z"/>
<path d="M2050 1523 c0 -4 5 -15 10 -23 8 -13 10 -13 10 2 0 9 -4 20 -10 23
-5 3 -10 3 -10 -2z"/>
<path d="M2094 1513 c-20 -14 -12 -43 14 -50 13 -3 63 -3 111 0 64 4 100 1
141 -11 32 -9 47 -17 37 -20 -10 -2 -37 3 -60 10 -25 8 -54 11 -72 7 -16 -4
-49 -7 -72 -8 -44 -1 -57 -16 -25 -28 26 -10 102 -86 102 -103 0 -28 69 -90
100 -90 l29 0 4 103 c3 99 3 98 5 -30 1 -81 6 -133 12 -133 6 0 10 52 10 135
l0 135 73 0 c39 0 78 -4 86 -9 11 -7 12 -34 7 -140 -8 -147 -12 -140 69 -121
22 5 80 14 130 20 96 12 119 22 87 39 -34 18 -53 42 -48 60 12 36 -111 66
-194 48 -34 -8 -34 -7 -15 9 16 14 17 16 3 11 -28 -10 -21 18 7 31 39 18 118
14 170 -8 50 -22 91 -25 115 -10 8 5 12 10 10 12 -3 2 -14 8 -25 14 -11 6 -34
31 -51 55 -25 36 -36 43 -57 41 -15 -2 -39 5 -55 17 -28 19 -31 19 -98 4 -38
-8 -77 -15 -88 -15 -14 1 -17 -5 -13 -24 4 -23 2 -24 -49 -24 -53 0 -53 0 -44
25 8 22 7 25 -13 26 -25 1 -192 16 -277 24 -30 3 -60 2 -66 -2z"/>
<path d="M2445 1510 c-16 -7 -17 -9 -3 -9 9 -1 20 4 23 9 7 11 7 11 -20 0z"/>
<path d="M1534 1444 c-18 -14 -18 -15 4 -4 12 6 22 13 22 15 0 8 -5 6 -26 -11z"/>
<path d="M702 1423 c-18 -2 -30 -9 -27 -14 9 -14 41 -11 55 6 7 8 11 14 9 13
-2 0 -19 -3 -37 -5z"/>
<path d="M2789 1344 c19 -8 36 -12 39 -9 5 5 -43 25 -61 25 -7 -1 3 -7 22 -16z"/>
<path d="M2913 1342 c-52 -21 -68 -37 -28 -28 17 4 32 12 33 17 2 5 12 9 22 9
10 0 22 5 25 10 8 14 -3 12 -52 -8z"/>
<path d="M2544 1255 c0 -55 1 -76 3 -47 2 29 2 74 0 100 -2 26 -3 2 -3 -53z"/>
<path d="M2998 1314 c-15 -8 -54 -17 -88 -21 -67 -7 -64 -14 15 -46 38 -15 39
-16 11 -16 -49 -1 -22 -12 77 -31 79 -15 102 -16 135 -7 57 17 58 21 10 43
-24 10 -61 35 -83 56 -46 43 -41 42 -77 22z"/>
<path d="M3293 1203 c9 -2 23 -2 30 0 6 3 -1 5 -18 5 -16 0 -22 -2 -12 -5z"/>
<path d="M2375 1180 c-3 -5 -1 -10 4 -10 6 0 11 5 11 10 0 6 -2 10 -4 10 -3 0
-8 -4 -11 -10z"/>
<path d="M2898 1174 c-3 -3 -52 -9 -107 -13 -56 -4 -107 -13 -112 -18 -7 -7
-2 -9 17 -5 20 4 25 1 22 -9 -2 -8 -22 -16 -44 -19 -36 -5 -37 -6 -15 -14 44
-15 148 -10 166 8 30 30 57 38 139 43 44 2 92 7 106 10 l25 6 -25 7 c-30 9
-164 12 -172 4z"/>
<path d="M1435 1160 c3 -5 18 -10 33 -9 24 0 25 1 7 9 -28 12 -47 12 -40 0z"/>
<path d="M3810 1130 c0 -11 59 -44 66 -37 6 6 -45 47 -57 47 -5 0 -9 -4 -9
-10z"/>
<path d="M3530 1078 c0 -15 11 -32 28 -45 38 -28 172 -98 172 -90 0 4 -131
110 -167 136 l-33 22 0 -23z"/>
<path d="M3650 1090 c0 -24 66 -70 146 -101 102 -39 210 -47 239 -18 14 14 9
20 -56 63 -39 26 -68 42 -64 35 6 -9 2 -10 -16 -5 -13 3 -44 9 -69 12 l-45 5
40 -35 c45 -40 33 -46 -34 -16 -24 11 -49 20 -56 20 -7 0 -29 11 -49 25 -20
13 -36 20 -36 15z"/>
<path d="M3210 1051 c0 -6 -16 -7 -37 -4 -26 4 -34 3 -29 -5 4 -7 12 -12 18
-12 7 0 56 -22 109 -50 97 -49 122 -52 94 -14 -16 23 -155 99 -155 85z"/>
<path d="M3405 1025 c17 -7 48 -16 70 -20 38 -6 39 -5 15 8 -14 8 -45 17 -70
19 -44 6 -44 5 -15 -7z"/>
<path d="M857 975 c28 -39 193 -202 193 -191 0 18 -50 74 -131 147 -46 41 -74
61 -62 44z"/>
<path d="M2050 980 c0 -6 7 -10 15 -10 8 0 15 2 15 4 0 2 -7 6 -15 10 -8 3
-15 1 -15 -4z"/>
<path d="M3436 979 c12 -20 144 -60 144 -44 0 9 -61 33 -109 44 -24 5 -39 5
-35 0z"/>
<path d="M990 961 c0 -16 38 -23 60 -11 29 16 25 20 -20 20 -22 0 -40 -4 -40
-9z"/>
<path d="M1220 920 c20 -13 7 -22 -43 -31 -28 -6 -14 -7 43 -4 118 7 160 15
160 31 0 11 -20 14 -87 14 -58 0 -83 -3 -73 -10z"/>
<path d="M3920 758 c-236 -186 -380 -272 -630 -376 -403 -168 -749 -198 -1205
-107 -288 58 -442 120 -733 295 -159 96 -209 114 -100 37 118 -84 312 -190
425 -233 383 -145 758 -200 1085 -160 413 52 804 229 1165 528 76 63 101 88
90 88 -3 0 -46 -33 -97 -72z"/>
<path d="M1924 4908 c-4 -7 -3 -8 4 -4 7 4 12 2 12 -3 0 -6 4 -11 8 -11 5 0 9
7 9 15 0 18 -23 20 -33 3z"/>
<path d="M1707 4836 c-4 -10 -1 -13 8 -9 8 3 12 9 9 14 -7 12 -11 11 -17 -5z"/>
<path d="M1514 4789 c-3 -5 -4 -9 -2 -10 2 0 17 -3 33 -5 24 -4 28 -3 18 7
-16 16 -41 20 -49 8z"/>
<path d="M1495 4759 c-4 -6 -5 -12 -2 -15 2 -3 7 2 10 11 7 17 1 20 -8 4z"/>
<path d="M1186 4564 c-6 -16 2 -18 22 -5 11 7 11 9 -1 14 -9 3 -18 -1 -21 -9z"/>
<path d="M1120 4524 c0 -13 -3 -14 -14 -5 -11 9 -16 9 -22 0 -4 -8 -3 -9 4 -5
7 4 12 2 12 -3 0 -6 -7 -11 -16 -11 -8 0 -13 -4 -10 -9 4 -5 0 -12 -6 -14 -8
-3 -8 -6 -2 -6 6 -1 21 8 34 19 13 11 27 20 32 20 5 0 7 4 4 9 -4 5 0 12 6 14
8 3 6 6 -4 6 -10 1 -18 -6 -18 -15z"/>
<path d="M1018 4463 c6 -3 9 -9 6 -15 -4 -6 -1 -9 6 -6 23 7 21 24 -2 25 -13
0 -17 -1 -10 -4z"/>
<path d="M3968 4430 c9 -10 18 -13 20 -9 6 14 -2 23 -20 24 -17 2 -17 1 0 -15z"/>
<path d="M4121 4288 c94 -86 116 -101 125 -86 4 7 4 10 -1 6 -12 -11 -35 11
-35 33 0 11 -5 19 -11 19 -5 0 -7 5 -4 10 5 9 -7 14 -26 12 -4 -1 -23 14 -42
32 -19 18 -43 33 -52 33 -11 0 6 -21 46 -59z"/>
<path d="M849 4309 c-13 -10 -28 -15 -34 -12 -5 3 -4 0 3 -8 14 -16 16 -33 2
-24 -5 3 -10 -1 -10 -9 0 -9 -5 -16 -12 -16 -6 0 -8 -3 -5 -7 9 -9 47 27 58
55 5 13 13 21 18 18 5 -3 14 0 20 7 16 21 -12 17 -40 -4z"/>
<path d="M4256 4161 c-3 -5 2 -15 12 -22 15 -12 16 -12 5 2 -7 9 -10 19 -6 22
3 4 4 7 0 7 -3 0 -8 -4 -11 -9z"/>
<path d="M679 4093 c-13 -16 -12 -17 4 -4 9 7 17 15 17 17 0 8 -8 3 -21 -13z"/>
<path d="M4330 4055 c7 -8 16 -12 21 -9 13 8 1 24 -18 24 -13 0 -13 -3 -3 -15z"/>
<path d="M566 3947 c3 -10 9 -15 12 -12 3 3 0 11 -7 18 -10 9 -11 8 -5 -6z"/>
<path d="M4481 3843 c16 -27 26 -29 26 -8 0 8 -3 13 -5 10 -3 -3 -12 1 -20 8
-13 11 -14 9 -1 -10z"/>
<path d="M4517 3804 c-8 -8 14 -54 26 -54 6 0 7 -3 4 -6 -4 -4 2 -19 12 -33
10 -14 21 -33 25 -41 3 -8 4 2 2 23 -3 23 -14 47 -26 57 -12 10 -21 21 -21 24
4 32 -6 46 -22 30z"/>
<path d="M395 3690 c-3 -5 -2 -10 4 -10 5 0 13 5 16 10 3 6 2 10 -4 10 -5 0
-13 -4 -16 -10z"/>
<path d="M4596 3651 c-4 -5 -2 -12 3 -15 5 -4 12 -2 15 3 4 5 2 12 -3 15 -5 4
-12 2 -15 -3z"/>
<path d="M4610 3612 c0 -7 7 -15 15 -18 8 -4 13 -10 10 -14 -4 -7 32 -100 39
-100 2 0 2 18 1 41 -2 31 -10 49 -34 72 -17 18 -31 26 -31 19z"/>
<path d="M4684 3460 c3 -8 9 -23 12 -32 4 -10 10 -18 16 -18 9 0 0 20 -22 50
-10 13 -11 13 -6 0z"/>
<path d="M4730 3335 c0 -5 5 -17 10 -25 5 -8 10 -10 10 -5 0 6 -5 17 -10 25
-5 8 -10 11 -10 5z"/>
<path d="M252 3310 c0 -14 2 -19 5 -12 2 6 2 18 0 25 -3 6 -5 1 -5 -13z"/>
<path d="M4776 3210 c5 -8 9 -19 10 -25 0 -5 2 -19 3 -30 2 -18 3 -17 12 4 8
20 6 29 -12 45 -12 12 -18 14 -13 6z"/>
<path d="M4801 3094 c0 -11 3 -14 6 -6 3 7 2 16 -1 19 -3 4 -6 -2 -5 -13z"/>
<path d="M4853 2710 c0 -25 2 -35 4 -22 2 12 2 32 0 45 -2 12 -4 2 -4 -23z"/>
<path d="M133 2315 c0 -22 2 -30 4 -17 2 12 2 30 0 40 -3 9 -5 -1 -4 -23z"/>
<path d="M4852 2300 c0 -14 2 -19 5 -12 2 6 2 18 0 25 -3 6 -5 1 -5 -13z"/>
<path d="M4821 2064 c0 -11 3 -14 6 -6 3 7 2 16 -1 19 -3 4 -6 -2 -5 -13z"/>
<path d="M172 2050 c0 -14 2 -19 5 -12 2 6 2 18 0 25 -3 6 -5 1 -5 -13z"/>
<path d="M4666 1573 c-6 -14 -5 -15 5 -6 7 7 10 15 7 18 -3 3 -9 -2 -12 -12z"/>
<path d="M4521 1284 c-14 -33 -12 -37 13 -18 12 8 15 14 7 14 -11 0 -11 3 -1
15 7 8 8 15 3 15 -5 0 -15 -12 -22 -26z"/>
<path d="M660 970 c12 -16 26 -30 31 -30 12 0 -32 59 -44 59 -5 1 1 -12 13
-29z"/>
<path d="M4330 975 c-11 -13 -10 -14 4 -9 9 3 16 10 16 15 0 13 -6 11 -20 -6z"/>
<path d="M4219 853 c-13 -16 -12 -17 4 -4 16 13 21 21 13 21 -2 0 -10 -8 -17
-17z"/>
<path d="M3955 605 c-27 -24 -45 -44 -38 -45 6 0 19 9 27 21 9 13 19 18 27 14
8 -5 10 -4 5 3 -4 7 -3 12 1 12 5 0 14 9 21 20 17 27 14 26 -43 -25z"/>
<path d="M3860 529 c-22 -18 -22 -19 -3 -10 12 6 25 16 28 21 9 15 3 12 -25
-11z"/>
<path d="M1138 513 c6 -2 10 -9 6 -14 -3 -5 -1 -9 4 -9 4 0 18 -9 29 -20 18
-16 22 -17 27 -4 3 9 -1 17 -12 21 -9 4 -23 13 -30 20 -7 7 -19 13 -25 12 -8
0 -8 -2 1 -6z"/>
<path d="M3625 380 c-3 -6 1 -7 9 -4 18 7 21 14 7 14 -6 0 -13 -4 -16 -10z"/>
<path d="M1385 340 c3 -5 13 -10 21 -10 8 0 12 5 9 10 -3 6 -13 10 -21 10 -8
0 -12 -4 -9 -10z"/>
<path d="M1958 143 c7 -3 16 -2 19 1 4 3 -2 6 -13 5 -11 0 -14 -3 -6 -6z"/>
</g>
</svg>
