<?xml version="1.0" standalone="no"?>
<!DOCTYPE svg PUBLIC "-//W3C//DTD SVG 20010904//EN"
 "http://www.w3.org/TR/2001/REC-SVG-20010904/DTD/svg10.dtd">
<svg version="1.0" xmlns="http://www.w3.org/2000/svg"
 width="500.000000pt" height="500.000000pt" viewBox="0 0 500.000000 500.000000"
 preserveAspectRatio="xMidYMid meet" className="animated-logo-svg">

<g transform="translate(0.000000,500.000000) scale(0.100000,-0.100000)"
fill="#000000" stroke="none" className="contact-svg-inner-container path">
<path d="M2423 4833 c31 -2 83 -2 115 0 31 2 5 3 -58 3 -63 0 -89 -1 -57 -3z"/>
<path d="M2248 4823 c6 -2 18 -2 25 0 6 3 1 5 -13 5 -14 0 -19 -2 -12 -5z"/>
<path d="M2445 4820 c-376 -13 -645 -80 -965 -240 -110 -55 -137 -78 -111 -94
15 -10 281 124 281 141 0 9 6 13 15 9 8 -3 68 12 134 33 l119 38 11 -24 c15
-32 14 -41 -1 -20 -12 16 -24 14 -158 -31 -149 -50 -358 -146 -367 -168 -2 -7
1 -22 7 -34 13 -25 6 -38 -12 -23 -7 6 -26 13 -41 17 -24 6 -43 -3 -113 -49
-162 -108 -424 -352 -478 -445 -21 -37 -24 -35 31 -13 8 3 11 -2 8 -15 -2 -11
3 -23 11 -26 18 -7 12 -68 -7 -74 -8 -3 -29 -19 -47 -36 l-34 -31 8 39 c5 30
4 37 -6 31 -10 -6 -11 -2 -6 19 11 45 -19 31 -65 -29 -49 -65 -71 -73 -33 -12
74 117 115 166 255 308 84 85 154 157 155 162 1 4 2 10 3 15 1 4 5 1 10 -6 6
-10 17 -3 44 27 19 21 45 42 56 46 12 3 19 11 16 16 -4 5 -2 9 4 9 6 0 51 23
100 51 79 45 89 54 80 70 -5 11 -12 19 -14 19 -10 0 -172 -109 -195 -132 -14
-13 -38 -32 -55 -43 -50 -31 -271 -254 -352 -355 -42 -52 -81 -99 -87 -105
-46 -41 -188 -282 -255 -431 -62 -139 -102 -266 -135 -424 -25 -123 -48 -308
-46 -372 1 -18 1 -73 0 -123 0 -49 6 -144 15 -210 18 -139 72 -411 87 -439 5
-10 8 -29 5 -42 -2 -13 0 -24 5 -24 5 0 6 -10 3 -22 -4 -15 -3 -18 2 -11 6 9
13 1 22 -25 7 -20 27 -65 43 -100 28 -59 29 -64 12 -76 -12 -9 -14 -15 -6 -20
7 -4 12 -2 12 3 0 25 19 8 44 -40 16 -28 30 -48 33 -46 2 3 -1 15 -7 27 -20
38 -3 33 19 -6 12 -20 20 -43 17 -51 -12 -31 128 -266 236 -394 42 -50 50 -73
16 -43 l-23 19 19 -23 c11 -12 22 -20 25 -17 7 8 121 -107 115 -117 -3 -4 0
-8 6 -8 6 0 8 -5 5 -10 -4 -6 -3 -10 2 -9 27 6 101 -57 97 -83 -1 -9 6 -14 19
-14 11 1 22 -6 24 -14 4 -13 3 -13 -6 0 -5 8 -12 12 -15 9 -3 -3 11 -21 32
-40 21 -19 27 -22 14 -8 -14 16 -19 29 -14 33 6 3 12 2 14 -3 1 -5 38 -37 82
-71 164 -130 376 -248 594 -330 25 -10 30 -15 20 -22 -9 -7 -5 -8 13 -4 14 3
69 -5 121 -19 110 -27 209 -41 235 -31 27 11 -3 26 -50 26 -22 0 -36 4 -32 10
3 5 -20 16 -52 25 -32 8 -119 36 -193 61 -74 25 -142 47 -150 48 -39 6 -224
95 -216 104 13 12 66 10 66 -3 0 -7 42 -31 93 -53 397 -175 911 -241 1292
-167 112 22 277 64 289 74 17 13 56 20 58 10 3 -23 2 -29 -6 -28 -5 0 -13 -5
-17 -13 -8 -11 -10 -11 -18 1 -7 10 -16 11 -42 2 -71 -22 -136 -40 -192 -52
-35 -8 -53 -15 -45 -20 10 -6 9 -9 -2 -13 -38 -12 -94 -17 -99 -8 -4 6 -46 6
-113 -1 -109 -10 -144 -26 -65 -28 l42 -2 -40 -7 c-32 -6 -25 -7 42 -9 45 0
89 -4 99 -8 13 -5 15 -3 9 7 -6 10 4 11 51 7 38 -4 50 -3 34 2 l-25 9 24 1
c13 1 70 13 128 27 58 14 111 23 119 20 10 -4 12 -2 8 6 -5 7 2 9 22 5 16 -3
23 -4 16 -1 -15 7 30 34 54 34 8 0 22 4 32 10 9 5 64 30 122 55 58 25 148 70
202 100 53 30 100 55 105 55 6 0 17 8 27 19 15 16 15 19 1 31 -16 13 -21 40
-6 40 10 0 136 103 193 157 20 20 42 33 49 31 17 -6 -15 -36 -125 -122 -43
-33 -85 -66 -93 -73 -17 -13 -9 -33 13 -33 9 0 12 5 8 12 -4 6 -3 8 3 5 10 -6
174 110 188 133 3 5 11 10 17 10 6 0 1 -12 -13 -27 l-24 -28 27 24 c15 13 25
27 23 32 -6 9 66 70 76 64 4 -3 6 3 5 12 0 9 5 18 13 21 9 3 11 0 6 -9 -5 -8
1 -6 13 5 12 10 19 23 16 28 -7 11 56 79 66 73 4 -3 14 3 21 13 13 15 12 16
-3 3 -10 -7 -18 -10 -18 -6 0 13 133 174 142 172 5 -1 17 9 25 23 l15 25 -21
-25 c-24 -30 -28 -20 -5 15 9 14 21 22 27 18 6 -3 7 -1 3 5 -4 7 20 56 54 109
33 54 65 105 70 113 12 22 117 269 136 321 43 121 104 347 120 449 22 140 25
510 5 633 -29 180 -93 392 -204 680 -15 39 -21 65 -14 62 7 -4 5 -1 -4 7 -9 7
-14 18 -12 25 2 6 -1 15 -8 19 -8 5 -9 3 -4 -6 6 -9 4 -11 -4 -6 -7 5 -10 15
-7 23 3 8 2 12 -3 9 -16 -10 -137 186 -126 204 4 6 1 9 -7 8 -7 -2 -12 5 -12
14 1 10 -3 16 -10 15 -6 -1 -10 6 -10 15 1 10 -2 16 -6 13 -11 -7 -33 22 -26
34 4 5 1 13 -5 17 -8 5 -10 2 -5 -7 4 -8 1 -5 -8 5 -8 10 -13 22 -11 26 3 5
-11 22 -30 39 -19 17 -36 34 -38 38 -1 5 -5 7 -9 6 -5 -2 -7 1 -5 5 3 10 -49
73 -55 67 -2 -3 -33 26 -69 63 l-64 67 65 -60 65 -60 -59 62 c-33 34 -63 60
-68 57 -11 -7 -39 16 -33 26 6 9 -12 23 -34 27 -8 1 -24 12 -35 24 l-21 23 25
-19 25 -20 -19 22 c-10 13 -22 21 -26 18 -4 -2 -16 3 -26 11 -10 9 -12 12 -4
8 13 -7 13 -5 1 9 -15 18 -26 23 -16 7 12 -19 -5 -10 -93 49 -129 86 -163 105
-156 88 3 -8 1 -18 -4 -21 -6 -3 -9 8 -8 28 1 25 -2 32 -13 28 -8 -3 -12 -1
-9 4 4 5 -5 10 -19 10 -17 2 -23 -2 -19 -12 3 -8 0 -11 -10 -7 -15 6 -20 23
-6 23 5 0 9 7 9 15 0 8 -4 12 -9 9 -4 -3 -8 -1 -8 5 0 6 -7 7 -17 4 -11 -4
-14 -3 -9 5 5 8 1 10 -10 5 -12 -4 -15 -3 -10 5 5 8 1 10 -10 5 -12 -4 -15 -3
-10 5 5 8 1 10 -10 5 -12 -4 -15 -3 -10 5 5 8 1 10 -10 5 -10 -3 -15 -2 -12 3
4 5 -4 10 -15 10 -12 1 -94 27 -182 58 -88 30 -169 56 -180 56 -17 0 -18 2 -5
10 11 8 7 9 -14 4 -15 -4 -60 -1 -100 7 -58 11 -66 15 -46 21 15 4 4 5 -25 2
-35 -4 -46 -2 -36 5 10 6 -5 8 -50 5 -45 -3 -58 -1 -44 5 18 9 18 10 -5 9 -14
-1 -119 -5 -235 -8z m-105 -14 c0 -2 -7 -7 -16 -10 -8 -3 -12 -2 -9 4 6 10 25
14 25 6z m-80 -35 c-14 -4 52 -5 145 -3 102 3 213 0 275 -8 74 -8 105 -9 108
-1 2 6 13 11 25 10 21 0 21 -1 2 -9 -23 -9 -26 -8 120 -35 131 -24 343 -98
475 -166 120 -63 157 -86 149 -94 -3 -2 -58 24 -123 59 -182 99 -351 154 -583
191 -198 31 -412 41 -578 26 -177 -16 -199 -20 -266 -41 -47 -14 -59 -15 -59
-4 0 17 56 32 184 48 69 9 87 14 56 15 -33 1 -41 4 -30 11 8 5 40 9 70 9 40
-1 48 -3 30 -8z m657 -17 c-3 -3 -12 -4 -19 -1 -8 3 -5 6 6 6 11 1 17 -2 13
-5z m303 -84 c8 -5 11 -10 5 -10 -5 0 -17 5 -25 10 -8 5 -10 10 -5 10 6 0 17
-5 25 -10z m-1620 -60 c-8 -5 -19 -10 -25 -10 -5 0 -3 5 5 10 8 5 20 10 25 10
6 0 3 -5 -5 -10z m850 -5 c0 -12 -16 -15 -82 -15 -169 -1 -492 -65 -533 -106
-8 -9 -15 -11 -15 -5 0 30 -340 -134 -498 -240 -68 -46 -102 -64 -98 -52 4 13
-6 25 -34 42 -34 22 -38 27 -28 45 11 21 27 35 79 69 26 17 28 17 55 -7 25
-21 30 -22 40 -8 6 8 16 12 23 8 20 -13 -7 -36 -42 -36 -23 0 -28 -3 -20 -11
6 -6 9 -18 6 -26 -3 -8 30 9 73 37 179 117 413 214 639 265 120 27 137 30 295
44 133 13 140 13 140 -4z m294 -6 c47 -6 73 -6 81 1 8 7 15 7 19 1 3 -5 25
-12 49 -16 90 -15 318 -99 456 -167 l144 -71 18 24 c10 13 23 36 29 50 18 42
52 34 164 -39 181 -118 324 -243 468 -410 317 -365 539 -902 555 -1339 3 -79
10 -143 14 -143 14 0 10 -53 -10 -153 -11 -50 -22 -117 -25 -148 -23 -227
-118 -519 -245 -758 -82 -154 -183 -302 -196 -290 -3 4 5 19 18 35 50 61 152
240 218 384 94 204 160 425 189 630 6 47 14 99 16 115 3 17 8 69 11 118 l6 87
-72 0 -71 0 0 -70 c0 -73 -38 -323 -65 -425 -70 -267 -233 -592 -411 -820 -66
-84 -264 -285 -281 -285 -6 0 40 51 101 112 192 195 320 381 442 649 135 295
173 452 181 759 3 130 1 240 -6 300 -27 218 -100 474 -190 661 -49 101 -180
311 -244 391 -181 224 -272 311 -459 436 -358 240 -661 347 -1052 370 -89 5
-121 11 -124 21 -4 12 12 13 99 7 57 -4 135 -11 173 -17z m723 -25 c-3 -3 -12
-4 -19 -1 -8 3 -5 6 6 6 11 1 17 -2 13 -5z m-1007 -33 c0 -16 -11 -19 -87 -25
-286 -23 -515 -81 -732 -186 -428 -209 -740 -518 -942 -935 -119 -245 -181
-478 -194 -725 -6 -110 -5 -123 7 -106 14 18 15 18 21 -5 6 -23 6 -23 25 -3
10 11 22 32 26 48 6 23 9 26 21 16 12 -10 16 -9 21 4 13 34 40 16 35 -23 -2
-7 2 -10 8 -7 5 4 12 2 16 -4 8 -13 81 -13 106 0 24 13 47 59 41 84 -2 11 0
16 7 12 6 -4 11 -3 11 1 0 5 9 14 21 21 12 8 18 9 15 3 -10 -15 33 -24 49 -11
8 7 15 9 15 6 0 -4 10 -1 23 6 12 7 25 11 29 10 5 -1 8 6 9 15 0 13 2 14 6 4
5 -11 7 -11 14 0 6 10 11 11 19 3 7 -7 5 -23 -9 -55 -25 -54 -26 -78 -5 -108
27 -38 90 -61 170 -61 75 0 213 21 299 45 28 8 61 16 75 18 14 2 36 9 50 14
14 6 29 8 35 5 18 -11 63 -1 182 39 147 49 146 50 145 -92 0 -88 -3 -106 -19
-119 -23 -20 -28 -41 -8 -34 8 4 15 10 15 15 0 5 4 9 9 9 29 0 -69 -171 -194
-340 -38 -52 -104 -143 -145 -202 -41 -59 -148 -208 -236 -330 -160 -221 -294
-420 -294 -437 0 -18 123 -127 234 -207 261 -189 505 -302 780 -360 100 -22
157 -27 331 -31 229 -6 349 6 536 52 205 50 479 178 647 301 94 70 254 224
248 240 -4 10 -94 129 -268 354 -83 108 -231 321 -226 326 3 2 49 -58 103
-134 134 -187 296 -393 305 -387 3 2 7 -2 7 -9 0 -17 94 -137 104 -134 4 2 33
32 64 68 l56 65 -45 3 c-32 2 -46 7 -46 18 0 10 14 14 58 14 l58 0 51 78 c48
73 163 281 163 295 0 12 -57 8 -137 -9 -59 -12 -86 -13 -118 -5 -36 9 -58 7
-139 -14 -100 -26 -279 -65 -300 -65 -7 0 -49 52 -95 115 -45 63 -87 114 -93
112 -6 -1 -13 4 -16 12 -3 10 0 11 9 5 12 -7 12 -5 0 9 -16 20 -26 23 -15 5 5
-9 2 -9 -9 1 -20 16 -23 36 -4 25 8 -5 8 -3 -2 9 -7 9 -17 15 -21 12 -4 -3
-20 12 -36 33 l-27 37 28 -25 29 -25 -23 33 c-12 18 -26 30 -31 27 -4 -3 -14
3 -21 13 -13 15 -12 16 4 3 9 -7 17 -10 17 -6 0 12 -63 80 -72 78 -4 -2 -5 3
-3 10 2 6 -10 28 -27 47 -17 19 -27 28 -23 20 5 -9 4 -12 -1 -7 -5 5 -9 16 -9
25 0 9 -6 16 -13 14 -8 -1 -11 2 -8 7 6 9 -56 95 -78 108 -16 9 -86 110 -86
124 0 7 43 14 71 11 3 -1 6 4 7 11 3 41 11 52 35 55 22 3 27 -1 27 -17 0 -13
-5 -19 -14 -15 -8 3 -16 -3 -19 -15 -3 -12 -4 -21 -3 -21 1 0 23 7 48 15 66
23 76 47 49 126 -18 54 -21 88 -20 222 0 86 3 157 6 157 3 0 25 -11 49 -25 45
-26 59 -25 107 7 l27 20 -22 18 c-15 12 -18 19 -9 20 11 0 11 3 0 18 -7 9 -9
14 -5 10 5 -5 16 2 24 13 12 17 16 18 24 8 8 -11 9 -10 4 4 -11 36 22 65 40
35 5 -7 3 -8 -6 -3 -10 6 -11 4 -4 -6 15 -24 15 -49 -1 -49 -8 0 -15 -7 -15
-15 0 -8 5 -15 10 -15 6 0 10 5 10 10 0 6 5 10 11 10 5 0 8 -4 5 -9 -3 -5 1
-11 8 -14 8 -3 17 -1 19 6 7 17 33 -20 47 -65 6 -22 17 -38 25 -38 8 0 15 -7
15 -16 0 -8 5 -12 10 -9 6 3 10 1 10 -4 0 -6 5 -11 11 -11 5 0 7 5 3 12 -5 8
0 9 15 5 20 -5 22 -3 18 19 -2 14 -2 23 0 20 3 -2 14 5 25 16 15 15 17 23 9
31 -8 8 -11 8 -11 -1 0 -7 -5 -12 -11 -12 -12 0 31 59 44 59 5 1 5 -5 1 -11
-6 -10 -4 -10 8 0 15 12 16 9 11 -28 -5 -38 -4 -40 21 -40 14 0 26 -4 26 -10
0 -20 57 -10 74 13 9 12 14 16 10 8 -5 -11 -1 -12 20 -7 17 4 25 3 22 -3 -4
-5 3 -16 14 -24 11 -7 17 -17 13 -20 -3 -4 -1 -7 6 -7 7 0 10 -4 7 -8 -2 -4 3
-8 12 -9 10 -1 22 -3 27 -5 6 -2 10 2 11 7 0 6 -7 9 -18 7 -10 -2 -18 2 -18 7
0 6 7 11 15 11 8 0 15 9 15 19 0 11 5 23 10 26 6 3 10 -1 10 -9 0 -9 6 -16 13
-16 8 0 12 13 11 35 -1 24 2 35 12 35 8 0 14 -4 14 -10 0 -5 15 -12 34 -15 21
-4 38 -16 46 -31 23 -42 47 -31 54 26 7 56 26 59 26 4 0 -19 5 -34 11 -34 15
0 7 -45 -8 -46 -7 -1 -16 -3 -20 -4 -5 -1 -11 -2 -15 -1 -5 0 -8 -7 -8 -16 0
-13 -3 -14 -8 -6 -10 16 -41 -16 -34 -35 3 -9 -3 -10 -23 -2 -37 14 -64 -2
-58 -34 6 -27 24 -30 35 -6 5 12 7 12 7 -2 1 -10 6 -18 11 -18 6 0 10 -7 10
-16 0 -9 6 -14 13 -11 6 2 12 10 12 18 0 8 7 15 15 15 8 1 21 2 28 3 9 1 10 6
2 20 -13 26 -13 31 5 31 8 0 15 -4 15 -9 0 -15 32 -6 45 12 10 14 14 14 26 2
8 -7 21 -15 29 -17 19 -4 39 -21 34 -30 -2 -3 2 -13 10 -21 8 -8 18 -28 21
-43 12 -52 45 -114 61 -114 8 0 12 -4 9 -10 -3 -6 1 -10 9 -10 8 0 16 -10 18
-22 2 -14 12 -24 28 -28 17 -4 21 -8 12 -14 -17 -10 -15 -39 2 -33 18 7 28
-17 13 -32 -8 -8 -7 -11 6 -11 12 0 15 8 13 37 -2 20 0 48 4 62 10 35 -6 235
-19 239 -7 2 -8 10 -2 21 9 17 8 31 -25 196 -56 278 -221 606 -430 855 -277
330 -730 601 -1139 680 -79 15 -308 40 -367 40 -18 0 -3 33 17 36 11 2 72 -1
135 -7 357 -31 641 -134 970 -354 369 -246 653 -615 794 -1035 185 -551 148
-1049 -120 -1583 -105 -209 -233 -385 -396 -547 -123 -122 -271 -250 -290
-250 -7 0 -29 -10 -48 -23 -19 -13 -70 -43 -112 -66 -44 -24 -78 -49 -78 -57
0 -22 26 -12 137 53 52 31 97 52 101 48 4 -3 -1 -12 -11 -19 -24 -18 -21 -33
11 -53 15 -10 31 -23 35 -30 5 -8 14 -10 20 -7 9 5 9 4 1 -6 -17 -18 -49 -4
-79 36 l-26 35 -77 -42 c-42 -23 -84 -48 -93 -56 -9 -7 -18 -10 -22 -7 -3 3
-30 -5 -59 -19 -29 -13 -88 -37 -131 -52 l-78 -28 23 -25 23 -25 -22 12 c-13
6 -23 8 -23 4 0 -4 -7 0 -14 10 -13 17 -18 17 -107 -3 -332 -74 -669 -67 -972
21 -38 11 -82 21 -98 21 -15 1 -26 4 -24 8 3 4 -35 22 -83 40 -48 17 -108 42
-133 56 -26 13 -53 24 -62 24 -8 0 -18 7 -21 16 -3 9 -13 14 -20 11 -8 -3 -17
0 -19 7 -3 7 -30 25 -60 40 -30 16 -89 53 -131 85 -42 31 -94 69 -116 84 -23
16 -40 36 -40 47 0 15 19 4 88 -51 48 -39 110 -85 137 -103 48 -32 257 -146
268 -146 3 0 7 7 10 15 4 10 -22 29 -96 67 -148 77 -299 187 -438 318 -70 66
-129 114 -138 112 -13 -2 -14 -1 -2 7 17 11 18 8 -60 101 -75 89 -184 264
-266 427 -66 131 -76 161 -83 225 -11 105 -50 226 -74 230 -15 2 -23 17 -33
63 -13 59 -13 108 0 75 3 -8 11 -35 17 -59 6 -23 14 -41 16 -38 3 3 1 22 -5
44 -6 21 -11 51 -11 66 0 24 -2 26 -19 17 -18 -9 -20 -5 -28 48 -4 31 -8 147
-8 257 0 234 16 332 91 555 130 386 339 697 631 937 156 128 261 195 448 284
205 97 431 159 650 178 167 14 175 14 175 -8z m1175 -71 c3 -5 1 -10 -4 -10
-6 0 -11 5 -11 10 0 6 2 10 4 10 3 0 8 -4 11 -10z m103 -74 c23 -16 40 -31 38
-34 -5 -5 -106 66 -106 75 0 3 6 1 13 -4 6 -5 31 -22 55 -37z m-1894 -144 c-8
-2 -14 -13 -14 -24 0 -21 -1 -20 -23 3 -20 20 -21 26 -10 40 7 8 13 22 13 30
0 8 11 1 24 -16 19 -23 21 -31 10 -33z m460 -42 c69 -32 89 -37 118 -31 32 7
34 6 31 -13 -4 -18 8 -27 73 -59 42 -21 102 -54 132 -74 36 -23 62 -33 76 -29
12 3 75 24 141 46 212 73 343 101 490 104 72 2 103 2 70 0 -100 -6 -229 -25
-250 -38 -11 -7 -59 -25 -107 -40 -49 -14 -88 -29 -88 -32 0 -2 11 -2 25 2 14
3 25 2 25 -3 0 -5 -66 -31 -147 -57 -243 -78 -381 -128 -365 -134 5 -1 49 11
98 29 209 74 254 89 337 112 57 16 89 21 94 14 3 -5 1 -7 -4 -4 -6 4 -16 0
-23 -8 -10 -12 -9 -15 6 -15 23 0 114 28 95 29 -8 1 -12 3 -10 6 3 2 18 1 35
-4 34 -10 42 -6 -126 -62 -69 -22 -129 -45 -134 -50 -6 -5 24 2 65 15 168 55
272 86 277 81 3 -2 -1 -7 -9 -9 -160 -51 -335 -111 -340 -118 -3 -4 -32 -19
-64 -32 -49 -20 -61 -21 -72 -10 -10 10 -20 11 -41 3 -15 -6 -44 -12 -65 -14
-45 -4 -55 -11 -39 -27 9 -9 12 -9 12 1 0 7 4 10 9 7 5 -3 29 1 54 10 33 11
51 13 65 5 16 -8 37 -3 103 26 100 43 364 133 391 133 10 0 21 -6 24 -14 4
-11 12 -13 31 -5 13 5 30 9 36 8 7 0 -42 -20 -108 -43 -212 -77 -509 -210
-793 -357 -118 -61 -215 -109 -215 -107 -25 51 -42 76 -48 72 -5 -3 -2 -12 6
-20 8 -9 15 -19 15 -22 0 -4 54 -63 120 -130 119 -122 121 -123 152 -113 26 9
29 9 18 -4 -7 -8 -19 -15 -26 -15 -8 0 -14 -3 -14 -6 0 -6 175 -198 198 -218
8 -6 27 -24 43 -41 61 -62 61 -62 47 -68 -10 -5 -9 -9 4 -19 15 -13 13 -17
-18 -54 l-35 -39 6 60 c3 33 9 69 12 80 3 13 2 16 -4 10 -10 -10 -36 -138 -38
-190 -3 -57 -5 -65 -14 -65 -9 0 -6 208 4 266 4 26 0 37 -27 65 -18 19 -68 72
-111 118 -73 80 -78 83 -95 68 -10 -10 -24 -17 -31 -17 -7 0 -1 10 14 23 l25
22 -101 108 c-55 59 -105 104 -111 101 -6 -4 -14 0 -19 7 -24 38 -5 -27 43
-149 46 -116 56 -132 73 -128 18 4 18 4 4 -7 -16 -12 -15 -16 1 -57 31 -83 62
-140 71 -134 5 3 7 9 4 14 -3 5 8 16 26 25 29 16 31 15 27 -2 -2 -10 -11 -17
-21 -17 -9 1 -15 -2 -12 -6 3 -4 -1 -13 -8 -19 -7 -5 -12 -23 -11 -38 3 -45
103 -241 149 -294 21 -24 9 -19 -37 14 -15 11 -34 17 -43 13 -9 -3 -14 -2 -11
3 3 4 -14 18 -36 31 -58 33 -31 37 31 5 47 -23 50 -24 39 -5 -7 11 -31 27 -53
36 -22 9 -42 19 -45 24 -3 4 -23 17 -45 29 -45 25 -19 24 50 -2 38 -15 60 -14
40 1 -6 4 -11 14 -13 22 -2 8 -15 41 -29 72 -18 41 -33 60 -54 69 -28 11 -29
13 -13 31 17 17 16 21 -3 66 -11 26 -25 46 -32 44 -7 -1 -10 2 -7 7 8 12 -32
121 -44 121 -7 0 -227 -128 -287 -167 -13 -9 -23 -10 -27 -4 -4 6 63 52 149
102 85 51 155 98 154 103 -2 26 -66 181 -75 179 -23 -4 -522 -284 -631 -353
-230 -147 -386 -283 -445 -387 -17 -29 -31 -53 -33 -53 -6 0 12 55 29 88 9 17
35 55 59 84 54 68 80 108 73 115 -10 10 71 117 130 173 111 105 351 271 573
399 130 74 167 99 91 61 -76 -38 -289 -169 -405 -248 -199 -136 -321 -244
-383 -337 -41 -62 -40 -54 3 38 31 65 154 227 172 227 4 0 -4 -12 -18 -27
l-24 -28 27 24 c15 13 24 29 22 36 -3 7 25 40 62 74 37 33 63 61 57 61 -5 0
-15 -6 -22 -12 -11 -11 -13 -10 -9 2 3 8 14 15 26 15 12 0 78 38 147 84 108
73 125 88 129 115 3 17 12 72 21 121 24 133 26 197 7 193 -22 -4 -25 -23 -7
-41 17 -18 20 -53 5 -62 -6 -4 -10 7 -10 24 0 17 -5 31 -11 31 -6 0 -9 12 -7
28 2 22 9 28 33 30 17 1 41 8 54 15 19 10 25 9 29 -1 7 -23 32 -40 50 -35 19
5 37 -20 27 -37 -3 -5 0 -12 6 -16 8 -5 9 -3 4 7 -7 12 -6 12 9 0 12 -10 15
-22 11 -40 -4 -15 1 -38 12 -60 10 -20 19 -37 20 -39 1 -3 160 84 171 93 2 1
-18 15 -45 30 -31 19 -48 24 -51 16 -7 -20 -33 -41 -44 -35 -5 4 -1 15 10 28
l20 21 -28 26 c-22 19 -33 23 -51 17 -12 -5 -24 -6 -27 -3 -3 3 0 5 6 5 7 0
12 5 12 10 0 5 -3 9 -7 8 -21 -5 -63 27 -63 47 0 18 -5 22 -30 21 -31 -1 -43
-16 -12 -16 15 0 49 -39 43 -49 -2 -2 3 -7 9 -11 8 -5 8 -9 -3 -13 -10 -4 -17
3 -20 22 -4 20 -13 30 -31 33 -14 3 -23 2 -21 -3 8 -12 -15 -23 -55 -25 -19
-2 -29 0 -21 3 11 5 11 7 0 15 -9 6 -4 7 18 3 25 -5 32 -3 37 13 4 11 3 27 0
37 -6 15 -3 16 17 9 13 -4 44 -7 67 -6 29 2 41 -1 37 -8 -3 -6 3 -10 17 -11
l23 0 -24 -10 -25 -10 32 -19 c30 -19 68 -18 56 1 -3 5 1 7 8 4 7 -2 31 4 53
15 l40 20 -45 -5 c-25 -2 -37 -2 -27 1 9 3 15 9 12 14 -16 26 337 24 460 -3
55 -11 63 -11 93 7 18 10 30 22 25 27 -11 11 -233 129 -241 129 -4 -1 4 -10
17 -20 13 -11 19 -20 13 -20 -6 0 -20 12 -31 26 -12 15 -21 23 -21 18 0 -5 -4
-3 -9 4 -4 7 -14 15 -22 16 -8 2 -25 8 -39 13 -14 6 -28 10 -31 9 -3 0 -13 7
-23 16 -9 10 -24 14 -33 11 -11 -5 -14 -3 -8 6 5 10 2 12 -11 7 -11 -3 -26 -1
-34 5 -12 9 -11 10 5 5 19 -6 19 -5 3 8 -10 7 -18 16 -18 20 0 10 28 0 124
-44z m1106 12 c0 -15 -2 -15 -10 -2 -13 20 -13 33 0 25 6 -3 10 -14 10 -23z
m-480 8 c0 -5 -4 -10 -10 -10 -5 0 -10 5 -10 10 0 6 5 10 10 10 6 0 10 -4 10
-10z m-825 -10 c-3 -5 -18 -10 -33 -9 l-27 1 25 8 c35 11 42 11 35 0z m-77
-17 c-10 -2 -26 -2 -35 0 -10 3 -2 5 17 5 19 0 27 -2 18 -5z m-113 -23 c-3 -5
-11 -10 -16 -10 -6 0 -7 5 -4 10 3 6 11 10 16 10 6 0 7 -4 4 -10z m-51 -32
c-37 -46 -78 -88 -84 -88 -3 0 15 23 42 52 26 29 48 56 48 62 0 5 3 6 7 3 3
-4 -2 -17 -13 -29z m-825 -145 c-138 -143 -186 -202 -282 -349 -165 -254 -291
-575 -322 -821 -4 -33 -12 -53 -20 -53 -10 0 -8 22 6 103 75 417 305 846 618
1155 142 139 142 110 0 -35z m704 72 c22 -16 17 -43 -13 -70 -19 -17 -21 -17
-40 0 -11 10 -23 15 -27 12 -3 -4 -1 -7 5 -7 7 0 12 -3 12 -7 0 -5 -18 -9 -40
-10 -35 -1 -40 2 -40 22 0 36 46 75 89 75 20 0 44 -7 54 -15z m1750 -12 c-7
-2 -19 -2 -25 0 -7 3 -2 5 12 5 14 0 19 -2 13 -5z m-423 -7 c0 -3 -4 -8 -10
-11 -5 -3 -10 -1 -10 4 0 6 5 11 10 11 6 0 10 -2 10 -4z m520 -57 c-52 -4
-117 -12 -144 -18 -27 -7 -51 -10 -53 -7 -3 2 22 9 54 16 32 6 63 13 68 15 6
2 46 3 90 3 l80 -1 -95 -8z m-1934 -17 c6 -4 16 -17 23 -29 11 -21 10 -23 -18
-23 -36 0 -63 36 -40 51 17 11 21 11 35 1z m2589 -12 c10 -11 16 -20 13 -20
-3 0 -13 9 -23 20 -10 11 -16 20 -13 20 3 0 13 -9 23 -20z m-2495 6 c0 -3 -4
-8 -10 -11 -5 -3 -10 -1 -10 4 0 6 5 11 10 11 6 0 10 -2 10 -4z m1627 -12 c-3
-3 -12 -4 -19 -1 -8 3 -5 6 6 6 11 1 17 -2 13 -5z m-1724 -45 c7 -1 1 -4 -12
-8 -14 -4 -27 -13 -29 -21 -4 -12 -2 -13 9 -2 15 14 39 16 39 2 0 -5 -7 -6
-17 -3 -11 4 -14 3 -9 -5 5 -8 0 -12 -13 -12 -14 0 -21 -6 -21 -20 0 -12 -7
-20 -16 -20 -11 0 -14 5 -9 18 4 9 10 26 13 37 8 30 24 47 39 40 8 -3 20 -5
26 -6z m-333 -49 c0 -5 -4 -10 -10 -10 -5 0 -10 5 -10 10 0 6 5 10 10 10 6 0
10 -4 10 -10z m320 -26 c0 -9 -5 -14 -12 -12 -18 6 -21 28 -4 28 9 0 16 -7 16
-16z m70 6 c0 -5 -4 -10 -10 -10 -5 0 -10 5 -10 10 0 6 5 10 10 10 6 0 10 -4
10 -10z m-530 -30 c0 -5 -4 -10 -9 -10 -6 0 -13 5 -16 10 -3 6 1 10 9 10 9 0
16 -4 16 -10z m570 -5 c41 -21 38 -29 -4 -11 -19 8 -37 12 -40 8 -3 -3 -6 0
-6 6 0 16 15 15 50 -3z m-165 -12 c-4 -10 -16 -43 -28 -73 -11 -30 -22 -50
-24 -43 -6 17 37 133 49 133 6 0 7 -8 3 -17z m35 10 c0 -5 -9 -36 -19 -70 -10
-34 -16 -65 -13 -68 3 -3 -4 -8 -17 -12 -12 -3 -18 -9 -13 -12 5 -3 -14 -69
-44 -151 -30 -80 -51 -151 -49 -158 3 -7 0 -10 -5 -7 -6 3 -10 0 -10 -8 0 -8
-7 -20 -15 -27 -23 -19 -20 -5 40 170 64 190 127 350 138 350 4 0 7 -3 7 -7z
m405 -62 c-5 -13 -4 -13 6 -4 14 14 39 0 39 -22 0 -18 -32 -28 -42 -13 -22 33
-28 49 -23 58 10 16 27 0 20 -19z m78 -9 c-6 -14 -25 -12 -30 4 -2 5 5 10 16
10 11 0 17 -5 14 -14z m-1493 -16 c0 -2 -16 -33 -37 -68 -80 -139 -93 -164
-93 -180 0 -24 7 -23 36 10 l25 27 -6 -32 c-5 -25 -3 -33 8 -33 25 0 27 -49 3
-66 -15 -10 -18 -17 -9 -22 8 -5 9 -13 3 -22 -8 -12 -10 -12 -16 3 -3 9 -13
17 -21 17 -8 0 -17 8 -20 18 -2 10 -13 23 -23 30 -17 10 -21 4 -48 -67 -84
-219 -122 -396 -148 -683 -6 -69 -24 -95 -24 -35 0 53 28 277 45 356 23 110
72 274 112 373 34 84 35 87 60 77 22 -8 24 -7 18 8 -4 10 -9 25 -12 33 -4 16
89 214 114 243 15 15 33 23 33 13z m-7 -130 c-4 -18 0 -26 16 -31 12 -3 19
-11 15 -16 -3 -6 -11 -5 -21 2 -11 10 -19 10 -33 1 -17 -11 -18 -9 -8 21 5 18
12 38 14 45 7 23 22 4 17 -22z m707 -40 c0 -11 -19 -15 -25 -6 -3 5 1 10 9 10
9 0 16 -2 16 -4z m364 -22 c15 -38 1 -64 -35 -64 -10 0 -12 63 -2 73 11 12 31
7 37 -9z m1266 -18 c0 -4 -185 -107 -224 -124 -56 -25 -37 -3 31 34 37 20 91
50 118 65 45 26 75 36 75 25z m-2060 -56 c0 -5 -4 -10 -10 -10 -5 0 -10 5 -10
10 0 6 5 10 10 10 6 0 10 -4 10 -10z m3116 -83 c-16 -12 -22 -12 -36 2 -15 14
-15 18 -2 34 15 17 17 17 36 -3 20 -19 20 -20 2 -33z m-601 -37 c3 -5 1 -10
-4 -10 -6 0 -11 5 -11 10 0 6 2 10 4 10 3 0 8 -4 11 -10z m-2840 -149 c-4 -17
-10 -31 -15 -31 -7 0 -5 23 6 59 8 26 16 2 9 -28z m2885 8 c0 -5 -4 -9 -10 -9
-5 0 -10 7 -10 16 0 8 5 12 10 9 6 -3 10 -10 10 -16z m370 -59 c0 -5 -4 -10
-10 -10 -5 0 -10 5 -10 10 0 6 5 10 10 10 6 0 10 -4 10 -10z m-817 -21 c4 -16
3 -18 -9 -8 -16 13 -19 29 -5 29 5 0 11 -9 14 -21z m1167 1 c0 -5 -4 -10 -10
-10 -5 0 -10 5 -10 10 0 6 5 10 10 10 6 0 10 -4 10 -10z m-914 -68 c-18 -16
-18 -16 -6 6 6 13 14 21 18 18 3 -4 -2 -14 -12 -24z m-383 -46 c1 -42 -7 -53
-28 -36 -15 13 -20 56 -9 85 11 27 36 -6 37 -49z m137 60 c0 -3 -4 -8 -10 -11
-5 -3 -10 -1 -10 4 0 6 5 11 10 11 6 0 10 -2 10 -4z m-230 -10 c0 -2 -24 -18
-52 -36 l-53 -31 40 35 c35 30 65 45 65 32z m1430 -6 c0 -5 -4 -10 -10 -10 -5
0 -10 5 -10 10 0 6 5 10 10 10 6 0 10 -4 10 -10z m-1234 -16 c-6 -15 -4 -15
20 1 44 29 40 6 -6 -36 -54 -47 -97 -72 -104 -60 -3 5 12 16 34 25 59 23 48
32 -15 11 l-20 -7 20 17 c11 9 18 19 16 23 -2 4 9 14 25 24 37 21 37 21 30 2z
m739 6 c3 -5 -1 -10 -10 -10 -9 0 -13 5 -10 10 3 6 8 10 10 10 2 0 7 -4 10
-10z m-567 -25 c-3 -3 -9 2 -12 12 -6 14 -5 15 5 6 7 -7 10 -15 7 -18z m42
-10 c-7 -9 -15 -13 -19 -10 -3 3 1 10 9 15 21 14 24 12 10 -5z m-94 -41 c3
-11 4 -73 2 -137 -2 -64 -1 -117 2 -117 11 0 8 -155 -3 -162 -30 -19 -32 -4
-29 207 2 140 0 215 -7 215 -5 0 -9 8 -8 19 1 15 4 17 19 7 10 -6 21 -20 24
-32z m453 -14 c-15 -10 -29 -4 -29 12 0 5 7 8 15 4 8 -3 15 0 16 7 0 8 2 7 6
-2 3 -7 -1 -17 -8 -21z m-707 -9 c4 -30 -33 -116 -45 -104 -4 3 2 18 12 32 10
14 22 33 26 41 8 13 6 13 -8 2 -21 -17 -37 -7 -37 22 0 27 8 36 31 36 11 0 18
-10 21 -29z m288 -51 c11 -7 0 -100 -11 -100 -5 0 -8 42 -7 93 1 50 3 74 5 52
3 -22 8 -42 13 -45z m-620 55 c0 -2 -15 -13 -34 -22 l-34 -18 25 -42 c22 -39
26 -41 49 -31 18 9 23 17 19 37 -3 14 -2 19 1 11 4 -8 13 -20 20 -26 12 -9 8
-14 -18 -25 -18 -7 -39 -19 -45 -25 -13 -12 -8 -44 6 -44 9 0 34 -51 28 -56
-7 -8 -79 105 -73 115 4 5 2 12 -4 16 -6 4 -7 11 -4 17 4 7 2 8 -4 4 -11 -6
-41 40 -31 47 5 3 93 46 97 46 1 1 2 -1 2 -4z m547 -193 l2 -187 -39 45 c-27
32 -34 46 -24 48 22 5 17 20 -21 65 -19 22 -35 44 -35 48 0 3 18 25 39 47 22
23 45 59 52 81 7 23 15 41 18 41 3 0 7 -84 8 -188z m-442 138 c-3 -4 0 -10 6
-12 6 -2 -2 -9 -17 -16 -24 -10 -26 -10 -14 0 9 7 14 21 12 32 -3 11 0 16 7
11 6 -3 9 -10 6 -15z m1292 -16 c-3 -3 -12 -4 -19 -1 -8 3 -5 6 6 6 11 1 17
-2 13 -5z m-1059 -29 c-6 -14 -15 -25 -20 -25 -9 0 -4 14 15 38 15 19 18 14 5
-13z m132 -15 c0 -11 -39 -24 -47 -16 -10 10 18 35 33 29 8 -3 14 -9 14 -13z
m-189 -32 c-10 -11 -11 -9 -5 6 6 15 4 17 -6 11 -9 -6 -11 -4 -5 4 5 9 10 10
18 2 8 -8 7 -14 -2 -23z m1379 3 c0 -5 -7 -11 -15 -15 -15 -5 -20 5 -8 17 9
10 23 9 23 -2z m170 -11 c0 -5 -2 -10 -4 -10 -3 0 -8 5 -11 10 -3 6 -1 10 4
10 6 0 11 -4 11 -10z m-1445 -40 c21 -22 37 -40 34 -40 -3 0 -23 18 -44 40
-21 22 -37 40 -34 40 3 0 23 -18 44 -40z m228 5 c-7 -21 -13 -19 -13 6 0 11 4
18 10 14 5 -3 7 -12 3 -20z m-2453 5 c0 -5 -4 -10 -10 -10 -5 0 -10 5 -10 10
0 6 5 10 10 10 6 0 10 -4 10 -10z m1698 -39 c5 -14 -14 -14 -41 1 -12 7 -33
11 -47 9 -14 -1 -34 5 -45 13 -18 14 -19 15 -2 16 10 0 28 -5 39 -11 18 -9 20
-9 15 4 -5 13 1 13 36 -3 23 -10 43 -24 45 -29z m373 32 c-14 -24 -55 -72 -45
-53 10 20 47 70 51 70 2 0 -1 -8 -6 -17z m-2308 -210 c5 -235 16 -304 77 -511
73 -245 238 -568 403 -787 33 -44 60 -90 60 -102 0 -28 5 -29 24 -5 13 15 13
15 4 -5 -9 -18 -8 -23 8 -28 23 -7 141 -124 141 -139 0 -6 -9 -24 -21 -41
l-20 -30 7 35 c5 29 4 33 -8 23 -9 -8 -19 -9 -28 -3 -12 8 -10 10 7 10 32 0
38 19 15 43 -18 18 -23 19 -39 6 -16 -13 -17 -12 -5 2 10 13 10 19 -2 29 -9 6
-21 8 -28 4 -7 -4 -10 -3 -5 1 9 10 -22 47 -34 39 -5 -3 -6 3 -2 13 6 16 5 17
-12 3 -10 -8 -16 -10 -12 -3 4 6 3 14 -2 18 -6 3 -8 11 -5 18 2 7 -17 42 -44
78 -77 102 -188 271 -224 340 -17 35 -37 71 -44 79 -6 8 -37 78 -68 155 -80
201 -156 475 -156 560 0 19 -3 36 -7 38 -11 6 -111 -8 -119 -16 -12 -12 25
-241 61 -380 18 -73 49 -177 69 -231 36 -102 41 -144 8 -65 -83 197 -134 393
-167 642 -17 132 -20 237 -6 237 5 0 12 -38 16 -85 l7 -85 42 0 c91 0 86 -10
86 186 0 96 4 174 9 174 5 0 11 -98 14 -217z m1702 197 c-3 -5 -16 -10 -28 -9
-21 0 -21 1 -2 9 28 12 37 12 30 0z m689 -31 c-8 -13 -24 -1 -24 18 0 13 3 13
15 3 8 -7 12 -16 9 -21z m-590 -14 c-4 -8 -11 -12 -17 -8 -5 3 -7 1 -4 -5 4
-5 19 -9 34 -7 18 2 46 -10 85 -37 32 -22 58 -42 58 -44 0 -3 -4 -3 -9 0 -5 3
-11 0 -14 -7 -2 -6 -29 -29 -59 -49 -45 -32 -58 -36 -83 -30 -27 7 -30 13 -33
53 -2 24 -1 72 3 106 6 58 8 62 25 53 11 -6 17 -17 14 -25z m-77 3 c-3 -8 -6
-5 -6 6 -1 11 2 17 5 13 3 -3 4 -12 1 -19z m-33 -42 c3 -30 8 -63 11 -73 3
-10 -6 6 -21 35 -14 28 -30 52 -35 52 -6 0 -6 8 1 20 20 37 37 23 44 -34z m63
32 c-3 -8 -6 -5 -6 6 -1 11 2 17 5 13 3 -3 4 -12 1 -19z m-132 -7 c-3 -6 -11
-8 -17 -5 -6 4 -5 9 3 15 16 10 23 4 14 -10z m950 -130 c-5 -4 -55 41 -127
114 -23 23 -28 26 -23 10 5 -15 3 -17 -6 -8 -6 6 -8 16 -4 22 4 7 37 -17 86
-61 43 -39 76 -74 74 -77z m-990 129 c3 -5 1 -10 -4 -10 -6 0 -11 5 -11 10 0
6 2 10 4 10 3 0 8 -4 11 -10z m804 -53 c8 -10 7 -17 -1 -25 -15 -15 -39 3 -31
24 7 18 17 18 32 1z m-708 -47 c7 -22 16 -37 20 -34 5 3 9 3 9 0 0 -3 -4 -7
-9 -10 -13 -9 -64 63 -57 80 9 23 24 8 37 -36z m777 13 c20 -16 45 -33 56 -40
30 -18 3 -16 -63 4 -69 21 -65 17 -51 42 14 27 16 26 58 -6z m-409 -72 c14
-10 40 -23 57 -30 21 -8 35 -23 42 -44 6 -19 10 -25 11 -13 1 12 6 16 16 12 8
-3 15 -1 15 4 0 6 13 10 30 10 16 0 44 9 62 20 22 13 51 20 86 20 74 0 65 -20
-10 -22 l-63 -1 55 -6 c50 -6 55 -8 55 -31 0 -14 5 -29 10 -33 6 -5 1 -5 -10
-1 -33 13 -212 17 -232 5 -13 -8 12 -10 100 -11 95 0 117 -3 117 -14 0 -8 -4
-18 -10 -21 -5 -3 -7 0 -4 8 4 11 -5 13 -43 11 -26 -2 -133 -6 -238 -8 -104
-3 -226 -9 -270 -15 -159 -19 -195 -21 -195 -12 0 6 15 13 33 16 47 9 90 16
110 18 9 1 17 6 17 12 0 5 8 15 18 21 9 6 50 39 91 73 80 67 95 70 150 32z
m-394 -57 c19 -42 35 -78 35 -80 0 -10 -49 -3 -58 9 -14 16 -31 147 -20 147 5
0 24 -34 43 -76z m65 50 c0 -8 -5 -12 -10 -9 -6 4 -8 11 -5 16 9 14 15 11 15
-7z m950 12 c0 -9 -40 -13 -46 -5 -3 5 6 9 20 9 14 0 26 -2 26 -4z m-881 -52
c-13 -16 -29 -10 -29 11 0 8 7 11 20 8 16 -4 18 -8 9 -19z m809 -20 c41 -8 15
-19 -37 -16 -35 3 -51 8 -51 18 0 13 14 13 88 -2z m-874 -35 c-8 -13 -24 -1
-24 18 0 13 3 13 15 3 8 -7 12 -16 9 -21z m843 5 c-3 -3 -12 -4 -19 -1 -8 3
-5 6 6 6 11 1 17 -2 13 -5z m31 -164 c72 -129 636 -1026 673 -1071 53 -64 82
-116 75 -134 -9 -25 -20 -17 -49 38 -15 28 -36 63 -47 77 -19 24 -19 24 -13 3
3 -13 1 -23 -5 -23 -12 0 -36 29 -29 36 9 10 -234 424 -250 424 -5 0 10 -25
44 -75 20 -30 17 -33 -44 -44 -32 -6 -81 -16 -109 -21 -48 -10 -54 -9 -135 30
-46 22 -115 47 -154 55 -89 19 -202 19 -237 1 -25 -13 -28 -13 -34 7 -5 15 -1
24 10 32 82 49 135 88 131 95 -3 5 0 12 6 16 8 5 9 3 4 -6 -5 -8 -3 -11 6 -8
8 3 13 11 11 17 -1 7 2 10 8 6 12 -8 52 13 46 24 -3 4 5 6 17 4 16 -3 36 6 65
30 28 24 56 37 88 42 45 6 48 5 88 -34 23 -23 46 -38 51 -34 4 5 5 2 1 -5 -5
-8 -1 -21 10 -33 9 -10 13 -19 8 -19 -5 -1 11 -8 36 -16 25 -9 53 -25 63 -37
25 -30 -17 52 -59 113 -71 105 -344 585 -344 605 1 15 26 -21 68 -95z m-404
58 c10 2 16 0 12 -6 -3 -6 -25 -9 -49 -8 -23 1 -49 -1 -57 -5 -8 -4 -82 -10
-165 -14 -82 -3 -185 -10 -227 -14 -43 -3 -78 -3 -78 2 0 5 9 11 20 14 15 4
19 11 15 24 -8 26 12 24 26 -2 8 -17 17 -20 42 -15 18 3 79 8 137 11 173 9
234 16 260 30 22 12 26 11 35 -4 6 -9 18 -15 29 -13z m141 22 c-3 -5 -22 -10
-41 -10 -19 0 -34 5 -34 10 0 6 18 10 41 10 24 0 38 -4 34 -10z m35 5 c0 -9
-100 -154 -111 -161 -13 -8 13 44 57 114 19 28 38 52 44 52 5 0 10 -2 10 -5z
m104 -44 c4 -20 13 -49 21 -66 l15 -30 -4 28 c-3 29 5 35 22 15 11 -14 147
-251 176 -307 11 -19 14 -37 9 -42 -11 -11 -191 80 -305 153 -81 52 -93 64
-55 53 21 -6 21 -6 3 9 -23 19 -14 21 16 5 16 -9 18 -13 7 -20 -11 -6 -10 -9
4 -15 34 -13 32 8 -4 41 -51 46 -58 88 -21 134 16 20 34 46 40 58 8 15 21 21
41 21 25 -1 30 -6 35 -37z m-155 15 c-2 -2 -19 -11 -36 -20 -32 -16 -33 -16
-33 4 0 16 7 20 37 20 20 0 34 -2 32 -4z m1931 0 c0 -3 -4 -8 -10 -11 -5 -3
-10 -1 -10 4 0 6 5 11 10 11 6 0 10 -2 10 -4z m-2640 -41 c0 -8 3 -15 8 -15 8
0 78 -70 122 -122 18 -21 37 -36 43 -35 19 4 14 -27 -7 -47 -21 -18 -21 -18 6
-2 15 9 30 16 33 16 3 0 4 -30 2 -66 -2 -48 -8 -70 -20 -79 -12 -9 -14 -14 -5
-23 9 -9 9 -12 -2 -13 -8 -1 -19 -1 -24 0 -5 1 -3 -5 4 -14 7 -9 19 -14 26
-11 8 3 13 2 13 -2 -3 -20 16 -53 38 -67 18 -12 22 -20 15 -27 -8 -8 -8 -17
-1 -30 5 -10 6 -25 2 -33 -7 -11 -39 0 -168 57 -88 39 -173 74 -190 78 -24 5
-15 8 47 15 43 4 90 5 105 2 26 -6 26 -5 -4 8 -18 8 -37 23 -42 34 -7 13 -18
18 -33 15 -23 -5 -23 -5 1 13 13 10 43 29 65 42 39 23 40 23 22 3 -11 -12 -15
-22 -11 -22 5 0 4 -5 -3 -12 -20 -20 -14 -31 15 -25 26 5 26 4 8 -9 -19 -14
-19 -14 1 -16 10 0 25 -1 32 -1 6 1 12 -5 12 -13 0 -21 17 -17 23 6 3 11 1 18
-4 14 -5 -3 -9 0 -9 7 0 6 8 9 20 6 18 -5 18 -3 6 27 -7 17 -21 33 -32 34 -35
7 -40 22 -14 44 l25 20 -35 -20 c-19 -11 -86 -50 -147 -86 -86 -51 -118 -65
-137 -60 -38 9 -22 35 20 32 19 -1 38 2 44 8 6 6 -4 8 -30 6 -39 -4 -40 -4
-31 21 5 14 26 57 46 96 19 39 45 95 56 124 12 28 26 63 32 77 11 28 14 35 16
50 2 16 41 11 41 -5z m465 -35 c3 -5 1 -10 -4 -10 -6 0 -11 5 -11 10 0 6 2 10
4 10 3 0 8 -4 11 -10z m-345 -30 c0 -5 -2 -10 -4 -10 -3 0 -8 5 -11 10 -3 6
-1 10 4 10 6 0 11 -4 11 -10z m400 -6 c0 -8 -4 -12 -10 -9 -5 3 -10 10 -10 16
0 5 5 9 10 9 6 0 10 -7 10 -16z m99 2 c-11 -9 -69 -14 -69 -6 0 6 17 10 37 10
20 0 34 -2 32 -4z m81 -21 c0 -14 -4 -25 -10 -25 -11 0 -14 33 -3 43 11 11 13
8 13 -18z m-243 8 c-40 -5 -42 -23 -1 -23 l24 0 2 -157 1 -158 8 130 c3 72 7
140 8 153 1 12 7 22 16 22 13 0 15 -22 15 -135 0 -113 -2 -135 -15 -135 -8 0
-15 -9 -15 -20 0 -11 -1 -20 -2 -21 -2 0 -57 -4 -123 -9 -66 -4 -129 -12 -139
-16 -17 -7 -19 -4 -14 32 4 21 3 90 0 152 -4 61 -4 112 0 112 4 0 9 -12 11
-27 3 -23 4 -21 6 9 1 45 8 49 91 64 60 11 62 12 22 13 -26 1 -41 5 -37 11 3
6 44 9 93 8 48 -1 70 -3 49 -5z m-237 -13 c22 -7 21 -8 -12 -9 -21 -1 -38 4
-38 9 0 11 14 11 50 0z m-58 -44 c10 -19 10 -20 -6 -7 -9 8 -22 24 -28 35 -10
19 -10 20 6 7 9 -8 22 -24 28 -35z m-272 -2 c0 -16 -94 -204 -102 -204 -5 0
12 40 37 88 25 49 45 96 45 105 0 10 5 17 10 17 6 0 10 -3 10 -6z m677 -86
c-2 -18 -4 -6 -4 27 0 33 2 48 4 33 2 -15 2 -42 0 -60z m63 -34 c0 -56 -4 -94
-10 -94 -6 0 -10 40 -10 101 0 64 4 98 10 94 6 -3 10 -48 10 -101z m-910 -94
c-50 -99 -159 -298 -243 -442 -84 -145 -173 -302 -197 -350 -25 -48 -52 -89
-61 -91 -20 -5 -18 27 5 71 25 48 12 38 -18 -13 -15 -25 -31 -45 -37 -45 -11
0 15 56 39 83 21 23 1 22 -31 -3 -14 -11 -28 -16 -31 -11 -6 9 20 29 67 49 15
6 33 23 39 37 7 15 17 24 25 21 8 -3 12 -2 8 3 -3 5 -1 11 3 13 16 6 285 455
383 640 84 157 122 218 136 218 2 0 -37 -81 -87 -180z m982 124 c-20 -15 -32
-9 -32 16 0 17 3 18 25 8 23 -10 23 -12 7 -24z m93 -24 c3 0 3 5 -1 12 -4 7
-3 8 5 4 6 -4 9 -11 7 -15 -4 -6 32 -29 192 -128 23 -14 23 -15 5 -28 -10 -8
-33 -17 -51 -21 -32 -6 -49 -20 -39 -31 3 -3 33 10 67 28 70 39 75 31 -67 115
-51 31 -93 58 -93 60 0 3 24 -8 53 -25 28 -18 90 -50 137 -73 47 -22 79 -43
72 -45 -6 -3 -9 -10 -6 -15 4 -6 2 -8 -3 -5 -6 4 -34 -6 -64 -23 -29 -16 -57
-26 -61 -24 -4 3 -8 1 -8 -4 0 -5 -37 -31 -82 -57 -46 -26 -112 -65 -148 -85
-64 -38 -93 -43 -68 -12 11 13 10 14 -8 4 -19 -10 -24 -8 -37 12 -9 13 -22 29
-30 37 -35 35 -22 119 19 119 8 0 14 7 14 15 0 9 7 18 15 22 21 7 45 56 45 90
0 22 10 34 48 59 34 23 52 29 64 23 9 -5 19 -9 23 -9z m-1015 -169 c0 -6 -4
-13 -10 -16 -5 -3 -10 1 -10 9 0 9 5 16 10 16 6 0 10 -4 10 -9z m-1456 -51 c5
-17 4 -20 -2 -10 -5 8 -13 26 -16 40 -5 17 -4 20 2 10 5 -8 13 -26 16 -40z
m1479 29 c4 -16 3 -18 -9 -8 -7 6 -11 15 -8 20 8 13 11 11 17 -12z m1312 11
c-3 -5 -18 -9 -33 -9 l-27 1 30 8 c17 4 31 8 33 9 2 0 0 -3 -3 -9z m-1209 -36
c51 -30 53 -44 2 -18 -30 15 -32 15 -19 1 8 -10 9 -17 3 -17 -12 0 -27 19 -27
34 0 5 -7 11 -15 13 -13 4 -13 3 0 -6 9 -7 10 -11 3 -11 -15 0 -25 15 -16 24
11 10 23 7 69 -20z m1134 22 c0 -2 -7 -7 -16 -10 -8 -3 -12 -2 -9 4 6 10 25
14 25 6z m194 -68 c-4 -7 -10 -5 -16 6 -5 9 -14 16 -19 16 -6 0 -7 -5 -3 -12
4 -7 3 -8 -5 -4 -6 4 -9 11 -6 16 3 4 -3 11 -13 15 -15 6 -14 8 8 20 23 12 26
11 42 -17 10 -16 15 -34 12 -40z m-1441 41 c10 -11 23 -17 28 -13 5 3 39 -13
75 -36 35 -22 70 -38 76 -34 6 4 8 3 5 -3 -9 -14 19 -37 33 -28 6 4 9 2 8 -3
-2 -6 26 -31 61 -55 39 -28 65 -53 66 -65 1 -18 -7 -20 -103 -25 -61 -3 -119
-1 -140 6 -20 6 -99 11 -174 11 -76 1 -136 3 -135 6 2 3 12 24 21 47 12 28 28
46 48 54 16 6 25 15 20 18 -6 4 3 25 20 51 17 24 31 54 32 65 1 28 35 30 59 4z
m-70 -14 c-3 -9 -8 -14 -10 -11 -3 3 -2 9 2 15 9 16 15 13 8 -4z m657 5 c20
-12 12 -17 -42 -22 -36 -4 -48 -2 -48 8 0 19 65 30 90 14z m83 -17 c-13 -2
-33 -2 -45 0 -13 2 -3 4 22 4 25 0 35 -2 23 -4z m-373 -73 c66 -36 120 -68
120 -72 0 -3 -14 -9 -31 -13 -26 -6 -36 -2 -63 24 -18 17 -37 31 -44 31 -7 0
-12 4 -12 10 0 11 -82 54 -123 64 -15 4 -26 10 -23 14 12 20 66 2 176 -58z
m400 15 c0 -19 0 -38 1 -42 2 -18 -19 -11 -29 9 -10 22 -11 21 -11 -9 -1 -18
-5 -33 -11 -33 -5 0 -11 15 -12 33 l-1 32 -4 -32 c-4 -31 -17 -44 -25 -24 -1
5 -9 3 -16 -5 -11 -12 -6 -14 30 -15 54 -1 77 -4 106 -13 54 -18 10 -25 -163
-28 -102 -2 -185 -2 -185 0 0 8 74 32 102 33 18 0 27 3 21 6 -14 5 -19 104 -6
116 3 4 51 7 105 7 l98 0 0 -35z m780 10 c13 -14 21 -25 18 -25 -2 0 -15 11
-28 25 -13 14 -21 25 -18 25 2 0 15 -11 28 -25z m5 -36 c20 -22 20 -22 0 -11
-11 5 -29 20 -40 33 -20 22 -20 22 0 11 11 -5 29 -20 40 -33z m-479 -7 c-3 -5
-23 -17 -45 -27 -22 -10 -39 -21 -36 -24 2 -4 -5 -7 -16 -7 -10 0 -19 1 -19 2
0 4 105 64 113 64 5 0 6 -4 3 -8z m-2220 -319 c31 -54 75 -125 97 -158 l40
-60 -69 70 c-67 67 -138 156 -101 126 23 -18 21 -3 -5 39 -48 78 -119 234
-113 249 4 10 21 -16 50 -77 24 -50 70 -136 101 -189z m2054 246 c0 -5 -11 -9
-25 -9 -17 0 -23 4 -19 14 6 15 44 10 44 -5z m-104 -84 l35 -15 -2 -82 c-2
-75 0 -83 17 -87 10 -2 24 -7 29 -11 6 -4 35 -4 65 1 100 14 100 14 100 -32 0
-47 -14 -79 -35 -79 -11 0 -15 12 -15 41 0 36 2 41 20 36 13 -3 20 0 20 8 0 9
-11 13 -31 13 -30 -1 -31 -2 -25 -40 8 -50 -2 -69 -20 -37 -7 13 -13 18 -14
12 0 -7 -10 -13 -22 -13 -19 0 -20 -2 -8 -10 10 -7 -16 -10 -82 -10 l-98 0 0
49 0 50 48 4 c40 3 38 4 -18 5 -38 1 -60 -2 -52 -7 9 -5 12 -24 10 -52 l-3
-44 -100 -5 c-55 -3 -124 -4 -152 -2 l-53 5 -2 56 -2 56 -3 -57 -4 -58 -59 0
c-55 0 -60 2 -60 23 0 12 -4 28 -9 36 -5 8 -3 24 6 42 14 28 18 29 81 29 43 0
62 4 53 9 -12 8 -11 17 3 59 9 28 16 57 16 66 0 8 8 17 18 19 16 4 16 5 -1 6
-10 0 -20 -7 -24 -16 -8 -23 -56 -67 -168 -153 -92 -71 -145 -99 -145 -78 0 7
-16 8 -52 3 -65 -10 -90 -12 -175 -14 -104 -3 -44 -17 69 -17 54 1 98 -2 98
-5 0 -14 -52 -20 -219 -26 -146 -5 -173 -4 -169 8 3 8 19 14 41 15 48 1 59 12
19 20 -34 7 -43 30 -14 37 9 3 113 5 231 6 178 1 218 3 238 17 54 35 233 178
233 186 0 4 0 10 0 13 0 3 5 12 12 20 19 21 324 21 374 0z m1829 -45 c3 -5 1
-10 -4 -10 -6 0 -11 5 -11 10 0 6 2 10 4 10 3 0 8 -4 11 -10z m-45 -20 c0 -5
-4 -10 -10 -10 -5 0 -10 5 -10 10 0 6 5 10 10 10 6 0 10 -4 10 -10z m-3600
-34 c0 -14 -72 -46 -103 -46 -47 0 0 27 101 59 1 1 2 -5 2 -13z m2007 -58 c-3
-7 -5 -2 -5 12 0 14 2 19 5 13 2 -7 2 -19 0 -25z m1533 -4 c0 -8 -5 -12 -10
-9 -6 4 -8 11 -5 16 9 14 15 11 15 -7z m-1345 -12 c-3 -3 -11 0 -18 7 -9 10
-8 11 6 5 10 -3 15 -9 12 -12z m113 -35 c23 -10 45 -23 48 -28 10 -18 -22 -7
-86 26 -69 37 -41 39 38 2z m1213 -10 c-10 -9 -11 -8 -5 6 3 10 9 15 12 12 3
-3 0 -11 -7 -18z m-890 -8 c59 2 67 0 65 -16 0 -11 5 -17 14 -15 11 3 12 1 3
-8 -9 -9 -24 -8 -65 6 -38 12 -83 17 -160 17 -60 -1 -108 3 -108 7 0 14 31 18
110 12 41 -2 105 -4 141 -3z m865 -19 c9 0 13 -4 10 -9 -7 -10 -46 -3 -46 8 0
14 15 22 18 12 2 -6 10 -11 18 -11z m-666 1 c0 -5 -22 -8 -50 -8 -65 2 -65 17
0 17 28 0 50 -4 50 -9z m323 -8 c-13 -2 -33 -2 -45 0 -13 2 -3 4 22 4 25 0 35
-2 23 -4z m-193 -13 c0 -5 -7 -10 -15 -10 -8 0 -15 5 -15 10 0 6 7 10 15 10 8
0 15 -4 15 -10z m-2393 -6 c-3 -3 -12 -4 -19 -1 -8 3 -5 6 6 6 11 1 17 -2 13
-5z m2259 -9 l29 -15 -30 0 c-55 0 -108 12 -93 21 20 13 63 11 94 -6z m-566
-3 c0 -5 -13 -7 -30 -4 -16 2 -30 6 -30 8 0 2 14 4 30 4 17 0 30 -4 30 -8z
m920 -2 c11 -7 5 -10 -22 -10 -21 0 -38 5 -38 10 0 13 40 13 60 0z m-2000 -15
c0 -10 -10 -15 -27 -15 -26 0 -26 1 -7 15 25 19 34 19 34 0z m2280 0 c7 -8 8
-15 3 -15 -5 0 -24 -14 -41 -31 -35 -34 -51 -34 -32 1 7 12 18 19 25 16 17 -6
30 10 15 19 -11 7 -4 25 9 25 5 0 14 -7 21 -15z m-2355 -5 c-4 -6 7 -13 24
-16 34 -7 42 -24 13 -24 -21 0 -56 33 -45 43 10 10 15 8 8 -3z m1038 3 c-13
-2 -33 -2 -45 0 -13 2 -3 4 22 4 25 0 35 -2 23 -4z m846 -19 c25 -32 29 -63 6
-44 -8 7 -12 16 -10 21 3 4 -3 12 -12 18 -10 6 -13 11 -8 11 6 0 3 5 -5 10 -9
6 -10 10 -3 10 6 0 21 -12 32 -26z m-189 6 c-13 -9 -13 -11 0 -20 12 -8 9 -10
-13 -10 -16 0 -37 -5 -48 -10 -13 -8 -19 -7 -19 0 0 17 -63 8 -77 -10 -11 -13
-12 -13 -13 0 0 13 -1 13 -10 0 -7 -12 -13 -13 -27 -4 -10 6 -34 10 -53 8 -33
-4 -31 -2 20 22 46 22 65 25 131 22 42 -2 75 0 72 5 -2 4 8 7 24 7 22 0 25 -2
13 -10z m47 4 c-3 -3 -12 -4 -19 -1 -8 3 -5 6 6 6 11 1 17 -2 13 -5z m-1540
-16 c-15 -10 -54 -10 -60 0 -3 4 12 7 34 7 22 1 33 -2 26 -7z m1730 6 c-3 -3
-12 -4 -19 -1 -8 3 -5 6 6 6 11 1 17 -2 13 -5z m-1947 -14 c0 -9 -55 -15 -107
-11 -11 1 -24 -3 -28 -8 -8 -13 -240 -14 -270 -1 -19 8 113 16 210 12 22 -1
56 2 75 7 49 12 120 13 120 1z m1358 3 c-10 -2 -26 -2 -35 0 -10 3 -2 5 17 5
19 0 27 -2 18 -5z m402 -3 c0 -5 -4 -10 -9 -10 -6 0 -13 5 -16 10 -3 6 1 10 9
10 9 0 16 -4 16 -10z m-1072 -26 c254 -4 462 -10 462 -14 0 -13 -203 -20 -236
-8 -25 9 -55 8 -135 -5 -57 -9 -135 -15 -174 -13 -114 6 -326 8 -331 4 -2 -3
92 -8 208 -13 117 -4 231 -8 253 -9 22 -1 71 -3 108 -4 62 -2 68 -4 62 -21 -5
-16 1 -20 37 -27 l43 -7 -45 -12 -45 -12 48 -8 c33 -5 52 -4 62 5 8 7 22 10
30 6 8 -3 15 -1 15 4 0 16 38 12 68 -7 25 -16 26 -16 14 -1 -15 19 -19 18 88
38 159 31 341 35 324 8 -4 -6 2 -5 15 2 12 6 30 8 40 5 10 -3 36 0 57 7 28 9
55 10 97 4 36 -6 61 -6 65 0 9 12 45 12 54 -1 14 -19 8 -25 -22 -25 -17 0 -41
-7 -55 -16 -21 -14 -26 -14 -55 1 -18 9 -34 14 -38 11 -3 -3 -11 -1 -19 5 -10
9 -13 7 -13 -9 0 -28 -63 -50 -83 -30 -8 7 -12 19 -9 27 2 7 -8 2 -22 -10 -28
-25 -91 -28 -111 -7 -7 8 -6 8 4 3 10 -6 12 -4 7 4 -8 12 -40 10 -91 -8 -30
-11 -30 -11 7 -7 21 3 40 0 44 -5 3 -5 9 -7 13 -5 4 3 12 -4 19 -14 17 -28
-11 -34 -43 -9 -32 26 -137 33 -177 13 -15 -8 -44 -14 -65 -14 -40 -1 -129
-20 -176 -39 -32 -12 -54 -15 -43 -4 3 4 -6 12 -21 19 -22 10 -24 13 -9 13 13
1 16 4 10 10 -5 5 -76 14 -158 21 -83 6 -154 14 -158 17 -5 2 -17 2 -26 -2
-15 -6 -13 -9 8 -18 23 -11 22 -11 -20 -14 -71 -5 -110 -13 -110 -23 0 -6 22
-10 50 -10 40 0 48 -3 44 -15 -4 -8 -1 -15 5 -15 6 0 11 5 11 10 0 6 4 10 8
10 5 0 9 -6 9 -13 0 -8 -12 -13 -29 -13 -15 0 -28 3 -28 7 0 4 -10 5 -22 1
-16 -4 -19 -2 -13 8 6 9 4 11 -5 5 -25 -16 -140 -3 -140 15 0 5 -8 10 -17 12
-10 2 6 7 36 12 29 4 51 10 48 13 -8 7 -233 12 -276 5 -50 -7 -18 -20 70 -28
123 -11 111 -22 -26 -23 -133 -1 -198 -8 -226 -22 -25 -13 -457 5 -471 19 -9
9 27 12 168 12 162 1 177 2 159 16 -13 10 -31 13 -53 9 -18 -3 -57 -1 -85 4
-29 6 -79 14 -112 18 l-60 7 60 7 c56 6 110 4 163 -7 33 -7 19 12 -15 21 -15
3 -30 10 -33 14 -5 8 -115 42 -141 44 -13 1 -14 5 -5 20 9 15 19 17 61 13 119
-13 200 -10 248 9 45 17 59 17 228 5 98 -7 182 -10 186 -7 3 4 -24 7 -60 7
-61 0 -67 2 -67 21 0 19 4 21 48 15 26 -3 255 -8 510 -12z m-1716 -80 c29 -31
58 -65 64 -77 12 -20 12 -20 19 2 9 31 18 20 9 -13 -3 -14 -10 -23 -15 -20 -5
3 -9 0 -9 -5 0 -6 5 -11 10 -11 6 0 10 -7 10 -16 0 -14 -3 -14 -15 -4 -8 7
-15 21 -15 30 0 25 -101 140 -122 140 -24 0 -32 18 -11 23 10 3 19 5 20 6 1 0
26 -24 55 -55z m3503 36 c3 -5 -3 -10 -15 -10 -12 0 -18 5 -15 10 3 6 10 10
15 10 5 0 12 -4 15 -10z m-71 -35 c-4 -8 -9 -15 -13 -15 -4 0 -14 -15 -23 -32
-18 -38 -133 -165 -163 -180 -19 -10 -19 -10 -4 8 113 135 118 143 106 168
-10 20 -15 23 -32 14 -16 -8 -15 -5 5 14 24 23 25 24 40 6 14 -18 16 -18 49 7
41 29 42 30 35 10z m-1304 -15 c11 -7 7 -10 -17 -10 -17 0 -35 5 -38 10 -8 13
35 13 55 0z m-1993 -102 c-2 -18 -4 -6 -4 27 0 33 2 48 4 33 2 -15 2 -42 0
-60z m2853 54 c0 -30 -19 -42 -46 -30 -29 14 -31 28 -4 28 11 0 20 5 20 10 0
6 7 10 15 10 8 0 15 -8 15 -18z m238 -21 c21 -13 -5 -47 -45 -59 -38 -12 -39
-8 -3 37 27 34 29 35 48 22z m-1453 -41 c-16 -4 -24 -8 -17 -9 6 0 12 -8 12
-16 0 -7 8 -19 18 -25 13 -8 8 -9 -23 -4 -22 4 -47 10 -56 15 -9 5 -19 6 -22
3 -3 -3 -11 4 -17 16 -7 12 -8 20 -3 17 4 -2 17 -1 28 4 11 4 40 7 65 7 41 0
42 -1 15 -8z m78 3 c-7 -2 -21 -2 -30 0 -10 3 -4 5 12 5 17 0 24 -2 18 -5z
m-1647 -33 c-28 -11 -52 -18 -54 -16 -7 8 53 35 78 35 18 0 12 -5 -24 -19z
m1059 -9 c-3 -5 3 -12 12 -14 10 -3 0 -5 -22 -5 -40 -1 -40 -1 -15 13 30 17
33 18 25 6z m-1047 -21 c-13 -20 -29 -25 -42 -13 -3 4 4 13 16 20 33 18 40 16
26 -7z m1323 3 c21 -10 39 -22 39 -26 0 -4 -9 -3 -19 3 -11 5 -31 10 -44 10
-14 0 -27 7 -31 15 -7 20 9 19 55 -2z m313 8 c4 -5 -3 -7 -14 -4 -23 6 -26 13
-6 13 8 0 17 -4 20 -9z m163 -37 c-3 -3 -12 -4 -19 -1 -8 3 -5 6 6 6 11 1 17
-2 13 -5z m953 -16 c-1 -14 -111 -98 -129 -98 -18 0 -13 18 7 24 9 4 40 24 67
46 58 45 55 44 55 28z m-2694 -58 c17 -19 19 -28 11 -41 -9 -15 -16 -12 -54
24 -25 23 -40 43 -34 45 6 2 9 8 5 13 -11 19 52 -17 72 -41z m97 -95 c41 -36
61 -40 36 -8 -8 10 6 2 31 -18 149 -118 181 -141 195 -135 8 3 15 1 15 -4 0
-6 -6 -10 -12 -11 -7 0 -21 -2 -31 -4 -10 -2 -14 1 -10 8 4 7 0 8 -11 4 -10
-4 -15 -3 -11 3 6 10 -7 14 -35 11 -11 -1 -12 0 -3 7 9 6 -1 18 -35 42 -26 19
-52 35 -59 36 -22 4 -133 87 -127 95 8 14 13 12 57 -26z m267 -14 c0 -6 -4
-13 -10 -16 -5 -3 -10 1 -10 9 0 9 5 16 10 16 6 0 10 -4 10 -9z m2195 -11 c3
-5 1 -10 -4 -10 -6 0 -11 5 -11 10 0 6 2 10 4 10 3 0 8 -4 11 -10z m-2175 -98
c2 -2 -2 -7 -10 -12 -9 -6 -17 -5 -22 3 -4 7 -8 8 -8 2 0 -9 -30 42 -30 51 0
3 15 -6 33 -18 17 -13 34 -24 37 -26z m-60 8 c0 -5 -5 -10 -11 -10 -5 0 -7 5
-4 10 3 6 8 10 11 10 2 0 4 -4 4 -10z m2220 1 c0 -5 -15 -14 -32 -20 l-33 -11
24 20 c25 21 41 26 41 11z m60 -10 c0 -20 -188 -126 -305 -170 -91 -36 -85
-34 -85 -21 0 6 5 10 11 10 18 0 269 125 319 159 48 32 60 36 60 22z m-1970
-35 c0 -4 8 -5 17 -2 14 6 14 3 -3 -16 -12 -13 -27 -32 -33 -43 -11 -17 -12
-15 -7 17 3 28 1 40 -12 47 -13 7 -10 9 11 8 15 -1 27 -6 27 -11z m1518 -60
c2 -10 0 -22 -6 -28 -6 -6 -8 0 -7 16 4 30 -9 34 -24 9 -6 -10 -11 -13 -11 -7
0 14 22 35 35 31 5 -2 12 -12 13 -21z m-1678 -62 c0 -2 -13 2 -30 11 -16 9
-30 18 -30 21 0 2 14 -2 30 -11 17 -9 30 -18 30 -21z m420 -149 c0 -8 -4 -15
-10 -15 -5 0 -10 7 -10 15 0 8 5 15 10 15 6 0 10 -7 10 -15z m773 -62 c-7 -2
-21 -2 -30 0 -10 3 -4 5 12 5 17 0 24 -2 18 -5z"/>
<path d="M3551 4383 c-27 -42 -29 -49 -15 -58 68 -43 236 -169 317 -237 108
-91 271 -263 297 -312 9 -17 27 -35 39 -41 12 -5 19 -15 17 -22 -3 -6 2 -17 9
-23 8 -7 13 -16 10 -20 -2 -3 3 -17 12 -30 14 -20 42 -71 77 -137 6 -13 16
-23 23 -23 20 0 27 22 11 34 -18 13 -38 50 -38 68 1 9 5 7 14 -4 7 -10 18 -18
23 -18 6 0 16 -7 23 -15 7 -8 17 -12 22 -9 16 10 58 -48 46 -63 -6 -8 -6 -19
1 -32 14 -25 14 -61 1 -61 -5 0 -14 8 -19 19 -11 20 -51 35 -51 20 0 -5 7 -26
16 -47 30 -70 105 -297 130 -395 32 -128 54 -274 54 -364 l0 -71 68 -4 c37 -2
69 -2 71 -1 11 7 -20 278 -43 384 -110 501 -341 907 -713 1250 -111 102 -333
259 -366 259 -3 0 -19 -21 -36 -47z"/>
<path d="M3631 2924 c0 -11 3 -14 6 -6 3 7 2 16 -1 19 -3 4 -6 -2 -5 -13z"/>
<path d="M3345 2921 c-3 -5 -1 -12 5 -16 5 -3 10 1 10 9 0 18 -6 21 -15 7z"/>
<path d="M3380 2909 c0 -5 5 -7 10 -4 6 3 10 8 10 11 0 2 -4 4 -10 4 -5 0 -10
-5 -10 -11z"/>
<path d="M4080 2839 c0 -5 5 -7 10 -4 6 3 10 8 10 11 0 2 -4 4 -10 4 -5 0 -10
-5 -10 -11z"/>
<path d="M3586 2815 c-3 -8 -1 -15 4 -15 6 0 10 7 10 15 0 8 -2 15 -4 15 -2 0
-6 -7 -10 -15z"/>
<path d="M4160 2578 c0 -28 -10 -33 -52 -30 -12 1 -15 -3 -11 -16 3 -9 3 -14
-1 -10 -4 3 -17 -3 -28 -14 -20 -20 -20 -22 -3 -34 10 -7 23 -11 29 -7 6 3 8
3 4 -2 -8 -9 10 -28 36 -38 11 -4 16 -13 12 -22 -8 -22 12 -18 24 5 9 17 8 20
-10 20 -11 0 -20 7 -20 15 0 8 5 15 10 15 6 0 10 -3 10 -7 0 -5 20 -9 45 -10
26 -1 43 3 40 8 -4 5 -1 9 6 9 7 0 6 8 -5 25 -9 14 -12 25 -6 25 6 0 13 -7 16
-15 4 -8 11 -12 16 -9 6 4 14 1 18 -6 5 -8 10 -9 14 -2 3 6 -2 13 -13 17 -10
3 -24 19 -31 36 -13 32 -38 55 -27 25 5 -12 3 -16 -5 -13 -7 2 -12 10 -10 17
3 11 0 11 -12 1 -12 -10 -14 -9 -9 10 5 16 3 20 -7 14 -7 -4 -16 -2 -21 6 -6
10 -9 6 -9 -13z m3 -55 c3 -5 8 -24 12 -43 l7 -35 -20 23 c-12 14 -26 20 -36
16 -21 -8 -21 4 1 28 17 19 29 23 36 11z"/>
<path d="M4285 2450 c3 -5 11 -10 16 -10 6 0 7 5 4 10 -3 6 -11 10 -16 10 -6
0 -7 -4 -4 -10z"/>
<path d="M4457 2367 c-3 -8 -2 -20 3 -26 5 -9 8 -4 8 13 0 29 -3 32 -11 13z"/>
<path d="M1809 2153 c-13 -16 -12 -17 4 -4 9 7 17 15 17 17 0 8 -8 3 -21 -13z"/>
<path d="M1771 2110 c-15 -13 -39 -20 -70 -21 -25 -1 -37 -4 -26 -6 11 -3 23
-10 27 -17 6 -8 8 -7 8 2 0 6 12 12 28 12 17 1 34 10 45 25 21 30 20 31 -12 5z"/>
<path d="M1708 2025 c-6 -30 -2 -32 12 -6 6 11 6 22 1 25 -5 3 -11 -5 -13 -19z"/>
<path d="M1606 1881 c-12 -5 -15 -10 -9 -14 6 -4 16 0 23 8 14 17 13 17 -14 6z"/>
<path d="M1583 1838 c-32 -41 -104 -150 -91 -138 20 19 111 150 105 150 -2 0
-9 -6 -14 -12z"/>
<path d="M1384 1561 c-27 -35 -58 -59 -102 -80 -60 -29 -105 -42 -72 -21 11 7
3 10 -30 11 -25 0 -58 2 -75 3 -16 1 -61 -3 -98 -11 -38 -7 -89 -10 -114 -6
-53 7 -53 9 22 -97 l45 -65 78 -2 c42 -1 91 -6 107 -12 24 -7 12 -9 -62 -10
-51 -1 -93 -4 -93 -9 0 -4 23 -35 52 -69 l51 -62 82 124 c46 67 116 167 156
221 99 131 101 134 96 134 -2 0 -21 -22 -43 -49z m-269 -310 c-18 -7 -55 -4
-55 5 0 2 17 4 38 3 28 0 32 -2 17 -8z"/>
<path d="M1710 630 c0 -5 9 -10 20 -10 11 0 20 -7 20 -15 0 -18 73 -54 110
-55 14 0 35 -6 46 -14 24 -17 176 -59 294 -81 102 -19 365 -31 472 -21 70 7
76 9 62 23 -13 13 -32 15 -112 9 -111 -8 -331 7 -454 30 -117 22 -275 69 -368
109 -86 38 -90 40 -90 25z"/>
<path d="M3226 599 c-106 -43 -328 -103 -420 -114 -76 -10 -70 -31 8 -27 153
7 536 128 536 168 0 20 -13 17 -124 -27z"/>
<path d="M2935 4030 c-13 -5 -14 -9 -5 -9 8 0 24 4 35 9 13 5 14 9 5 9 -8 0
-24 -4 -35 -9z"/>
<path d="M2836 3999 c4 -7 44 0 44 7 0 2 -11 3 -24 2 -14 -1 -23 -5 -20 -9z"/>
<path d="M2184 3953 c3 -16 3 -23 0 -17 -3 8 -16 6 -43 -6 -20 -11 -49 -22
-64 -25 -35 -9 -34 -21 4 -41 32 -16 48 -9 49 23 0 6 4 14 10 18 5 3 5 -7 -1
-25 -13 -35 -5 -48 46 -79 l34 -20 78 38 c43 20 116 53 161 71 78 32 82 35 55
42 -15 4 -92 11 -171 15 -114 5 -142 9 -138 20 3 7 -1 13 -10 13 -12 0 -15 -7
-10 -27z"/>
<path d="M1868 3863 c19 -7 14 -23 -5 -16 -22 8 -17 2 22 -22 21 -13 26 -14
18 -3 -7 8 -10 18 -6 22 8 8 -16 26 -32 25 -5 0 -4 -3 3 -6z"/>
<path d="M2770 3855 c-14 -8 -20 -14 -15 -14 6 0 21 6 35 14 14 8 21 14 15 14
-5 0 -21 -6 -35 -14z"/>
<path d="M2420 3833 c-83 -40 -322 -158 -347 -171 l-22 -12 24 -47 c14 -25 30
-52 36 -59 8 -9 -14 -25 -95 -69 -59 -31 -106 -59 -106 -62 0 -2 47 21 105 52
93 50 137 62 119 34 -3 -5 -10 -7 -15 -4 -15 10 -10 -21 5 -34 12 -10 13 -8 9
8 -6 24 6 27 27 9 7 -7 3 4 -9 24 -36 61 -53 99 -47 105 3 3 13 -13 22 -36 9
-22 19 -41 23 -41 19 0 17 15 -5 70 -13 33 -24 63 -24 67 0 16 332 173 366
173 9 0 12 5 9 10 -8 14 -12 13 -75 -17z"/>
<path d="M1919 3841 c7 -5 11 -13 7 -19 -5 -9 22 -27 30 -19 7 6 -27 47 -39
47 -8 0 -7 -3 2 -9z"/>
<path d="M2527 3809 c-43 -17 -77 -33 -75 -34 2 -2 44 11 93 30 50 19 83 34
75 34 -8 0 -50 -14 -93 -30z"/>
<path d="M1838 3796 c6 -51 -28 -228 -47 -245 -11 -9 -8 -9 9 2 14 8 67 38
118 67 50 29 92 56 92 60 0 4 -11 24 -25 44 -13 20 -22 42 -20 48 3 8 -16 20
-52 32 -32 10 -63 20 -69 22 -6 3 -9 -9 -6 -30z"/>
<path d="M2702 3801 c-11 -7 -10 -9 3 -14 9 -4 14 -3 10 2 -3 5 1 12 7 14 7 3
9 6 3 6 -5 0 -16 -3 -23 -8z"/>
<path d="M2650 3780 c-8 -5 -10 -10 -5 -10 6 0 17 5 25 10 8 5 11 10 5 10 -5
0 -17 -5 -25 -10z"/>
<path d="M2340 3725 c-47 -24 -80 -44 -75 -44 6 0 48 20 95 44 47 24 81 44 75
44 -5 0 -48 -20 -95 -44z"/>
<path d="M2580 3750 c-8 -5 -10 -10 -5 -10 6 0 17 5 25 10 8 5 11 10 5 10 -5
0 -17 -5 -25 -10z"/>
<path d="M2510 3720 c-9 -6 -10 -10 -3 -10 6 0 15 5 18 10 8 12 4 12 -15 0z"/>
<path d="M2400 3675 c-25 -13 -40 -24 -35 -24 6 0 30 11 55 24 25 13 41 24 35
24 -5 0 -30 -11 -55 -24z"/>
<path d="M2510 3690 c-9 -6 -10 -10 -3 -10 6 0 15 5 18 10 8 12 4 12 -15 0z"/>
<path d="M2198 3654 c-27 -13 -48 -27 -48 -29 0 -3 23 6 50 20 28 14 50 28 50
30 0 7 1 7 -52 -21z"/>
<path d="M2350 3610 c-74 -38 -132 -69 -127 -69 10 -1 267 128 267 134 0 7 9
11 -140 -65z"/>
<path d="M1895 3559 c-124 -72 -430 -273 -440 -290 -3 -5 70 42 163 104 92 61
223 143 290 181 67 38 122 70 122 72 0 9 -22 -2 -135 -67z"/>
<path d="M2235 3590 c-3 -6 1 -7 9 -4 18 7 21 14 7 14 -6 0 -13 -4 -16 -10z"/>
<path d="M2045 3570 c-3 -6 1 -7 9 -4 18 7 21 14 7 14 -6 0 -13 -4 -16 -10z"/>
<path d="M1868 3394 c-38 -20 -36 -28 2 -9 17 9 30 18 30 20 0 7 -1 6 -32 -11z"/>
<path d="M1654 3264 c-215 -144 -318 -220 -381 -281 -38 -37 -65 -65 -59 -60
16 11 28 8 20 -5 -4 -7 7 0 24 16 17 16 30 32 29 36 -1 5 1 7 4 6 10 -2 39 26
34 34 -4 7 16 20 35 24 15 3 30 19 25 27 -6 8 8 13 27 10 3 0 20 12 37 28 17
16 33 26 37 22 4 -3 4 0 0 7 -7 11 5 17 27 13 5 -1 6 3 2 9 -6 9 8 14 28 11 4
-1 10 6 13 14 3 8 11 12 17 8 6 -3 7 -1 3 5 -7 11 6 17 27 13 5 -1 6 2 3 7 -2
4 24 28 60 52 57 39 71 50 61 50 -2 0 -34 -21 -73 -46z m-374 -297 c0 -2 -10
-12 -22 -23 l-23 -19 19 23 c18 21 26 27 26 19z"/>
<path d="M2325 2950 c-3 -5 6 -12 20 -16 14 -3 25 -11 25 -17 0 -6 3 -8 6 -5
3 4 1 16 -6 27 -11 22 -35 28 -45 11z"/>
<path d="M2391 2746 c2 -2 19 -11 37 -20 31 -16 32 -16 21 1 -6 11 -23 20 -37
21 -14 1 -24 0 -21 -2z"/>
<path d="M1636 3957 c3 -10 9 -15 12 -12 3 3 0 11 -7 18 -10 9 -11 8 -5 -6z"/>
<path d="M3020 2611 c0 -6 4 -13 10 -16 6 -3 7 1 4 9 -7 18 -14 21 -14 7z"/>
<path d="M2530 2410 c-13 -8 -12 -10 3 -10 9 0 17 5 17 10 0 12 -1 12 -20 0z"/>
<path d="M2473 2403 c9 -2 23 -2 30 0 6 3 -1 5 -18 5 -16 0 -22 -2 -12 -5z"/>
<path d="M2333 2393 c9 -2 23 -2 30 0 6 3 -1 5 -18 5 -16 0 -22 -2 -12 -5z"/>
<path d="M2126 2045 c-11 -8 -15 -15 -10 -15 6 0 19 7 30 15 10 8 15 14 9 14
-5 0 -19 -6 -29 -14z"/>
<path d="M2068 2014 c-38 -20 -36 -28 2 -9 17 9 30 18 30 20 0 7 -1 6 -32 -11z"/>
<path d="M1280 1170 c-6 -11 -8 -20 -6 -20 3 0 10 9 16 20 6 11 8 20 6 20 -3
0 -10 -9 -16 -20z"/>
<path d="M2858 1873 c12 -2 32 -2 45 0 12 2 2 4 -23 4 -25 0 -35 -2 -22 -4z"/>
<path d="M2678 1783 c6 -2 18 -2 25 0 6 3 1 5 -13 5 -14 0 -19 -2 -12 -5z"/>
<path d="M2854 1764 c-18 -14 -18 -15 4 -4 12 6 22 13 22 15 0 8 -5 6 -26 -11z"/>
<path d="M2753 1704 c-24 -14 -43 -27 -43 -30 0 -6 67 33 85 48 17 15 1 8 -42
-18z"/>
<path d="M2678 1693 c7 -3 16 -2 19 1 4 3 -2 6 -13 5 -11 0 -14 -3 -6 -6z"/>
<path d="M1810 1760 l-35 -7 32 -2 c17 0 35 4 38 9 3 6 5 9 3 9 -2 -1 -19 -5
-38 -9z"/>
<path d="M1753 1713 c9 -2 25 -2 35 0 9 3 1 5 -18 5 -19 0 -27 -2 -17 -5z"/>
<path d="M2330 1501 c0 -5 8 -12 18 -14 16 -4 16 -5 0 -6 -12 -1 -18 -9 -18
-25 0 -15 7 -26 18 -29 16 -4 16 -5 0 -6 -12 -1 -18 -9 -18 -26 0 -24 2 -25
70 -25 l69 0 4 68 3 67 2 -70 2 -70 45 3 45 4 0 69 0 69 -120 0 c-67 0 -120
-4 -120 -9z m35 -101 c3 -5 -1 -10 -10 -10 -9 0 -13 5 -10 10 3 6 8 10 10 10
2 0 7 -4 10 -10z"/>
<path d="M2293 1425 c0 -44 2 -61 4 -37 2 23 2 59 0 80 -2 20 -4 1 -4 -43z"/>
<path d="M2258 1323 c34 -2 90 -2 125 0 34 2 6 3 -63 3 -69 0 -97 -1 -62 -3z"/>
<path d="M2583 1265 c0 -22 2 -30 4 -17 2 12 2 30 0 40 -3 9 -5 -1 -4 -23z"/>
<path d="M1740 1101 c0 -16 18 -22 47 -15 25 7 25 8 8 15 -28 11 -55 11 -55 0z"/>
<path d="M1651 1081 c-8 -5 -20 -7 -27 -4 -6 2 -15 0 -19 -6 -4 -8 19 -11 72
-10 l78 0 -45 15 c-25 7 -45 14 -45 14 0 0 -6 -4 -14 -9z"/>
<path d="M2203 1073 c9 -2 17 -11 17 -19 0 -11 14 -14 58 -13 55 1 56 1 22 11
-19 5 -39 14 -44 19 -6 5 -24 8 -40 8 -17 -1 -23 -3 -13 -6z"/>
<path d="M2490 1071 c0 -8 25 -15 100 -28 49 -8 29 9 -28 24 -57 15 -72 16
-72 4z"/>
<path d="M1760 1050 c0 -5 5 -10 10 -10 6 0 10 5 10 10 0 6 -4 10 -10 10 -5 0
-10 -4 -10 -10z"/>
<path d="M1840 1050 c-22 -7 -21 -8 13 -9 20 -1 37 4 37 9 0 11 -14 11 -50 0z"/>
<path d="M1656 1010 c29 -11 231 -21 214 -11 -8 5 -64 11 -124 13 -61 3 -101
2 -90 -2z"/>
<path d="M1553 993 c9 -2 23 -2 30 0 6 3 -1 5 -18 5 -16 0 -22 -2 -12 -5z"/>
<path d="M1025 810 c10 -11 20 -20 23 -20 3 0 -3 9 -13 20 -10 11 -20 20 -23
20 -3 0 3 -9 13 -20z"/>
<path d="M2168 4813 c7 -3 16 -2 19 1 4 3 -2 6 -13 5 -11 0 -14 -3 -6 -6z"/>
<path d="M2098 4803 c7 -3 16 -2 19 1 4 3 -2 6 -13 5 -11 0 -14 -3 -6 -6z"/>
<path d="M1075 4344 l-30 -26 33 22 c17 12 32 23 32 26 0 7 -4 5 -35 -22z"/>
<path d="M885 4181 c-33 -32 -73 -73 -90 -92 -16 -19 12 6 63 56 84 82 97 96
90 95 -2 0 -30 -27 -63 -59z"/>
<path d="M4636 3303 c-6 -14 -5 -15 5 -6 7 7 10 15 7 18 -3 3 -9 -2 -12 -12z"/>
<path d="M4731 2994 c0 -11 3 -14 6 -6 3 7 2 16 -1 19 -3 4 -6 -2 -5 -13z"/>
<path d="M221 2984 c0 -11 3 -14 6 -6 3 7 2 16 -1 19 -3 4 -6 -2 -5 -13z"/>
<path d="M192 2780 c0 -14 2 -19 5 -12 2 6 2 18 0 25 -3 6 -5 1 -5 -13z"/>
<path d="M4771 2764 c0 -11 3 -14 6 -6 3 7 2 16 -1 19 -3 4 -6 -2 -5 -13z"/>
<path d="M4782 2670 c0 -14 2 -19 5 -12 2 6 2 18 0 25 -3 6 -5 1 -5 -13z"/>
<path d="M183 2625 c0 -22 2 -30 4 -17 2 12 2 30 0 40 -3 9 -5 -1 -4 -23z"/>
<path d="M182 2475 c0 -16 2 -22 5 -12 2 9 2 23 0 30 -3 6 -5 -1 -5 -18z"/>
<path d="M4782 2435 c0 -16 2 -22 5 -12 2 9 2 23 0 30 -3 6 -5 -1 -5 -18z"/>
<path d="M192 2375 c0 -16 2 -22 5 -12 2 9 2 23 0 30 -3 6 -5 -1 -5 -18z"/>
<path d="M4772 2290 c0 -19 2 -27 5 -17 2 9 2 25 0 35 -3 9 -5 1 -5 -18z"/>
<path d="M201 2284 c0 -11 3 -14 6 -6 3 7 2 16 -1 19 -3 4 -6 -2 -5 -13z"/>
<path d="M4762 2210 c0 -14 2 -19 5 -12 2 6 2 18 0 25 -3 6 -5 1 -5 -13z"/>
<path d="M217 2159 c4 -13 8 -18 11 -10 2 7 -1 18 -6 23 -8 8 -9 4 -5 -13z"/>
<path d="M4752 2135 c0 -16 2 -22 5 -12 2 9 2 23 0 30 -3 6 -5 -1 -5 -18z"/>
<path d="M4742 2070 c0 -14 2 -19 5 -12 2 6 2 18 0 25 -3 6 -5 1 -5 -13z"/>
<path d="M4731 2014 c0 -11 3 -14 6 -6 3 7 2 16 -1 19 -3 4 -6 -2 -5 -13z"/>
<path d="M4689 1842 c-3 -20 -2 -29 4 -23 5 5 7 19 5 32 -3 20 -5 19 -9 -9z"/>
<path d="M383 1588 c-2 -16 1 -18 10 -9 7 7 8 14 1 21 -6 6 -10 2 -11 -12z"/>
<path d="M520 1331 c0 -6 4 -13 10 -16 6 -3 7 1 4 9 -7 18 -14 21 -14 7z"/>
<path d="M4441 1287 c-13 -21 -12 -21 5 -5 10 10 16 20 13 22 -3 3 -11 -5 -18
-17z"/>
<path d="M650 1130 c0 -5 5 -10 11 -10 5 0 7 5 4 10 -3 6 -8 10 -11 10 -2 0
-4 -4 -4 -10z"/>
<path d="M670 1106 c0 -2 8 -10 18 -17 15 -13 16 -12 3 4 -13 16 -21 21 -21
13z"/>
<path d="M710 1056 c0 -2 8 -10 18 -17 15 -13 16 -12 3 4 -13 16 -21 21 -21
13z"/>
<path d="M810 936 c0 -2 8 -10 18 -17 15 -13 16 -12 3 4 -13 16 -21 21 -21 13z"/>
<path d="M970 760 c0 -5 5 -10 11 -10 5 0 7 5 4 10 -3 6 -8 10 -11 10 -2 0 -4
-4 -4 -10z"/>
<path d="M3899 653 c-13 -16 -12 -17 4 -4 16 13 21 21 13 21 -2 0 -10 -8 -17
-17z"/>
<path d="M1110 656 c0 -2 8 -10 18 -17 15 -13 16 -12 3 4 -13 16 -21 21 -21
13z"/>
<path d="M3238 283 c7 -3 16 -2 19 1 4 3 -2 6 -13 5 -11 0 -14 -3 -6 -6z"/>
<path d="M2190 235 c0 -17 5 -25 18 -25 9 0 34 -3 55 -6 33 -6 37 -4 37 14 0
21 -9 26 -72 37 -36 6 -38 4 -38 -20z"/>
<path d="M2320 222 c0 -17 10 -23 57 -32 42 -9 58 -9 61 -1 2 7 18 9 43 5 26
-4 39 -3 39 5 0 6 10 10 23 10 16 -1 18 -2 5 -6 -10 -2 -18 -9 -18 -15 0 -5 7
-7 16 -4 9 3 22 6 30 6 8 0 14 9 14 20 0 19 -7 20 -104 20 -57 0 -118 3 -135
6 -27 6 -31 4 -31 -14z"/>
<path d="M2998 213 c7 -3 16 -2 19 1 4 3 -2 6 -13 5 -11 0 -14 -3 -6 -6z"/>
<path d="M2938 203 c7 -3 16 -2 19 1 4 3 -2 6 -13 5 -11 0 -14 -3 -6 -6z"/>
<path d="M2278 173 c7 -3 16 -2 19 1 4 3 -2 6 -13 5 -11 0 -14 -3 -6 -6z"/>
<path d="M2693 173 c9 -2 23 -2 30 0 6 3 -1 5 -18 5 -16 0 -22 -2 -12 -5z"/>
<path d="M2438 163 c28 -2 76 -2 105 0 28 2 5 3 -53 3 -58 0 -81 -1 -52 -3z"/>
</g>
</svg>
