<svg xmlns="http://www.w3.org/2000/svg" width="512" height="512" viewBox="0 0 512 512" version="1.1"><path d="" stroke="none" fill="#080404" fill-rule="evenodd"/><path d="M 364.113 13.925 C 359.199 15.622, 355.831 18.670, 325.756 48.643 C 303.527 70.797, 292.185 82.817, 290.938 85.542 C 287.108 93.920, 287.292 95.866, 294.435 122.445 C 298.090 136.045, 300.842 147.921, 300.551 148.836 C 299.827 151.112, 149.781 301, 148.227 301 C 147.543 301, 135.905 298.027, 122.363 294.393 C 95.899 287.291, 93.935 287.107, 85.542 290.933 C 82.799 292.184, 70.844 303.496, 48.335 326.138 C 16.894 357.766, 15.088 359.782, 13.585 364.932 C 12.713 367.919, 12.032 371.519, 12.071 372.932 C 12.221 378.402, 21.485 410.296, 23.242 411.393 C 24.738 412.326, 30.419 407.053, 63.273 374.240 C 84.331 353.208, 102.222 336.003, 103.030 336.007 C 105.911 336.022, 159.095 350.695, 160.172 351.772 C 161.253 352.853, 175.982 406.101, 175.994 408.970 C 175.997 409.779, 158.563 427.915, 137.250 449.273 C 102.573 484.024, 98.682 488.242, 100.231 489.399 C 101.182 490.110, 110.165 492.829, 120.191 495.440 C 139.765 500.538, 142.519 500.686, 150.458 497.067 C 153.201 495.816, 165.156 484.504, 187.665 461.862 C 219.106 430.234, 220.912 428.218, 222.415 423.068 C 223.287 420.081, 224 416.689, 224 415.530 C 224 414.372, 221.060 402.480, 217.467 389.105 C 213.873 375.729, 211.168 364.046, 211.456 363.143 C 212.194 360.821, 362.249 211, 363.837 211 C 364.554 211, 376.015 213.925, 389.304 217.500 C 402.594 221.075, 414.405 224, 415.552 224 C 416.699 224, 420.081 223.287, 423.068 222.415 C 428.218 220.912, 430.234 219.106, 461.862 187.665 C 484.504 165.156, 495.816 153.201, 497.067 150.458 C 500.686 142.519, 500.538 139.765, 495.440 120.191 C 492.829 110.165, 490.110 101.182, 489.399 100.231 C 488.242 98.682, 484.024 102.573, 449.273 137.250 C 427.915 158.563, 409.779 175.989, 408.970 175.975 C 406.052 175.924, 352.854 161.254, 351.812 160.212 C 350.761 159.161, 336.036 105.881, 336.012 103.043 C 336.006 102.241, 353.100 84.447, 374 63.500 C 394.900 42.553, 412 24.927, 412 24.330 C 412 23.733, 411.438 22.781, 410.750 22.215 C 409.160 20.905, 375.165 11.989, 371.926 12.033 C 370.592 12.051, 367.076 12.902, 364.113 13.925 M 119.776 18.784 C 110.578 21.378, 102.493 24.070, 101.809 24.766 C 100.814 25.782, 108.246 33.721, 139.284 64.796 C 160.578 86.116, 177.991 103.996, 177.980 104.530 C 177.914 107.747, 162.880 160.549, 161.692 161.737 C 160.504 162.925, 107.747 177.917, 104.530 177.981 C 103.997 177.991, 86.439 160.900, 65.513 140 C 44.587 119.100, 26.740 102, 25.854 102 C 23.793 102, 22.970 104.182, 17.936 123 C 13.352 140.137, 13.154 145.525, 16.847 152.622 C 19.861 158.415, 83.535 221.530, 88.389 223.536 C 95.010 226.272, 101.190 225.523, 125.234 219.071 C 137.678 215.732, 148.674 213, 149.670 213 C 150.683 213, 159.519 221.030, 169.744 231.244 L 188.008 249.488 218.748 218.748 L 249.488 188.008 231.244 169.744 C 220.073 158.561, 213 150.725, 213 149.531 C 213 148.459, 215.700 137.572, 219 125.338 C 225.391 101.645, 226.207 94.857, 223.464 88.218 C 221.498 83.458, 158.241 19.770, 152.529 16.799 C 145.354 13.068, 138.595 13.477, 119.776 18.784 M 308 191.784 C 304.558 192.285, 192.409 304.450, 191.801 308 C 191.124 311.952, 192.835 316.846, 195.504 318.595 C 198.867 320.798, 204.348 320.608, 207.705 318.172 C 209.242 317.056, 235.083 291.474, 265.129 261.322 C 301.657 224.664, 319.901 205.672, 320.192 204 C 320.755 200.768, 319.398 195.575, 317.601 194.084 C 315.651 192.466, 310.989 191.349, 308 191.784 M 293.011 293.489 L 262.535 323.977 285.401 346.923 C 305.239 366.829, 308.181 370.175, 307.614 372.184 C 303.301 387.470, 302.444 406.594, 305.448 420.500 C 311.945 450.571, 331.576 475.417, 359.133 488.444 C 374.485 495.702, 382.766 497.476, 401 497.414 C 413.599 497.371, 417.937 496.964, 424.175 495.241 C 460.373 485.240, 485.346 460.259, 495.220 424.175 C 496.917 417.976, 497.331 413.519, 497.377 401 C 497.442 382.760, 495.670 374.457, 488.437 359.133 C 468.596 317.094, 421.304 294.814, 376.690 306.486 C 372.842 307.493, 370.309 307.689, 369.190 307.066 C 368.260 306.550, 357.829 296.423, 346.009 284.563 C 334.189 272.704, 324.286 263, 324.003 263 C 323.719 263, 309.773 276.720, 293.011 293.489 M 387.919 352.833 C 362.418 359.490, 345.939 387.148, 352.489 412.297 C 358.990 437.257, 382.520 453.468, 407.176 449.975 C 424.502 447.520, 438.112 437.388, 445.791 421.230 C 449.130 414.203, 449.499 412.572, 449.844 403.297 C 450.152 395.019, 449.827 391.789, 448.122 386.177 C 440.394 360.734, 413.889 346.054, 387.919 352.833" stroke="none" fill="#002d59" fill-rule="evenodd"/></svg>